<?xml version="1.0" encoding="UTF-8"?>
<svg id="Layer_2" data-name="Layer 2" xmlns="http://www.w3.org/2000/svg" viewBox="0 0 394.81 176.63">
  <defs>
    <style>
      .cls-1, .cls-2, .cls-3, .cls-4, .cls-5, .cls-6, .cls-7, .cls-8, .cls-9, .cls-10, .cls-11, .cls-12, .cls-13, .cls-14, .cls-15, .cls-16, .cls-17, .cls-18 {
        fill-rule: evenodd;
      }

      .cls-1, .cls-2, .cls-3, .cls-4, .cls-5, .cls-6, .cls-7, .cls-8, .cls-9, .cls-10, .cls-11, .cls-12, .cls-13, .cls-14, .cls-15, .cls-16, .cls-17, .cls-18, .cls-19, .cls-20, .cls-21, .cls-22, .cls-23, .cls-24, .cls-25, .cls-26, .cls-27, .cls-28, .cls-29, .cls-30, .cls-31, .cls-32, .cls-33, .cls-34, .cls-35, .cls-36, .cls-37, .cls-38, .cls-39, .cls-40, .cls-41, .cls-42, .cls-43, .cls-44, .cls-45, .cls-46, .cls-47, .cls-48, .cls-49, .cls-50, .cls-51, .cls-52, .cls-53, .cls-54, .cls-55, .cls-56, .cls-57, .cls-58, .cls-59, .cls-60, .cls-61, .cls-62, .cls-63, .cls-64, .cls-65, .cls-66, .cls-67, .cls-68, .cls-69, .cls-70, .cls-71, .cls-72, .cls-73, .cls-74, .cls-75, .cls-76, .cls-77, .cls-78, .cls-79, .cls-80, .cls-81, .cls-82 {
        stroke-width: 0px;
      }

      .cls-1, .cls-79 {
        fill: #005439;
      }

      .cls-2, .cls-81 {
        fill: #064;
      }

      .cls-3 {
        fill: #3d991f;
      }

      .cls-4 {
        fill: #41a321;
      }

      .cls-5 {
        fill: #3e9c1f;
      }

      .cls-6 {
        fill: #62bf43;
      }

      .cls-7, .cls-32 {
        fill: #828282;
      }

      .cls-8 {
        fill: #4db02c;
      }

      .cls-9 {
        fill: #52ad34;
      }

      .cls-10, .cls-42 {
        fill: #888a8c;
      }

      .cls-11, .cls-60 {
        fill: #b32929;
      }

      .cls-12, .cls-61 {
        fill: #a6a6a6;
      }

      .cls-13, .cls-59 {
        fill: #bf2c2c;
      }

      .cls-14, .cls-58 {
        fill: #d4d4d4;
      }

      .cls-15, .cls-56 {
        fill: #d43939;
      }

      .cls-16, .cls-78 {
        fill: #fff;
      }

      .cls-17 {
        fill: #8f8f8f;
      }

      .cls-18 {
        fill: #616263;
        opacity: .6;
      }

      .cls-19 {
        fill: #6fbd38;
      }

      .cls-20 {
        fill: #497016;
      }

      .cls-21 {
        fill: #5e8c23;
      }

      .cls-22 {
        fill: #60ab2a;
      }

      .cls-23 {
        fill: #5e2b00;
      }

      .cls-24 {
        fill: #5d8000;
      }

      .cls-25 {
        fill: #79a600;
      }

      .cls-26 {
        fill: #4f370d;
      }

      .cls-27 {
        fill: #519421;
      }

      .cls-28 {
        fill: #77ab25;
      }

      .cls-29 {
        fill: #77aa26;
      }

      .cls-30 {
        fill: #70a123;
      }

      .cls-31 {
        fill: #733400;
      }

      .cls-33 {
        fill: #517a1c;
      }

      .cls-34 {
        fill: #4c8a1f;
      }

      .cls-35 {
        fill: #49992e;
      }

      .cls-36 {
        fill: #638700;
      }

      .cls-37 {
        fill: #58851e;
      }

      .cls-38 {
        fill: #62b347;
      }

      .cls-39 {
        fill: #639421;
      }

      .cls-40 {
        fill: #81b315;
      }

      .cls-41 {
        fill: #85b816;
      }

      .cls-43 {
        fill: #88ba00;
      }

      .cls-44 {
        fill: #94cc18;
      }

      .cls-45 {
        fill: #70a629;
      }

      .cls-46 {
        fill: #6d9c23;
      }

      .cls-47 {
        fill: #3a590f;
      }

      .cls-48 {
        fill: #599e27;
      }

      .cls-49 {
        fill: #83b516;
      }

      .cls-50 {
        fill: #3e872a;
      }

      .cls-51 {
        fill: #3d7317;
      }

      .cls-52 {
        fill: #366614;
      }

      .cls-53 {
        fill: #436614;
      }

      .cls-54 {
        fill: #448019;
      }

      .cls-55 {
        fill: #42781c;
      }

      .cls-57 {
        fill: #ccc8ba;
      }

      .cls-62 {
        fill: #b7b9ba;
      }

      .cls-63 {
        fill: #90c400;
      }

      .cls-64 {
        fill: #729c00;
      }

      .cls-65 {
        fill: #8cc117;
      }

      .cls-66 {
        fill: #6b9100;
      }

      .cls-67 {
        fill: #7dab00;
      }

      .cls-68 {
        fill: #994a37;
      }

      .cls-69 {
        fill: #6b3e0b;
      }

      .cls-70 {
        fill: #99601f;
      }

      .cls-71 {
        fill: #804a0d;
      }

      .cls-72 {
        fill: #7cb82e;
      }

      .cls-73 {
        fill: #9dd91a;
      }

      .cls-74 {
        fill: #874c1b;
      }

      .cls-75 {
        fill: #6a9e28;
      }

      .cls-76 {
        fill: #80b837;
      }

      .cls-77 {
        fill: #679926;
      }

      .cls-80 {
        fill: #004a32;
      }

      .cls-82 {
        fill: #002845;
      }
    </style>
  </defs>
  <g id="Layer_1-2" data-name="Layer 1">
    <g>
      <g>
        <polygon class="cls-7" points="250.69 45.33 255.58 57.16 255.26 57.29 250.37 45.46 250.69 45.33"/>
        <polygon class="cls-7" points="246.63 57.18 250.36 45.34 250.7 45.45 246.97 57.28 246.63 57.18"/>
        <polygon class="cls-7" points="242.38 57.16 247.27 45.33 247.59 45.46 242.7 57.29 242.38 57.16"/>
        <polygon class="cls-7" points="251.24 63.7 248.72 16.11 249.24 16.08 251.76 63.7 251.24 63.7"/>
        <polygon class="cls-7" points="246.2 63.7 248.72 16.08 249.24 16.11 246.72 63.7 246.2 63.7"/>
        <g>
          <rect class="cls-61" x="246.24" y="33.3" width="5.47" height=".52"/>
          <rect class="cls-61" x="244.39" y="45.13" width="9.18" height=".52"/>
          <rect class="cls-61" x="242.54" y="56.97" width="12.88" height=".52"/>
        </g>
        <polygon class="cls-12" points="249.24 16.13 241.79 63.7 241.26 63.7 248.72 16.05 249.24 16.13"/>
        <polygon class="cls-12" points="249.24 16.05 256.7 63.7 256.17 63.7 248.72 16.13 249.24 16.05"/>
        <rect class="cls-61" x="245.42" y="45.27" width=".35" height="12.08" transform="translate(-5.3 50.04) rotate(-11.51)"/>
        <polygon class="cls-12" points="250.99 57.28 247.26 45.45 247.59 45.34 251.32 57.18 250.99 57.28"/>
        <rect class="cls-61" x="246.32" y="51.14" width="12.08" height=".35" transform="translate(151.72 288.36) rotate(-78.49)"/>
        <g>
          <path class="cls-7" d="m255.37,15.73c0-.26-.04-.51-.08-.75-.05-.25-.1-.48-.17-.72-.07-.24-.15-.47-.25-.7-.1-.23-.21-.45-.35-.68-.12-.21-.25-.42-.41-.61-.15-.2-.3-.4-.47-.57-.04-.05-.09-.1-.13-.14-.14-.14-.28-.26-.43-.39-.18-.15-.39-.31-.59-.44-.2-.15-.43-.27-.65-.37-.21-.13-.44-.22-.69-.3-.22-.1-.46-.16-.71-.21-.24-.07-.48-.12-.73-.14-.24-.03-.48-.05-.73-.05h0c-.25,0-.5.02-.74.04-.25.03-.49.08-.73.14-.24.05-.47.12-.7.21-.23.08-.46.17-.69.3-.23.1-.44.23-.66.37-.2.14-.4.28-.58.44-.14.13-.29.25-.43.39-.04.04-.09.09-.13.14-.17.17-.33.37-.48.57-.14.19-.28.4-.4.61-.14.22-.25.44-.35.68-.1.22-.18.45-.25.7-.08.23-.13.46-.17.72-.04.24-.07.49-.08.75-.02.13-.02.24-.02.37s0,.25.02.38c0,.24.03.48.08.73.04.25.1.49.17.73.41,1.46,1.49,2.81,2.61,3.52.2.14.43.26.65.37.22.12.44.21.68.29.23.1.47.16.72.22.08.02.15.04.23.06.16.03.33.06.5.08h.02s.09,0,.13,0c.17.02.35.03.52.03h.15c.17,0,.35,0,.52-.03.05,0,.09,0,.14,0h0c.16-.02.34-.05.5-.08.08-.02.15-.04.23-.06.25-.06.49-.13.73-.22.23-.08.45-.17.67-.29.22-.11.44-.23.65-.37.21-.14.42-.29.61-.45.14-.12.28-.24.41-.37.04-.04.09-.09.13-.14.17-.17.33-.37.47-.57.16-.2.3-.42.42-.64.14-.2.24-.43.34-.65.1-.22.18-.46.25-.71.08-.24.14-.48.17-.73.05-.24.07-.48.08-.73.02-.13.02-.25.02-.38s0-.24-.02-.37Zm-.25,1.44c-.04.24-.1.47-.16.71-.07.24-.15.47-.26.7-.09.21-.18.43-.32.63-.11.21-.24.42-.4.61-.14.2-.3.4-.47.57-.04.05-.08.09-.12.13-.13.13-.26.25-.4.36-.18.16-.38.31-.58.44-.2.14-.42.26-.64.37-.2.11-.43.2-.65.28-.22.09-.45.16-.7.21-.08.02-.14.04-.22.06-.16.03-.34.06-.51.08-.04,0-.09,0-.13,0-.17.02-.35.03-.52.03h-.14c-.17,0-.35,0-.52-.03-.04,0-.08,0-.12,0h0c-.17-.02-.34-.05-.5-.08-.08-.02-.15-.03-.22-.06-.24-.05-.47-.12-.7-.21-.22-.07-.44-.16-.65-.28-.22-.11-.44-.23-.65-.37-1.28-.85-2.18-2.17-2.53-3.42-.07-.23-.13-.46-.16-.71-.05-.23-.07-.46-.08-.71-.02-.12-.02-.24-.02-.37s0-.25.02-.37c0-.24.03-.48.08-.72.04-.24.1-.46.16-.7.07-.23.14-.46.25-.69.09-.22.2-.44.33-.66.12-.2.24-.4.39-.58.14-.2.3-.4.47-.57.04-.05.09-.1.13-.14.13-.13.26-.25.41-.37.18-.15.37-.3.57-.42.2-.15.42-.27.64-.38.21-.11.44-.2.67-.28.22-.09.44-.15.68-.2.23-.07.47-.11.73-.14.23-.03.47-.04.72-.04h0c.24,0,.47,0,.71.04.25.03.49.08.73.14.23.05.45.12.68.2.23.08.44.17.66.29.22.1.44.22.64.37.2.12.4.26.58.42.15.12.28.24.41.37.04.04.09.09.12.14.18.17.34.37.47.56.15.19.28.39.4.59.13.21.23.43.33.65.1.22.18.45.25.7.07.23.13.45.16.7.05.23.07.47.08.72.02.12.02.24.02.37s0,.25-.02.37c0,.24-.03.47-.08.71Z"/>
          <g>
            <rect class="cls-32" x="248.85" y="11.98" width=".26" height="4.12"/>
            <rect class="cls-32" x="248.14" y="12.1" width=".26" height="4.12" transform="translate(10.14 85.79) rotate(-20)"/>
            <rect class="cls-32" x="247.52" y="12.46" width=".26" height="4.12" transform="translate(48.6 162.57) rotate(-40)"/>
            <rect class="cls-32" x="247.06" y="13.01" width=".26" height="4.12" transform="translate(110.57 221.62) rotate(-60)"/>
            <rect class="cls-32" x="246.82" y="13.68" width=".26" height="4.12" transform="translate(188.57 256.2) rotate(-80)"/>
            <rect class="cls-32" x="244.89" y="16.32" width="4.12" height=".26" transform="translate(.9 43.16) rotate(-10.01)"/>
            <polygon class="cls-7" points="249.04 16.21 245.48 18.27 245.35 18.04 248.91 15.98 249.04 16.21"/>
            <polygon class="cls-7" points="249.08 16.18 246.43 19.33 246.23 19.17 248.88 16.01 249.08 16.18"/>
            <rect class="cls-32" x="246.22" y="17.9" width="4.12" height=".26" transform="translate(146.41 245.16) rotate(-70)"/>
            <rect class="cls-32" x="248.85" y="16.09" width=".26" height="4.12"/>
            <polygon class="cls-7" points="249.1 16.05 250.51 19.92 250.26 20.01 248.86 16.14 249.1 16.05"/>
            <polygon class="cls-7" points="249.08 16.01 251.73 19.17 251.53 19.33 248.88 16.18 249.08 16.01"/>
            <polygon class="cls-7" points="249.04 15.98 252.61 18.04 252.48 18.27 248.91 16.21 249.04 15.98"/>
            <rect class="cls-32" x="250.88" y="14.39" width=".26" height="4.12" transform="translate(191.19 260.78) rotate(-79.99)"/>
            <rect class="cls-32" x="248.95" y="15.61" width="4.12" height=".26" transform="translate(1.08 43.83) rotate(-10)"/>
            <polygon class="cls-7" points="248.91 15.98 252.48 13.92 252.61 14.15 249.04 16.21 248.91 15.98"/>
            <polygon class="cls-7" points="248.88 16.01 251.53 12.86 251.73 13.02 249.08 16.18 248.88 16.01"/>
            <rect class="cls-32" x="247.62" y="14.03" width="4.12" height=".26" transform="translate(150.98 243.94) rotate(-70)"/>
          </g>
          <path class="cls-12" d="m248.98,17.36c-.7,0-1.26-.56-1.26-1.26s.56-1.26,1.26-1.26,1.26.56,1.26,1.26-.56,1.26-1.26,1.26Z"/>
          <g>
            <g>
              <polygon class="cls-12" points="250.04 7.65 249.35 12.13 248.61 12.13 247.92 7.65 250.04 7.65"/>
              <polygon class="cls-17" points="248.99 12.13 249.35 12.13 250.04 7.65 248.99 7.65 248.99 12.13"/>
            </g>
            <g>
              <polygon class="cls-12" points="250.04 24.54 249.35 20.06 248.61 20.06 247.92 24.54 250.04 24.54"/>
              <polygon class="cls-17" points="248.99 20.06 249.35 20.06 250.04 24.54 248.99 24.54 248.99 20.06"/>
            </g>
            <g>
              <polygon class="cls-12" points="247.09 7.8 247.97 12.24 247.27 12.5 245.09 8.53 247.09 7.8"/>
              <polygon class="cls-17" points="247.63 12.37 247.97 12.24 247.09 7.8 246.1 8.16 247.63 12.37"/>
            </g>
            <g>
              <polygon class="cls-12" points="252.87 23.67 250.69 19.69 249.98 19.95 250.87 24.39 252.87 23.67"/>
              <polygon class="cls-17" points="250.34 19.82 250.69 19.69 252.87 23.67 251.88 24.03 250.34 19.82"/>
            </g>
            <g>
              <polygon class="cls-12" points="244.37 8.94 246.72 12.82 246.14 13.3 242.74 10.31 244.37 8.94"/>
              <polygon class="cls-17" points="246.44 13.05 246.72 12.82 244.37 8.94 243.56 9.62 246.44 13.05"/>
            </g>
            <g>
              <polygon class="cls-12" points="255.22 21.88 251.81 18.89 251.24 19.37 253.59 23.25 255.22 21.88"/>
              <polygon class="cls-17" points="251.54 19.13 251.81 18.89 255.22 21.88 254.41 22.56 251.54 19.13"/>
            </g>
            <g>
              <polygon class="cls-12" points="242.2 10.95 245.73 13.79 245.36 14.44 241.14 12.79 242.2 10.95"/>
              <polygon class="cls-17" points="245.55 14.1 245.73 13.79 242.2 10.95 241.67 11.87 245.55 14.1"/>
            </g>
            <g>
              <polygon class="cls-12" points="256.82 19.4 252.6 17.75 252.23 18.4 255.76 21.24 256.82 19.4"/>
              <polygon class="cls-17" points="252.42 18.07 252.6 17.75 256.82 19.4 256.3 20.31 252.42 18.07"/>
            </g>
            <g>
              <polygon class="cls-12" points="240.85 13.58 245.14 15.04 245.01 15.77 240.48 15.68 240.85 13.58"/>
              <polygon class="cls-17" points="245.08 15.4 245.14 15.04 240.85 13.58 240.67 14.62 245.08 15.4"/>
            </g>
            <g>
              <polygon class="cls-12" points="257.48 16.51 252.95 16.42 252.82 17.15 257.11 18.61 257.48 16.51"/>
              <polygon class="cls-17" points="252.89 16.77 252.95 16.42 257.48 16.51 257.29 17.55 252.89 16.77"/>
            </g>
            <g>
              <polygon class="cls-12" points="240.48 16.51 245.01 16.42 245.14 17.15 240.85 18.61 240.48 16.51"/>
              <polygon class="cls-17" points="245.07 16.77 245.01 16.42 240.48 16.51 240.66 17.55 245.07 16.77"/>
            </g>
            <g>
              <polygon class="cls-12" points="257.11 13.58 252.82 15.04 252.95 15.77 257.48 15.68 257.11 13.58"/>
              <polygon class="cls-17" points="252.88 15.4 252.82 15.04 257.11 13.58 257.29 14.62 252.88 15.4"/>
            </g>
            <g>
              <polygon class="cls-12" points="241.14 19.4 245.36 17.75 245.73 18.4 242.2 21.24 241.14 19.4"/>
              <polygon class="cls-17" points="245.54 18.07 245.36 17.75 241.14 19.4 241.66 20.31 245.54 18.07"/>
            </g>
            <g>
              <polygon class="cls-12" points="255.76 10.95 252.23 13.79 252.6 14.44 256.82 12.79 255.76 10.95"/>
              <polygon class="cls-17" points="252.41 14.1 252.23 13.79 255.76 10.95 256.28 11.87 252.41 14.1"/>
            </g>
            <g>
              <polygon class="cls-12" points="242.74 21.88 246.14 18.89 246.72 19.37 244.37 23.25 242.74 21.88"/>
              <polygon class="cls-17" points="246.42 19.13 246.14 18.89 242.74 21.88 243.54 22.56 246.42 19.13"/>
            </g>
            <g>
              <polygon class="cls-12" points="253.59 8.94 251.24 12.82 251.81 13.3 255.22 10.31 253.59 8.94"/>
              <polygon class="cls-17" points="251.52 13.05 251.24 12.82 253.59 8.94 254.4 9.62 251.52 13.05"/>
            </g>
            <g>
              <polygon class="cls-12" points="245.09 23.67 247.27 19.69 247.97 19.95 247.09 24.39 245.09 23.67"/>
              <polygon class="cls-17" points="247.61 19.82 247.27 19.69 245.09 23.67 246.08 24.03 247.61 19.82"/>
            </g>
            <g>
              <polygon class="cls-12" points="250.87 7.8 249.98 12.24 250.69 12.5 252.87 8.53 250.87 7.8"/>
              <polygon class="cls-17" points="250.33 12.37 249.98 12.24 250.87 7.8 251.86 8.16 250.33 12.37"/>
            </g>
          </g>
        </g>
      </g>
      <g>
        <path class="cls-5" d="m347.44,101.76H48.73c.87-.84,1.55-1.73,2-2.33,4.3-5.69,4.62-2.52,5.63-3.93,3.88-5.43,4.1-1.6,5.79-3.58,4.82-5.65,6.36-1.77,8.66-4.64,3.65-4.56,5.73-.3,8.08-3.69,3.33-4.81,5.82-2.02,6.45-3.5,2.4-5.63,4.21-.81,7.37-5.59,3.04-4.61,4.11-.92,5.53-2.71,2.27-2.87,4.26-.55,4.95-1.49,3.33-4.56,3.94-2.17,4.54-2.93,2.76-3.48,5.07,1.79,7.12-1.3,1.91-2.88,3.42-1.58,4.07-1.63.55-.04.91-1.36,3.42-1.79,1.2-.2,4.31.05,5.18-1.19.59-.84,2.68-2.49,5.15-2.96,1.37-.26,2.95.62,4.19.27,1.85-.52,2.93-2.22,3.66-2.03,1.36.34,2.81-.8,4.13-.98,1.37-.18,3.08,1.46,4.22,1.08,2.11-.7,3.19-2.79,3.66-2.66,4.37,1.25,5.75-2.78,6.61-2.33,5.13,2.7,3.14-2.82,5.94-1,3.79,2.47,3.83-1.19,5.8-1.19.55,0,2.32,1.57,4.34,1.44,1.05-.07,2.06-2.08,3.22-1.84,1.61.33,3.24,2.54,4.57,2.68,2.02.22,3.34-.66,3.36-.68,3.25-3.71,2.29,1.15,5.18-.08.93-.4,2.72-1.69,4.74-1.63,1.44.04,3.01,1.44,4.51,1.27,1.5-.16,2.67-1.81,3.95-1.79,2.05.04,3.51,1.71,3.99,1.41,3.45-2.11,3.42-.66,6.06-.38,2.16.23,4.19-.57,5.22-.7,4.57-.6,5.57,2.73,6.97,1.74,5.5-3.91,3.96,3.65,7.08,1.82,4.88-2.87,4.78,2.21,7.23.46.27-.19,1.55-1.51,3.14-1.25,1,.17,2.17,1.94,3.14,1.98,1.56.06,2.66-.78,2.67-.79.45-.1,1.08.74,1.85,1.14.59.3,1.4.08,1.94.35,1.12.55,1.96,2.74,3.13,2.9.99.14,2.02-1.04,2.82-.87,1.35.29,1.56,1.64,2.4,1.74.76.09,1.24-.52,2.52-.03,1.01.39,2.06,1.96,3.39,2.28.7.17,1.71-.53,2.38-.33.86.26,1.56,1.6,2.28,1.76,1.21.27,1.58-1.08,2.4-.62,2.11,1.17,2.16,2.04,4.6,2.31,1.32.14,2.54-.67,3.72-.35,1.84.5,3.21,2.09,3.23,2.12.38.43,1.58-.27,2.67.3.94.49,1.79,2.15,3.01,2.52.99.3,2.08-.24,3.1.16.99.39,1.93,1.94,2.84,2.25,1.35.46,2.34-1.98,4.69,1.68.99,1.54,2.3-.24,3.8.57,1.38.74,1.4,2.57,2.96,3.12,4.48,2.08,5.22-.43,6.5,1.74,2.95,4.99,4.38,2.09,5.33,3.42,3.29,4.58,4.19.73,5.12,2.68,3.43,7.22,5.47,2.88,6.11,4.56,2.86,7.52,1.6.19,5.3,5.23,2.37,3.23,1.99,1.84,4.04,3.31,1.61,1.16,3.68,2.85,5.04,4.5Z"/>
        <path class="cls-8" d="m294.14,69.62c-3.75.34-3.71-2.81-5.58-2.81-.86,0-1.62.35-2.24-.36-2.74-3.14-4.42-1.26-6.41-1.47-2.67-.28-2.92-1.29-4.87-2.38-1.48,1.23-2.54.84-3.71-.38-.73-.76-.86-.71-.86-.71-1.26,0-1.78,1.42-4.71-1.15-1.97-1.73-2.04-.58-3.43-.75-1.68-.2-1.43-2.38-3.24-1.42-3.83,2.03-3.84-2.4-5.98-2.5-1.51-.07-1.66-.5-2.72-1.26-3.96,2.29-4.83-1.3-6.36-1.3-2.14,0-2.68,3.18-5.57.75-3.36-2.83-4.9,3.29-7.49-1.56-1.59-2.98-2.89,0-4.51,0-.64,0-1.18-.37-1.76-.75-.83-.55-1.85-1.24-3.6-1.24-.84,0-1.22.1-1.98.29-7.46,1.84-5.63-1.9-9.95.75-.63.39-1.27,0-1.9-.38-.68-.4-1.53-.89-2.53-.91v-.51s0,0-.01,0v.51c-.39,0-.9.34-1.43.7-2.09,1.4-2.96,1.41-5.28.38-4.7-2.08-6.44,3.64-9.38.08-.11-.13-.27-.33-.34-.36,0,0-.33.02-1.3,1.13-.42.48-2.17,1.18-4.07.97-.89-.1-1.71-.75-2.58-1.43-1.68-1.32-2.06-1.26-2.06-1.26-.28,0-.72.41-1.08.73-2.63,2.42-4.88.26-6.38-.31-1.16.08-2.07,3.74-6.19,1.06-.26-.17-.41-.22-.48-.24-.06.08-.16.26-.22.38-.36.65-.95,1.75-2.45,1.75-.68,0-1.49-.24-2.47-.72-1.13.99-2.86,3.22-6.42,2.34-5.3,5.08-5.6,1.22-7.85,1.52-1.2.16-2.69,1.35-4.36.97-.1.05-.44.31-.68.51-3.43,2.7-4.26,1.22-6.49,1.22-1.49,0-4.22,1.5-5,2.62-1.65,2.37-5.76.46-8.15,2.75-1.19,1.13-1.52.37-2.57.37-2.2,0-1.72,4.23-6.1,2.38-3.09-1.31-2.45.97-3.97.97-1.05,0-1.18-.51-2.81,1.45-.88,1.06-1.25,1.98-6.03,2.81,8.76,0,20.15-8.16,21.19-4.34,6.34-4.53,19.17-7.91,18.03-3.83,9.85-6.09,20.04-6.3,17.85-1.71,7.22-5.34,17.55-6.04,14.7-1.11,7.13-5.29,20.7-7.25,17.59-.1,8.01-4.94,18.6-5.69,14.61.2,11.2-5.54,21.66-5.64,19.17.2,9.8-4.23,19.69-4.08,15.23,1.11,11.68-4.23,23.5-3.17,17.85,2.42,10.76-3.98,20.92-1.81,16.36,2.12,13.52-1.23,19.41-.03,16.1,2.92,6.54-1.18,8.28,1.31,12.78,1.97-4.71-1.65-3.11-3.31-5.9-3.06Z"/>
      </g>
      <g>
        <g>
          <path class="cls-31" d="m139.83,58.11c-.94.81-2.08,2.39-2.91,3.64h0c-1.23,1.86-1.26,1.79-1.13,4.95.1,1.71.47,2.73.99,3.37.06.08.01.21-.07.2-.36-.03-.67-.16-.95-.08-.11.03-.45.03-.55-.03-.21-.11-.67-.11-.9-.02-.12.05-.28.06-.42,0-.24-.1-.49.01-.75.08-.09.02-.15-.12-.08-.2.5-.6.85-1.51.91-3.04.1-2.23.02-3.14-.38-4.06-.57-1.31-2.71-4.14-3.92-4.97.21.12.63.26.98.32.28.05.52.05.56-.04.44.66,2.01,2.52,2.6,3.06.13.11.23.15.31.11.35-.17.25-2.06.24-2.45.24.15.75.17.98,0-.04,1.12-.14,3.02.72,2.32.69-.56,2.23-2.53,2.83-3.14.1.17.76.12.95-.01Z"/>
          <path class="cls-23" d="m134.16,70.19c-.09.01-.19,0-.27-.04-.24-.1-.49.01-.75.08-.09.02-.15-.12-.08-.2.5-.6.85-1.51.91-3.04.1-2.23.02-3.14-.38-4.06-.57-1.31-2.71-4.14-3.92-4.97.21.12.63.26.98.32,1.4,1.51,2.67,3.05,3.38,4.75.7,1.67.46,5.19.12,7.17Z"/>
          <path class="cls-23" d="m134.72,59.06c-.06,1.58-.26,2.35-.6,2.33.35-.17.25-2.06.24-2.45.09.06.22.1.36.11Z"/>
          <path class="cls-23" d="m139.24,58.24c-1.93,2.21-3.24,3.48-3.53,3.18.09,0,.21-.04.34-.16.69-.56,2.23-2.53,2.83-3.14.04.07.19.1.36.11Z"/>
          <path class="cls-74" d="m136.78,70.07c.06.08.01.21-.07.2-.36-.03-.67-.16-.95-.08-.04.01-.09.02-.16.02-.29-5.6-.48-6.44,1.33-8.46-1.23,1.85-1.26,1.79-1.13,4.95.1,1.71.47,2.73.99,3.37Z"/>
        </g>
        <g>
          <path class="cls-35" d="m144.5,51.49c.38,1.83-.48,3.54-1.74,4.04-.15,1.78-1.39,3.11-2.78,2.96-.57.94-1.52,1.5-2.56,1.25-.78.76-1.81.9-2.69.36-.93.63-2.11.5-2.95-.45-.94.13-1.75-.36-2.28-1.14-1.27,0-2.33-1.17-2.56-2.72-1.4-.43-2.32-2.27-1.9-4.16-1.01-1.31-1.01-3.42.01-4.72-.44-1.85.43-3.77,1.88-4.22-.23-1.94.83-3.54,2.17-3.81-.12-1.29.34-2.63,1.32-3.33.21-1.18.91-2.12,1.83-2.43.18-.51.54-.97,1.02-1.14.12-1.12.95-1.99,1.92-1.75.69.18,1.22.92,1.29,1.84.63.2,1.12.87,1.21,1.7,1.17.24,2.08,1.48,2.18,3.02,1.05.42,1.82,1.66,1.84,3.14,1.23.46,2.1,2.06,1.83,3.84,1.17.87,1.66,2.75,1.03,4.37.87.86.82,2.55-.08,3.34Z"/>
          <path class="cls-50" d="m142.77,55.54c-.15,1.78-1.39,3.11-2.78,2.96-.57.94-1.52,1.5-2.56,1.25-.78.76-1.81.9-2.69.36-.93.63-2.11.5-2.95-.45-.94.13-1.75-.36-2.28-1.14-1.27,0-2.33-1.17-2.56-2.72-1.4-.43-2.32-2.27-1.9-4.16-1.01-1.31-1.01-3.42.01-4.72-.47,1.9.4,3.84,2.15,3.39-.49,1.64.33,3.2,2.05,2.87.27,1.12,1.99,2.01,3.17.97.71,1.05,3.43.85,3.76-.74.98.04,2.1-1.25,1.79-2.43.76.19,1.12-1.39.46-2.66.53.3.85-.23.54-1.56.42.29.59-.43.59-1.28.34,1.35-.51,3.38.89,3.25-.6,1.48.47,2.9,1.51,1.61-.53,1.41.22,2.86,1.28,2.2.28.94,1.23.8,1.26-1.04.38,1.83-.48,3.54-1.74,4.04Z"/>
          <path class="cls-50" d="m135.21,30.24h0c-.86.14-1.43,1.23-1.01,2.26-.64-.24-.9.95-.38,1.71-.51-.08-.8.76-.59,1.51-.84-.19-1.25,1.23-.69,3.1-.81-.37-1.06,1.46-.18,3.45-.9-.55-.82,1.29.2,2.53-.75-.31-.66.82.13,2.07-.63-.26-.89.21-.9,1.18-.73-.9-1.19.11-1.25,1.61-.07-.75-.29-1.44-.87-1.05,1.04-1.48.98-2.64,0-2.35.81-1.34.47-2.5-.15-2,.35-1.46-.24-1.82-.61-1.23-.22-2.06-1.61-2.2-1.96-.35-.23-1.94.83-3.54,2.17-3.81-.12-1.29.34-2.63,1.32-3.33.21-1.18.91-2.12,1.83-2.43.19-.55.56-.97,1.02-1.14.12-1.12.95-1.99,1.92-1.75Z"/>
          <path class="cls-50" d="m136.29,34.16c.6,1.41.54,2.57-.26,3.17.87-.22.88.7.13,1.56.88.27,1.14,1.5.49,2.76.81-.37.74,1.07.81,2.29.07-1.33.34-2.51.78-2.57-.57-.63-.71-1.37-.15-1.79-.66-.81-.58-1.51-.03-1.76-.49-.7-.55-1.35-.18-1.97-.61-.04-1.12-.73-1.59-1.69Z"/>
          <path class="cls-38" d="m144.58,48.15c.23-2.08-.84-3.96-1.35-3.5.1-1.89-.46-2.52-1.07-2.34.08-1.5-.58-2.03-1.09-1.46.19-1.89-.55-2.93-1.07-2.09-.05-1.14-.48-1.41-.84-1.15.1-1.85-.82-3.27-1.61-2.74.02-1.08-.6-1.81-1.11-1.5-.3-2.21-1.95-2.42-2.23-.87-.42-1.03.15-2.12,1.01-2.26h0c.69.18,1.22.92,1.29,1.84.63.2,1.12.87,1.21,1.7,1.17.24,2.08,1.48,2.18,3.02,1.05.42,1.82,1.66,1.84,3.14,1.23.46,2.1,2.06,1.83,3.84,1.17.87,1.66,2.75,1.03,4.37Z"/>
        </g>
      </g>
      <g>
        <g>
          <path class="cls-57" d="m155.05,38.95v.71c-2.04,1.81-2.97,4.73-3.68,7.5,0,0,.07,2.68.13,4.82.66-1.85,1.61-3.35,2.76-4.62l.06.71c-1.45,1.52-2.21,3.62-2.74,6.19.01.34.02.68.03,1.01h0c.06,2,.22,6.27.34,9.16,0,.97.58,2.25,1.66,3.01.09.06.03.2-.08.19-.4-.06-.7-.07-.99-.02-.74.15-.91-.2-1.83.03-.22.06-.45.06-.68.01-.34-.07-.53-.1-.91-.04-.22.04-.45.04-.67,0-.21-.04-.66,0-.9.02-.11.01-.16-.13-.07-.19,1.45-.99,1.84-2.27,1.88-2.77.22-2.61.4-7.97.48-10.55-.32-1.29-.68-2.45-1.14-3.45h0c-.45-.97-1.01-1.79-1.74-2.45v-.58c1.24,1.18,2.26,2.66,2.93,4.61.04-1.39.09-3.73.12-5.34-.56-2.22-1.29-4.43-2.86-5.83v-.58c1.22,1.16,2.23,2.61,2.9,4.52.07-4.75.11-9.58.07-14.39h1.04c-.03,4.8.07,11,.15,14.23.84-2.53,2.14-4.42,3.73-5.91Z"/>
          <g>
            <path class="cls-26" d="m153.54,67.62c-.4-.06-.7-.07-.99-.02-.74.15-.91-.2-1.83.03-.22.06-.45.06-.68.01-.34-.07-.53-.1-.91-.04-.22.04-.45.04-.67,0-.21-.04-.66,0-.9.02-.11.01-.16-.13-.07-.19,1.45-.99,1.84-2.27,1.88-2.77.1-1.14.2-3,.3-5.36.21.42.17.95.24,1.43,0,.05.02.1.06.13.05.04.13.01.18-.03.05-.04.09-.1.14-.13.1.13.12.3.12.46,0,.57-.16,1.15,0,1.7.02.07.06.15.14.15.04,0,.07-.03.11-.04.07-.02.15.03.19.09.04.06.05.14.07.21.03.2.06.4.1.6,0,.06.03.14.09.15.04,0,.08-.02.11-.03.12-.03.23.11.25.23.02.13,0,.26.05.38.04.08.11.06.18,0,.08-.07.17-.13.26-.18,0,.97.58,2.25,1.66,3.01.09.06.03.2-.08.19Z"/>
            <path class="cls-26" d="m151.81,60.75c-.19-.04-.42-.14-.37-.33.02-.08.04-.12-.07-.16-.22-.08-.46-.06-.67-.15-.06-.03-.06-.07,0-.12.26-.23.45-.19.59-.29.1-.08.13-.21.22-.3.07-.07.16-.1.26-.12.02.52.04,1.01.06,1.47Z"/>
            <path class="cls-26" d="m151.08,58.24s-.07.01-.11.01c-.14,0-.29.05-.4.13-.06.05-.12.11-.19.12-.08.01-.17-.04-.25-.04-.08,0-.14.06-.21.09-.07.03-.14.05-.21.05.01-.34.03-.7.04-1.06.14,0,.3-.01.42.05.09.05.16.13.25.17.09.04.2.04.29.06.14.03.38.14.42.27.02.05,0,.12-.05.14Z"/>
            <path class="cls-26" d="m151.68,57.32c-.05-.01-.09-.06-.13-.11-.15-.23-.28-.48-.49-.65-.08-.06-.17-.13-.17-.22,0-.12.15-.18.23-.27.07-.08.09-.19.15-.28.08-.14.21-.24.29-.37.02-.03.04-.08.05-.14.02.71.05,1.39.07,2.05Z"/>
            <path class="cls-26" d="m150.55,54.4c-.06.11-.16.18-.26.26-.07.06-.14.15-.09.23.05.08.22.08.21.18,0,.06-.07.09-.1.13-.08.1,0,.24.02.37.02.25-.33.53-.54.66.02-.68.04-1.39.07-2.11-.32-1.29-.68-2.45-1.14-3.45.64.66.99,1.53,1.33,2.39.1.27.21.54.2.83,0,.03,0,.06,0,.08.04.08.16.07.24.11.11.05.12.21.07.32Z"/>
            <path class="cls-26" d="m150.82,49.86c0,.16-.21.23-.27.38-.03.08,0,.17-.01.25-.01.19-.15.34-.3.46-.1.08-.2.13-.31.05.02-.73.04-1.47.05-2.23.22.1.46.23.48.47,0,.09-.03.18-.05.27-.03.13.14.12.27.18.07.03.13.09.13.17Z"/>
            <path class="cls-26" d="m151.48,51.05c-.19.09-.63.09-.85.06-.13-.02-.14-.09-.05-.17.24-.18.54-.26.78-.44.03-.02.06-.06.1-.09,0,.21.01.43.02.64Z"/>
            <path class="cls-26" d="m151.41,48.69c-.18-.18-.43-.22-.58-.34-.08-.07-.14-.18-.11-.29.04-.13.18-.19.3-.24.12-.06.25-.12.36-.19,0,.36.02.72.03,1.07Z"/>
            <path class="cls-26" d="m151.37,47.16s0,.07,0,.1c-.22.05-.58.03-.65-.18-.05-.15.08-.3.19-.42.18-.2.33-.45.28-.72-.03-.2-.02-.19.08-.27.18-.15.16-.45.31-.63.05-.06.12-.11.17-.17.16-.19.16-.46.24-.69.05-.13.12-.26.22-.36.06-.06.13-.11.21-.12-.41,1.04-.75,2.2-1.07,3.46Z"/>
            <path class="cls-26" d="m150.41,47.83c0,.06-.02.07-.07.1-.11.05-.22.1-.33.12,0-.37.01-.75.02-1.13-.26-1.04-.55-2-.89-2.85.23.15.4.4.45.67.04.17.03.35.13.5.11.16.36.25.38.45.02.12-.05.25,0,.35.04.09.15.13.19.22.06.13-.03.28-.02.42.01.15.13.26.18.4.06.16-.02.58-.04.76Z"/>
            <path class="cls-26" d="m151.3,43.89c-.09.05-.18-.01-.24-.1-.04-.06-.06-.12-.1-.18-.06-.08-.15-.14-.25-.15,0-.16.23-.31.1-.45-.04-.05-.11-.05-.17-.06-.1-.02-.17-.08-.11-.18.15-.28.44-.34.74-.42,0,.51.02,1.03.03,1.54Z"/>
            <path class="cls-26" d="m150.59,40.87c0,.08.07.13.1.2.13.26-.31.41-.59.5,0-.47,0-.95.01-1.42.25.08.3.08.57.18.17.06.17.14.1.24-.03.04-.19.25-.2.3Z"/>
            <path class="cls-26" d="m151.22,39.77s-.24-.13-.25-.13c-.05-.03-.11-.06-.12-.12,0-.06.05-.12.04-.19,0-.05-.11-.21-.14-.26-.07-.13-.08-.22.14-.29.08-.03.2-.07.31-.1,0,.37,0,.73.02,1.1Z"/>
          </g>
        </g>
        <g>
          <path class="cls-43" d="m159.08,34.8l-3.61,2.02c-1.13,1.24-2.14,1.84-2.61.69-.87,1.18-1.27,1.2-1.77.06-.65,1.02-1.14.87-1.71-.14-.87.31-1.39.28-1.92-.18l-4.07-2.5c-.47-2.27.04-5.08,1.2-5.56-.14-2.87.79-4.95,2.48-5.8.19-1.62,1.26-3.01,2.86-2.96.58-2.03,3.57-1.91,4.26,2.04,1.29.17,1.78,1.72,1.76,3.98,1.39.34,1.83,1.62,1.83,3.84,1.37.83,1.5,2.72,1.32,4.52Z"/>
          <path class="cls-67" d="m159.08,34.8l-3.61,2.02c-1.13,1.24-2.14,1.84-2.61.69-.87,1.18-1.27,1.2-1.77.06-.65,1.02-1.14.87-1.71-.14-.87.31-1.39.28-1.92-.18l-4.07-2.5c-.47-2.27.04-5.08,1.2-5.56.09,2.6,1.28,2.5,1.72,1.44.28,2.72,1.46,4.2,2.32,2.16.06,1.92,1.23,2.83,1.64,1.32.18,1.71,1.29,2.32,1.96.68.61,1.54,1.59.36,1.92-2,.48,1.3,1.31,1.28,1.6-.8.21,1.61,1.3,1.13,1.32-1,.17.88.71.83.7-.7,1.37.83,1.5,2.72,1.32,4.52Z"/>
          <path class="cls-63" d="m154.17,22.46c-.42-1.3-1.14-1.92-1.37-.91-.51-1.41-1.33-1.06-1.82,0-.37-.75-1.23-.47-1.62.74-.35-1.03-1.49-.49-2.3,1.09.19-1.62,1.26-3.01,2.86-2.96.58-2.03,3.57-1.91,4.26,2.04Z"/>
        </g>
        <g>
          <path class="cls-36" d="m162.35,45.16c.03,1.34-.72,2.17-1.65,2.21l-7.66-.65c-1.1-3.45-.57-8.68,1.32-9.76.26-2.16,1.27-3.43,3.21-2.96,1.11-.83,2.43-.03,2.91,2.24h0c.09.41.15.88.17,1.39,2.49-.07,2.48,6.9,1.69,7.54Z"/>
          <path class="cls-24" d="m162.35,45.16c.03,1.34-.72,2.17-1.65,2.21l-7.66-.65c-.77-2.41-.74-5.7,0-7.82-.04,2.52.64,3.42,1.68,1.55.16,2.12,1.54,2.31,2.67-.65.19,1.43,1.13,1.58,1.5.65.33,1.19,1.25.78,1.68-1,.26,1.96,1.73-.07.1-1.82,2.49-.07,2.48,6.9,1.69,7.54Z"/>
          <path class="cls-66" d="m160.48,36.23c-.32-.67-.61-1.03-.87-.57-.33-1.03-1.11-1.07-1.36-.16-.43-1.03-1.66-.95-1.91.28-.51-1.09-1.31-.47-1.98,1.17.26-2.16,1.27-3.43,3.21-2.96,1.11-.83,2.43-.03,2.91,2.24Z"/>
        </g>
        <g>
          <path class="cls-36" d="m148.64,45.44c-.1,1.22-.82,1.84-1.45,1.85l-4.74.06c-.54-.28-.68-.8-.73-1.85-.64.53-1.17-.33-1.07-2.91-1.81-.85-.95-6.95.88-7.01.91-2.78,3.59-2.54,4.62.41,1.6-.14,2.25.65,2.76,3.14,1,1.14.55,5.4-.27,6.3Z"/>
          <path class="cls-24" d="m148.64,45.44c-.1,1.22-.82,1.84-1.45,1.85l-4.74.06c-.54-.28-.68-.8-.73-1.85-.64.53-1.17-.33-1.07-2.91-1.08-.5-1.21-2.87-.75-4.71-.04,2.25.87,3.43,1.66,2.15-.05,2.67,1.03,3.88,1.64,1.8.34,2.61,1.49,2.8,2.24.52.34,1.67,1.64,1.57,1.99-.64.28,1.63,1.21,1.23.93-1.4.43.66.8.05.54-1.18,1,1.14.55,5.4-.27,6.3Z"/>
          <path class="cls-66" d="m148.6,37.89c-.56-.94-1.25-1.27-1.44-.54-.46-1.03-1.35-1.24-1.59-.4-.42-2.19-1.71-2.74-2.08-1.68-.37-.75-1.42-.53-1.95.32.91-2.78,3.59-2.54,4.62.41,1.29-.11,1.96.38,2.44,1.89Z"/>
        </g>
        <g>
          <path class="cls-64" d="m148.74,56.13c-.56,1.34-1.69,1.2-2.02-.14-.54,2.33-1.73,1.78-2-.19-.77,3.19-2.58,2.32-2.62-1.23-.56,1.66-1.81.57-1.72-2.56-2,1.62-1.85-6.25,2.28-5.79.76-1.28,1.84-1.42,2.64-.44.6-1.1,1.71-1.06,2.18,0,.68.32,1.11,1.17,1.36,2.26.2.86.3,1.87.32,2.87.06,2.4-.25,4.81-.42,5.21Z"/>
          <path class="cls-66" d="m148.74,56.13c-.56,1.34-1.69,1.2-2.02-.14-.54,2.33-1.73,1.78-2-.19-.77,3.19-2.58,2.32-2.62-1.23-.56,1.66-1.81.57-1.72-2.56-1.17.95-1.61-1.37-.93-3.35h0c.06,1.62,1.15,2.38,1.56,1.38-.21,2.44.8,3.53,1.23,2.3.09,1.96,1.44,2.91,1.91,1.15.19,1.75,1.33,2.07,1.91-.4.39,1.58,1.3,1.64,1.52-1.09.28,1.11,1.35.71,1.58-1.08.06,2.4-.25,4.81-.42,5.21Z"/>
          <path class="cls-25" d="m148.84,48.05s-.03-.02-.03-.02c-.39-1.04-1.01-1.83-1.51-1.46-.58-.8-1.48-.69-1.94.3-.78-1-1.96-.91-2.62.28-.48-.71-1.37-.78-2.26-.18.55-.53,1.27-.84,2.19-.73.76-1.28,1.84-1.42,2.64-.44.6-1.1,1.71-1.06,2.18,0,.68.32,1.11,1.17,1.36,2.26Z"/>
        </g>
        <g>
          <path class="cls-64" d="m161.81,56.07c-.4,2.22-1.36,2.59-1.98,1.77-.35,1.91-1.82,1.8-2.15-.37-.63.73-1.66-.17-1.65-2.35-.32,1.64-1.54,1.45-1.74-.34-.2,1.3-1.3,1.45-1.66.36-.31-.97-1.28-11.01,2.47-11.09.33-1.08,1.56-1.38,2.24-.94.85-1.7,4.13-1.04,4.15,2.48.91.35,1.11,1.5.91,4.28.77.68.8,6.72-.59,6.2Z"/>
          <path class="cls-66" d="m161.81,56.07c-.4,2.22-1.36,2.59-1.98,1.77-.35,1.91-1.82,1.8-2.15-.37-.63.73-1.66-.17-1.65-2.35-.32,1.64-1.54,1.45-1.74-.34-.2,1.3-1.3,1.45-1.66.36-.1-.32-.43-2.86-.31-5.44.1,1.88.89,2.4,1.35.56-.13,3.13,1.05,3.75,1.39,1.29,0,2.25.9,2.68,1.29.66,0,3.26,1.4,4.2,2.16,1.97.16,2.51.97,2.76,1.55.56.24,1.4.96,1.02,1.12-2.15.31,1.63,1.32.8,1.22-2.72.77.68.8,6.72-.59,6.2Z"/>
          <path class="cls-25" d="m161.48,45.59c-.41-1.53-1.59-2.25-1.99-1.29-.46-1.03-1.34-1.17-1.89-.31-.85-.48-1.87-.27-2.19.78-.74-.35-1.75.22-2.52,1.36.42-1.21,1.11-2.06,2.2-2.08.33-1.08,1.56-1.38,2.24-.94.85-1.7,4.13-1.04,4.15,2.48Z"/>
        </g>
      </g>
      <g>
        <g>
          <path class="cls-10" d="m215.11,6.38c3.96,0,7.16,3.21,7.16,7.16s-3.21,7.16-7.16,7.16-7.16-3.21-7.16-7.16,3.21-7.16,7.16-7.16Z"/>
          <rect class="cls-62" x="207.94" y="13.55" width="14.33" height="51.42"/>
          <rect class="cls-42" x="207.94" y="16.74" width="14.33" height=".35"/>
          <rect class="cls-42" x="207.94" y="19.93" width="14.33" height=".35"/>
          <rect class="cls-42" x="207.94" y="23.12" width="14.33" height=".35"/>
          <rect class="cls-42" x="207.94" y="26.32" width="14.33" height=".35"/>
          <rect class="cls-42" x="207.94" y="29.51" width="14.33" height=".35"/>
          <rect class="cls-42" x="207.94" y="32.7" width="14.33" height=".35"/>
          <rect class="cls-42" x="207.94" y="35.89" width="14.33" height=".35"/>
          <rect class="cls-42" x="207.94" y="39.08" width="14.33" height=".35"/>
          <rect class="cls-42" x="207.94" y="42.28" width="14.33" height=".35"/>
          <rect class="cls-42" x="207.94" y="45.47" width="14.33" height=".35"/>
          <rect class="cls-42" x="207.94" y="48.66" width="14.33" height=".35"/>
          <rect class="cls-42" x="207.94" y="51.85" width="14.33" height=".35"/>
          <rect class="cls-42" x="207.94" y="55.04" width="14.33" height=".35"/>
          <rect class="cls-42" x="207.94" y="58.23" width="14.33" height=".35"/>
          <rect class="cls-42" x="207.94" y="61.43" width="14.33" height=".35"/>
          <path class="cls-18" d="m222.27,13.55c0-3.96-3.21-7.16-7.16-7.16-.69,0-1.36.1-1.99.29,2.99.86,5.17,3.61,5.17,6.88h0v51.42h3.99V13.55h0Z"/>
        </g>
        <g>
          <path class="cls-10" d="m227.47,0c3.96,0,7.16,3.21,7.16,7.16s-3.21,7.16-7.16,7.16-7.16-3.21-7.16-7.16,3.21-7.16,7.16-7.16Z"/>
          <rect class="cls-62" x="220.31" y="7.16" width="14.33" height="57.81"/>
          <rect class="cls-42" x="220.31" y="10.36" width="14.33" height=".35"/>
          <rect class="cls-42" x="220.31" y="13.55" width="14.33" height=".35"/>
          <rect class="cls-42" x="220.31" y="16.74" width="14.33" height=".35"/>
          <rect class="cls-42" x="220.31" y="19.93" width="14.33" height=".35"/>
          <rect class="cls-42" x="220.31" y="23.12" width="14.33" height=".35"/>
          <rect class="cls-42" x="220.31" y="26.32" width="14.33" height=".35"/>
          <rect class="cls-42" x="220.31" y="29.51" width="14.33" height=".35"/>
          <rect class="cls-42" x="220.31" y="32.7" width="14.33" height=".35"/>
          <rect class="cls-42" x="220.31" y="35.89" width="14.33" height=".35"/>
          <rect class="cls-42" x="220.31" y="39.08" width="14.33" height=".35"/>
          <rect class="cls-42" x="220.31" y="42.28" width="14.33" height=".35"/>
          <rect class="cls-42" x="220.31" y="45.47" width="14.33" height=".35"/>
          <rect class="cls-42" x="220.31" y="48.66" width="14.33" height=".35"/>
          <rect class="cls-42" x="220.31" y="51.85" width="14.33" height=".35"/>
          <rect class="cls-42" x="220.31" y="55.04" width="14.33" height=".35"/>
          <rect class="cls-42" x="220.31" y="58.23" width="14.33" height=".35"/>
          <rect class="cls-42" x="220.31" y="61.43" width="14.33" height=".35"/>
          <path class="cls-18" d="m234.64,7.16c0-3.96-3.21-7.16-7.16-7.16-.69,0-1.36.1-1.99.29,2.99.86,5.17,3.61,5.17,6.88h0v57.81h3.99V7.16h0Z"/>
        </g>
      </g>
      <g>
        <g>
          <rect class="cls-59" x="199.42" y="44.61" width="23.27" height="19.94"/>
          <rect class="cls-79" x="199.42" y="59.49" width="23.27" height="5.05"/>
          <rect class="cls-58" x="199.42" y="59.09" width="23.27" height=".41"/>
          <rect class="cls-58" x="199.42" y="44.61" width="23.27" height=".41"/>
          <g>
            <rect class="cls-60" x="199.42" y="46.75" width="23.27" height=".24"/>
            <rect class="cls-60" x="199.42" y="45.02" width="23.27" height=".24"/>
            <rect class="cls-60" x="199.42" y="48.48" width="23.27" height=".24"/>
            <rect class="cls-60" x="199.42" y="50.2" width="23.27" height=".24"/>
            <rect class="cls-60" x="199.42" y="51.93" width="23.27" height=".24"/>
            <rect class="cls-60" x="199.42" y="53.66" width="23.27" height=".24"/>
            <rect class="cls-60" x="199.42" y="55.39" width="23.27" height=".24"/>
            <rect class="cls-60" x="199.42" y="57.12" width="23.27" height=".24"/>
            <rect class="cls-60" x="199.42" y="58.85" width="23.27" height=".24"/>
          </g>
          <g>
            <path class="cls-11" d="m204.46,51.03v5.74h4.63v-5.74h-4.63Z"/>
            <g>
              <rect class="cls-82" x="204.42" y="51.33" width="4.15" height="5.14"/>
              <path class="cls-14" d="m204.18,51.03v5.74h4.64v-5.74h-4.64Zm4.15,5.14h-3.66v-4.54h3.66v4.54Z"/>
              <g>
                <path class="cls-14" d="m204.52,51.03l4.3,5.32v.42h-.34l-4.3-5.32v-.42h.34Z"/>
                <polygon class="cls-14" points="204.18 56.35 208.47 51.03 208.81 51.03 208.81 51.45 204.52 56.77 204.18 56.77 204.18 56.35"/>
              </g>
            </g>
          </g>
          <g>
            <path class="cls-11" d="m214.06,51.03v5.74h4.64v-5.74h-4.64Z"/>
            <g>
              <rect class="cls-82" x="214.02" y="51.33" width="4.15" height="5.14"/>
              <path class="cls-14" d="m213.78,51.03v5.74h4.64v-5.74h-4.64Zm4.16,5.14h-3.67v-4.54h3.67v4.54Z"/>
              <g>
                <path class="cls-14" d="m214.12,51.03l4.3,5.32v.42h-.34l-4.3-5.32v-.42h.34Z"/>
                <polygon class="cls-14" points="213.78 56.35 218.08 51.03 218.42 51.03 218.42 51.45 214.12 56.77 213.78 56.77 213.78 56.35"/>
              </g>
            </g>
          </g>
        </g>
        <g>
          <rect class="cls-56" x="158.7" y="44.61" width="40.73" height="19.94"/>
          <rect class="cls-81" x="158.7" y="59.49" width="40.73" height="5.05"/>
          <polygon class="cls-15" points="156.84 44.61 201.28 44.61 192.12 29.76 179.06 21.27 166 29.76 156.84 44.61"/>
          <rect class="cls-78" x="158.7" y="59.09" width="40.73" height=".41"/>
          <rect class="cls-78" x="158.7" y="44.61" width="40.73" height=".41"/>
          <path class="cls-59" d="m166.41,29.6c-3.08,5-6.17,10.01-9.25,15.01h2.84c3.02-4.9,6.04-9.79,9.06-14.69l12.55-8.16c-.37-.24-1.66-.48-2.03-.72l-13.17,8.56Z"/>
          <rect class="cls-58" x="171.12" y="59.09" width="16.42" height=".41"/>
          <rect class="cls-79" x="171.12" y="59.5" width="16.42" height="5.05"/>
          <g>
            <rect class="cls-59" x="158.7" y="46.75" width="40.73" height=".24"/>
            <rect class="cls-59" x="158.7" y="45.02" width="40.73" height=".24"/>
            <rect class="cls-59" x="158.7" y="48.48" width="40.73" height=".24"/>
            <rect class="cls-59" x="158.7" y="50.2" width="40.73" height=".24"/>
            <rect class="cls-59" x="158.7" y="51.93" width="40.73" height=".24"/>
            <rect class="cls-59" x="158.7" y="53.66" width="40.73" height=".24"/>
            <rect class="cls-59" x="158.7" y="55.39" width="40.73" height=".24"/>
            <rect class="cls-59" x="158.7" y="57.12" width="40.73" height=".24"/>
            <rect class="cls-59" x="158.7" y="58.85" width="40.73" height=".24"/>
          </g>
          <g>
            <path class="cls-13" d="m193.81,32.51h-27.13c.05-.08.1-.16.14-.24h26.84l.15.24Z"/>
            <path class="cls-13" d="m192.75,30.78h-25c.05-.08.1-.16.15-.24h24.7l.15.24Z"/>
            <path class="cls-13" d="m194.88,34.24h-29.26c.05-.08.1-.16.15-.24h28.96l.15.24Z"/>
            <path class="cls-13" d="m195.94,35.97h-31.39c.05-.08.1-.16.15-.24h31.09l.15.24Z"/>
            <path class="cls-13" d="m197.01,37.69h-33.53c.05-.08.1-.16.15-.24h33.23l.15.24Z"/>
            <path class="cls-13" d="m198.07,39.42h-35.65c.05-.08.1-.16.14-.24h35.36l.14.24Z"/>
            <path class="cls-13" d="m199.14,41.15h-37.78c.05-.08.1-.16.15-.24h37.49l.15.24Z"/>
            <path class="cls-13" d="m200.2,42.88h-39.91c.05-.08.1-.16.15-.24h39.61l.15.24Z"/>
            <path class="cls-13" d="m201.27,44.61h-42.04c.05-.08.1-.16.15-.24h41.75l.15.24Z"/>
            <polygon class="cls-13" points="183.05 23.87 177.6 23.87 177.97 23.62 182.68 23.62 183.05 23.87"/>
            <polygon class="cls-13" points="185.71 25.59 174.94 25.59 175.3 25.35 185.34 25.35 185.71 25.59"/>
            <polygon class="cls-13" points="188.37 27.32 172.28 27.32 172.65 27.08 188 27.08 188.37 27.32"/>
            <polygon class="cls-13" points="191.02 29.05 169.61 29.05 169.99 28.81 190.66 28.81 191.02 29.05"/>
          </g>
          <rect class="cls-59" x="171.12" y="48.71" width="16.42" height="10.38"/>
          <g>
            <rect class="cls-78" x="170.85" y="48.71" width="16.42" height="15.84"/>
            <rect class="cls-56" x="171.73" y="49.8" width="14.66" height="13.65"/>
            <g>
              <polygon class="cls-16" points="170.85 48.71 171.56 48.71 187.27 63.85 187.27 64.54 186.55 64.54 170.85 49.4 170.85 48.71"/>
              <polygon class="cls-16" points="186.55 48.71 187.27 48.71 187.27 49.4 171.56 64.54 170.85 64.54 170.85 63.85 186.55 48.71"/>
            </g>
          </g>
          <g>
            <rect class="cls-78" x="170.85" y="48.71" width="16.42" height="15.84"/>
            <rect class="cls-56" x="171.73" y="49.8" width="14.66" height="13.65"/>
            <g>
              <polygon class="cls-16" points="170.85 48.71 171.56 48.71 187.27 63.85 187.27 64.54 186.55 64.54 170.85 49.4 170.85 48.71"/>
              <polygon class="cls-16" points="186.55 48.71 187.27 48.71 187.27 49.4 171.56 64.54 170.85 64.54 170.85 63.85 186.55 48.71"/>
            </g>
          </g>
          <g>
            <path class="cls-13" d="m191.31,51.03v5.74h4.63v-5.74h-4.63Z"/>
            <g>
              <rect class="cls-82" x="191.27" y="51.33" width="4.15" height="5.14"/>
              <path class="cls-16" d="m191.03,51.03v5.74h4.64v-5.74h-4.64Zm4.15,5.14h-3.66v-4.54h3.66v4.54Z"/>
              <g>
                <path class="cls-16" d="m191.37,51.03l4.3,5.32v.42h-.34l-4.3-5.32v-.42h.34Z"/>
                <polygon class="cls-16" points="191.03 56.35 195.32 51.03 195.66 51.03 195.66 51.45 191.37 56.77 191.03 56.77 191.03 56.35"/>
              </g>
            </g>
          </g>
          <g>
            <path class="cls-13" d="m162.72,51.03v5.74h4.64v-5.74h-4.64Z"/>
            <g>
              <rect class="cls-82" x="162.69" y="51.33" width="4.15" height="5.14"/>
              <path class="cls-16" d="m162.45,51.03v5.74h4.64v-5.74h-4.64Zm4.15,5.14h-3.66v-4.54h3.66v4.54Z"/>
              <g>
                <path class="cls-16" d="m162.79,51.03l4.3,5.32v.42h-.34l-4.3-5.32v-.42h.34Z"/>
                <polygon class="cls-16" points="162.45 56.35 166.75 51.03 167.09 51.03 167.09 51.45 162.79 56.77 162.45 56.77 162.45 56.35"/>
              </g>
            </g>
          </g>
          <g>
            <path class="cls-13" d="m176.11,29.8v8.01h6.46v-8.01h-6.46Z"/>
            <g>
              <rect class="cls-56" x="176.17" y="30.23" width="5.78" height="7.16"/>
              <path class="cls-16" d="m175.83,29.8v8.01h6.46v-8.01h-6.46Zm5.78,7.16h-5.11v-6.32h5.11v6.32Z"/>
              <g>
                <path class="cls-16" d="m176.31,29.81l5.98,7.41v.59h-.48l-5.98-7.41v-.59h.48Z"/>
                <polygon class="cls-16" points="175.83 37.22 181.81 29.81 182.29 29.81 182.29 30.4 176.31 37.81 175.83 37.81 175.83 37.22"/>
              </g>
            </g>
          </g>
          <rect class="cls-59" x="170.1" y="48.03" width="18.45" height=".69"/>
          <rect class="cls-78" x="169.83" y="48.03" width="18.45" height=".69"/>
        </g>
        <g>
          <rect class="cls-79" x="156.92" y="44.48" width="1.77" height=".33"/>
          <path class="cls-79" d="m165.89,29.6c-3.08,5-6.17,10.01-9.25,15.01h2.06c3.02-4.9,6.04-9.79,9.06-14.69l12.49-8.11c-.37-.24-.81-.53-1.18-.77l-13.17,8.56Z"/>
          <path class="cls-1" d="m224,44.81h-22.61l-9.27-15.05-13.07-8.49v-.23h22.39c4.39,2.84,8.78,5.7,13.17,8.56l9.38,15.21Z"/>
          <path class="cls-2" d="m156.92,44.81h-.42c3.13-5.07,6.25-10.14,9.38-15.21l13.17-8.56c4.39,2.85,8.79,5.7,13.17,8.56,3.14,5.06,6.25,10.14,9.38,15.21h-.42c-2.29-3.72-4.11-6.67-9.18-14.89l-12.95-8.42-12.95,8.42c-3.06,4.96-6.12,9.93-9.18,14.89Z"/>
          <g>
            <path class="cls-80" d="m204.26,44.81h-.28l-9.22-14.97-13.54-8.81h.43l13.29,8.63s9.3,15.1,9.33,15.14Z"/>
            <path class="cls-80" d="m206.75,44.81h-.28l-9.22-14.97-13.54-8.81h.43l13.29,8.63s9.3,15.1,9.33,15.14Z"/>
            <path class="cls-80" d="m209.23,44.81h-.28l-9.22-14.97-13.54-8.81h.44l13.28,8.63s9.3,15.1,9.33,15.14Z"/>
            <path class="cls-80" d="m211.71,44.81h-.28l-9.22-14.97-13.55-8.81h.44l13.28,8.63s9.3,15.1,9.33,15.14Z"/>
            <path class="cls-80" d="m214.2,44.81h-.29l-9.22-14.97-13.55-8.81h.44l13.28,8.63s9.31,15.1,9.33,15.14Z"/>
            <path class="cls-80" d="m216.69,44.81h-.29l-9.22-14.97-13.55-8.81h.44l13.28,8.63s9.31,15.1,9.33,15.14Z"/>
            <path class="cls-80" d="m219.17,44.81h-.28l-9.22-14.97-13.55-8.81h.44l13.28,8.63s9.31,15.1,9.33,15.14Z"/>
            <path class="cls-80" d="m221.66,44.81h-.28l-9.22-14.97-13.55-8.81h.44l13.29,8.63s9.3,15.1,9.33,15.14Z"/>
            <polygon class="cls-80" points="214.77 29.84 192.38 29.84 192.23 29.6 214.62 29.6 214.77 29.84"/>
          </g>
        </g>
      </g>
      <g>
        <path class="cls-46" d="m238.88,30.05c2.97.22,4.99,2.34,5.13,5.4h-3.95l-1.17-5.4Z"/>
        <path class="cls-46" d="m219.63,33.8c.19-2.6,2.32-4.6,4.64-4.34v5.01l-4.64-.67Z"/>
        <g>
          <path class="cls-29" d="m248.93,54.13c-.1,1.3-.74,1.3-.85.36-.1-.87-.8-1.05-.91-.06-.17,1.47-1.27,1.27-1.41,0-4.62-11.02-3.29-7.86-5.51-13.15l.8-7.69c.97.12,1.79.39,2.5.81,1.93,1.16,2.97,3.53,3.64,7.49,1.89,2.14,2.21,6.34,1.74,12.23Z"/>
          <path class="cls-46" d="m248.93,54.13c-.1,1.3-.74,1.3-.85.36-.1-.87-.8-1.05-.91-.06-.17,1.47-1.27,1.27-1.41,0l-3.73-8.9c.66-1.37,1.03-2.93.78-4.5-.18-1.15.42-1.3.61-.29.22,1.2.99,1.04.38-.83-.91-2.81-.41-3.05.45-.2.37,1.22.71,1,.7-.13-.02-2.35-.45-3.51-1.39-5.17,1.93,1.16,2.97,3.53,3.64,7.49,1.89,2.14,2.21,6.34,1.74,12.23Z"/>
        </g>
        <g>
          <path class="cls-29" d="m222.17,33.93l-.57,10.07c-1.53,3.51-.21.48-4.96,11.34-.18.9-.71.93-.93,0-.23-.97-.54-.95-.71,0-.19,1.05-.71.84-.79,0-.56-6.01-1.05-19.34,4.52-21.74,1.04-.45,2.21-.39,3.44.33Z"/>
          <path class="cls-46" d="m220.25,47.08l-3.62,8.26c-.18.9-.71.93-.93,0-.23-.97-.54-.95-.71,0-.19,1.05-.71.84-.79,0-.56-6.01-1.05-19.34,4.52-21.74-1.84,2.91-2.59,5.18-2.48,8.88.04,1.5.5,1.64.64,0,.34-4.02.89-4.08.76,0-.05,1.73.56,1.97.7,0,.13-1.73.52-1.75.56,0,.07,2.72.5,3.98,1.33,4.6Z"/>
        </g>
        <g>
          <path class="cls-44" d="m241.86,41.01c-.5.35-9.27,6.44-9.93,6.9l-12.05-3.35c-.55-5.55.4-10.29,3.09-12.27.25-1.97.78-3.46,2.12-4.43h0c.36-.26.78-.48,1.26-.67,1.01-6.09,9.14-6.84,11.45,1.77,3.14,2.01,4.67,7.43,4.05,12.05Z"/>
          <path class="cls-41" d="m241.74,41.1l-9.8,6.81-12.05-3.35c-.55-5.55.4-10.29,3.09-12.27.25-1.97.78-3.46,2.12-4.43h0c-.75,2.02-1.23,3.38-.94,5.94.14,1.27.73,1.44.94.18.24-1.46.77-1.1.65,1.99-.07,1.81.49,2.26.65,1.07.3-2.29.85-1.85.85.99,0,1.96.73,2.44.85,1.35.2-1.84.73-1.84.76,0,.03,1.78,1.24,1.73,1.3.45.08-1.54,1.48-1.47,1.53,0,.02.78,1.99,2.04,2.2-.54.2-2.53.68-2.44.72.04.02,1.16.81,1.41.9.18.15-2.02.57-1.96.76-.27.12,1.05.5,1.11.58-.02.16-2.09,1.28-1.77,1.32.78.01,1,1.93-.51,3.56,1.11Z"/>
          <path class="cls-73" d="m241.86,41.01c-.19.13-.98.68-1.19.83.02-4.48-.59-7.05-.77-4.98-.15,1.85-.52.68-.45-.18.21-2.38-.46-5.22-.78-2.07-.12,1.22-.69.86-.72-1.17-.04-2.71-.66-2.76-.93,0-.22,2.29-.84.99-.78-4.4.02-1.87-.42-1.96-.45-.64-.03,1.25-.57,3.84-.71.91-.18-3.77-1.95-4.36-2.62-1.03-.22,1.08-.76,1-.81.26-.12-1.76-1.29-2.48-1.44.44-.08,1.58-.48,1.49-.51.33-.06-3-1.08-2.29-1.29.87-.13,2.01-.67,2.09-.72-.18-.06-2.87-.54-2.66-.69,0-.07,1.24-.89.23-.67-2.81,1.01-6.09,9.14-6.84,11.45,1.77,3.14,2.01,4.67,7.43,4.05,12.05Z"/>
        </g>
        <g>
          <path class="cls-28" d="m228.82,54.22c-.16,1.86-.56,3.19-.89,3.22-.68.06-.7-.77-.87-1.22-.04-.1-.17-.26-.23-.26-.64.05-.64,1.62-1.2,1.66-.61.05-.41-1.05-.77-1.02-.44.04-.34,1.04-.8,1.08-.4.03-.42-1.37-.84-1.33-.25.02-.33,1.45-.77,1.49-.7.06-.27-1.56-1.03-1.5-.4.03-.46,1.3-.76,1.33-.38.03-.3-1.36-.83-1.32-.33.03-.34.41-.45.69-.4,1.01-.8.51-.81-.01-.01-.41-.21-1.47-.54-.19-.1.4-.34.95-.63.98-1.3.13-2.2-9.49,1.04-13.53h0c1.11-1.38,2.44-1.85,4.07-1.74,3.76.24,5.45,3.32,6.07,6.61.33,1.76.35,3.58.23,5.06Z"/>
          <path class="cls-30" d="m228.82,54.22c-.16,1.86-.56,3.19-.89,3.22-.68.06-.7-.77-.87-1.22-.04-.1-.17-.26-.23-.26-.64.05-.64,1.62-1.2,1.66-.61.05-.41-1.05-.77-1.02-.44.04-.34,1.04-.8,1.08-.4.03-.42-1.37-.84-1.33-.25.02-.33,1.45-.77,1.49-.7.06-.27-1.56-1.03-1.5-.4.03-.46,1.3-.76,1.33-.38.03-.3-1.36-.83-1.32-.33.03-.34.41-.45.69-.4,1.01-.8.51-.81-.01-.01-.41-.21-1.47-.54-.19-.1.4-.34.95-.63.98-1.3.13-2.2-9.49,1.04-13.53-1.02,2.47-1.41,4.32-1.22,7.63.11,1.88.61,2.07.74,0,.15-2.37.68-2.37.61,0-.09,2.64.76,2.94.84.87.07-1.87.45-2.46.45.24,0,2.34.7,2.57.84.21.14-2.31.92-2.41.96.18.03,2,.8,2.16.89.81.11-1.73.6-1.57.52-.15-.09,1.55.97,1.55,1.05,0,.06-1.31,1.03-1.24,1.14.15.14,1.75,2,1.18,3.56,0Z"/>
          <path class="cls-49" d="m228.59,49.16s-.52-1.21-.64-.48c-.15,1-.85.73-.94-.84-.13-2.22-.68-2.44-.83-.99-.13,1.22-.91.97-.96-.66-.04-1.4-.89-1.41-1.05,0-.15,1.34-1.03,1.28-.99-.24.05-1.95,0-3.04-.67-3.41,3.76.24,5.45,3.32,6.07,6.61Z"/>
        </g>
        <g>
          <path class="cls-71" d="m233.65,64.3c-.68-.07-1.23-.21-1.76.01-.01,0-.02.01-.04.02-.14.06-.31.06-.44,0-.64-.3-1.34-.36-1.87-.08-.15.08-.35.09-.5,0-.09-.05-.18-.08-.28-.1-.47-.09-1.05.09-1.63.19-.14.02-.25-.09-.18-.18.92-1.29.96-2.48,1.26-4.92.15-1.27.26-2.44.34-3.55h3.89c.07,1.15.17,2.38.31,3.72.22,2.1.23,3.27,1.07,4.72.05.09-.04.19-.16.18Z"/>
          <path class="cls-69" d="m229.39,55.68c-.1,3-.3,5.83-.64,8.47-.47-.09-1.05.09-1.63.19-.14.02-.25-.09-.18-.18.92-1.29.96-2.48,1.26-4.92.15-1.27.26-2.44.34-3.55h.85Z"/>
          <path class="cls-70" d="m233.65,64.3c-.68-.07-1.23-.21-1.76.01-.36-2.73-.58-5.62-.69-8.62h1.24c.07,1.15.17,2.38.31,3.72.22,2.1.23,3.27,1.07,4.72.05.09-.04.19-.16.18Z"/>
        </g>
        <g>
          <path class="cls-28" d="m245.26,58.03c-.57.02-.42-1.32-.84-1.31-.61.02-.28,1.36-.8,1.4-.57.05-.58-1.35-.92-1.31-.41.04-.38,1.2-.81,1.24-.38.03-.32-1.51-.71-1.47-.23.02-.47,1.44-.87,1.48-.66.06-.18-1.5-.9-1.44-.38.03-.55,1.36-.83,1.39-.36.03-.31-1.38-.8-1.34-.63.06-.43,1.32-.7,1.35-.27.02-.47-.29-.47-.54,0-.38-.32-1.38-.64-.17-.1.38-.18.75-.45.78-1.14.1-.77-6.02-.67-7.2-4.64-9.7,7.91-17.75,9.78-3.72.83.84,1.26,2.14,1.48,3.3.64,3.36-.08,7.53-.85,7.56Z"/>
          <path class="cls-30" d="m245.26,58.03c-.57.02-.42-1.32-.84-1.31-.61.02-.28,1.36-.8,1.4-.57.05-.58-1.35-.92-1.31-.41.04-.38,1.2-.81,1.24-.38.03-.32-1.51-.71-1.47-.23.02-.47,1.44-.87,1.48-.66.06-.18-1.5-.9-1.44-.38.03-.55,1.36-.83,1.39-.36.03-.31-1.38-.8-1.34-.63.06-.43,1.32-.7,1.35-.27.02-.47-.29-.47-.54,0-.38-.32-1.38-.64-.17-.1.38-.18.75-.45.78-1.14.1-.77-6.02-.67-7.2-2-4.19-.8-8.07,1.36-9.99-.95,2.91-.86,5.07,0,8.71.31,1.32.67,1.3.79-.03.13-1.45.58-1.02.51,1.71-.06,2.29.51,2.66.72,1.11.15-1.11.69-1.38.66.42-.03,1.9.81,2.08.93.51.13-1.78.55-1.69.51.42-.03,1.56.61,1.76.84.18.3-2.05.87-2.03.84,0-.02,1.45.37,2.01.6.39.18-1.26.61-1.27.63,0,.02,1.25.6,1.37.69.24.16-2.07.72-2.17.78-.63.05,1.24.47,1.04.99-.42.52-1.45.43-3.04.43-3.04.64,3.36-.08,7.53-.85,7.56Z"/>
          <path class="cls-49" d="m245.66,48.88c-.05,1.6-.63,2.4-.87,1.86-.09-.21-.17-.61-.22-1.22-.11-1.35-.64-1.41-.72-.32-.07,1.1-.63.72-.6-1.53.03-1.96-.32-2-.51-.39-.14,1.19-.74.63-.69-.96.09-2.58-.41-3.13-.57-1.95-.15,1.16-.56,1.07-.57-.18-.02-2.63-.6-4.17-1.76-4.57,2.35-.08,4.74,2.02,5.47,7.55.44.44.78,1.03,1.04,1.7Z"/>
        </g>
        <g>
          <path class="cls-65" d="m235.7,59.17c-.71.04-.73-.82-.91-1.31-.04-.11-.17-.28-.24-.28-.68.04-.69,1.69-1.28,1.73-.64.04-.42-1.12-.8-1.1-.47.03-.37,1.09-.85,1.12-.43.03-.34-1.36-.78-1.33-.26.02-.46,1.26-.92,1.29-.74.04-.27-1.35-1.08-1.3-.43.02-.65,1.16-.96,1.18-.4.02-.41-1.36-.97-1.32-.34.02-.48.37-.54.67-.21.96-.61.8-.71-.01-.03-.23-.3-1.15-.62-.13-.13.42-.17.78-.48.79-1.29.08-.99-6.82-.88-8.15.31-3.73,1.63-6.31,3.56-7.19.26-1.38.64-2.51,1.08-3.38,1.72-3.37,4.49-2.69,5.89,3.25,1.83,1.91,2.38,6.78,2.48,9.43h0c.12,3.24-.26,6.01-1,6.05Z"/>
          <path class="cls-40" d="m235.7,59.17c-.71.04-.73-.82-.91-1.31-.04-.11-.17-.28-.24-.28-.68.04-.69,1.69-1.28,1.73-.64.04-.42-1.12-.8-1.1-.47.03-.37,1.09-.85,1.12-.43.03-.34-1.36-.78-1.33-.26.02-.46,1.26-.92,1.29-.74.04-.27-1.35-1.08-1.3-.43.02-.65,1.16-.96,1.18-.4.02-.41-1.36-.97-1.32-.34.02-.48.37-.54.67-.21.96-.61.8-.71-.01-.03-.23-.3-1.15-.62-.13-.13.42-.17.78-.48.79-1.29.08-.99-6.82-.88-8.15.31-3.73,1.63-6.31,3.56-7.19-1.03,1.91-1.46,3.47-1.53,5.98.05,2.07.71,1.95.77,0,.04-1.55.45-1.55.45.44,0,2.14.43,6.11.76,2.18.16-1.85.72-1.69.7.33-.03,2.66.5,3.05.63,1.48.11-1.41.67-2.39.7.38.02,2.03.69,2.1.78.38.1-1.75.84-1.83.92.11.08,1.85.44,1.99.83,1.05.41-1,.76-1.08.82,0,.06,1.11.77,1.11.77,0,0-1.81.62-2.56.68-.92.03.85.76,1.35.81,0,.05-1.19.36-1.2.43-.52.04.42.1.69.19.75.29.18.28-1.01.76-2.35.12,3.24-.26,6.01-1,6.05Z"/>
          <path class="cls-44" d="m236.56,51.08c-.1-.43-.51-2.52-.99-2.52-.13,0-.26.16-.29.46-.11.98-.6.49-.5-1.02.13-2.03-.48-2.17-.58-.97-.14,1.64-.61.55-.54-.97.11-2.37-.52-2.59-.61-1.23-.08,1.29-.61.56-.56-1.28.05-1.92-.64-1.99-.74-.31-.1,1.63-1.05,1.23-.81-1.77.16-2.03-1.44-2.74-2.62-1.03,1.72-3.37,4.49-2.69,5.89,3.25,1.3,1.35,2.04,4.37,2.34,7.39Z"/>
        </g>
      </g>
      <g>
        <path class="cls-47" d="m259,54.94c0-3.43-4.48-4.74-6.34-1.88-.62.15-1.17.46-1.61.9-.36-.05-.72-.04-1.13.04-.34-.18-.7-.3-1.09-.36-.6-1.02-1.71-1.71-2.98-1.71-1.91,0-3.45,1.54-3.45,3.45,0,1.73,1.27,3.16,2.93,3.41.74,1.27,2.2,1.95,3.68,1.64,1.32.7,2.96.47,4.04-.6,1.36.17,2.62-.46,3.32-1.54,1.51-.37,2.63-1.73,2.63-3.35Z"/>
        <g>
          <path class="cls-31" d="m254.68,56.72c-.46.87-1.1,1.67-1.92,2.42h0c-1.59,1.45-1.55,1.15-1.61,2.85.28,1.49.68,2.79,1.23,4.11.04.09-.04.2-.14.17-.36-.08-.71-.21-.96-.09,0,0-.02,0-.02.01-.09.05-.19.06-.28.01-.23-.12-.61-.13-.84,0-.1.05-.21.05-.31,0-.3-.15-.65-.15-.94,0-.1.05-.22.06-.32,0-.04-.03-.08-.05-.12-.06-.32-.13-.61.02-1,.09-.1.02-.17-.08-.14-.17.5-1.31.86-2.78,1.1-4.72.08-.68-.31-1.17-.55-1.34-1.14-.79-1.96-1.69-2.49-2.69.39.12.23.07.71.21.48.7,1,1.2,1.76,1.7-.39-.85-.88-1.56-1.63-2.31.38-.21.23-.13.67-.36.67.71,1.25,1.47,1.74,2.47.1-1.54.15-3.32.16-5.45h1.84c0,1.96.03,3.62.13,5.06,0,0,0,0,0,0,.45-1.17.98-2.24,1.6-3.18h.86c-.73,1.03-1.3,2.31-1.65,3.69.97-.63,1.64-1.27,2.24-2.15.43-.13.27-.08.88-.26Z"/>
          <path class="cls-23" d="m248.44,66.14c-.32-.13-.61.02-1,.09-.1.02-.17-.08-.14-.17,2.32-7.5.09-4.93-1.94-8.75l.32.09c1.94,3.79,3.91.37,2.76,8.74Z"/>
          <path class="cls-23" d="m249.33,53.57c-.07,2.04-.32,3.85-.71,5.45.1-1.54.15-3.32.16-5.45h.56Z"/>
          <path class="cls-23" d="m247.84,59.22c-.39-.85-.88-1.56-1.63-2.31l.31-.17c.6.78,1.05,1.61,1.32,2.48Z"/>
          <path class="cls-23" d="m252.71,55.45c-.66.87-1.31,1.97-1.97,3.18.45-1.17.98-2.24,1.6-3.18h.37Z"/>
          <path class="cls-23" d="m254.16,56.88c-.78,1.08-1.61,2.01-2.61,2.26.97-.63,1.64-1.27,2.24-2.15l.36-.11Z"/>
          <path class="cls-74" d="m252.38,66.1c.04.1-.04.2-.14.17-.36-.08-.71-.21-.96-.09-.93-5.49-.34-5.73,1.48-7.04-1.13,1.03-2.33,1.68-.38,6.96Z"/>
        </g>
        <g>
          <path class="cls-37" d="m257.12,42.31c0,1.91-1.54,3.45-3.45,3.45-1.16,0-2.19-.57-2.81-1.45-.4-.56-.63-1.24-.64-1.98-.16-.14-.3-.3-.43-.47-.42,1.42-1.74,2.46-3.3,2.46-1.91,0-3.45-1.54-3.45-3.45,0-1.38.81-2.56,1.97-3.11-.1-.32-.15-.67-.15-1.02,0-1.19.6-2.24,1.52-2.86-.02-.16-.04-.32-.04-.48,0-1.52.98-2.81,2.35-3.27h0c.35-.12.71-.18,1.1-.18.18,0,.36.02.54.04,1.65.26,2.91,1.69,2.91,3.41,0,.08,0,.15-.01.23.83.63,1.36,1.62,1.36,2.74,0,.21-.02.41-.06.6.87.62,1.43,1.64,1.44,2.78,0,0,0,0,0,0,.7.63,1.14,1.54,1.14,2.56Z"/>
          <path class="cls-33" d="m251.93,43.35l-1.07.95c-.4-.56-.63-1.24-.64-1.98-.16-.14-.3-.3-.43-.47-.42,1.42-1.74,2.46-3.3,2.46-1.91,0-3.45-1.54-3.45-3.45,0-1.38.81-2.56,1.97-3.11-.1-.32-.15-.67-.15-1.02,0-1.19.6-2.24,1.52-2.86-.02-.16-.04-.32-.04-.48,0-1.52.98-2.81,2.35-3.27-1.65,1.65-1.53,3.51-.5,3.93-1.25,1.29-1.05,2.99.25,2.7-.84,2.67.2,4.61,1.83,3.85.02,1.41.51,2.38,1.66,2.75Z"/>
          <path class="cls-39" d="m255.98,39.74c-.21-.52-.68-.95-1.32-.74.28-.63.02-1.38-.59-1.55,0-.84-.4-1.42-1.35-1.43.63-.8.29-1.62-.59-1.77.56-1.57-.04-2.99-1.8-4.27,1.65.26,2.91,1.69,2.91,3.41,0,.08,0,.15-.01.23.83.63,1.36,1.62,1.36,2.74,0,.21-.02.41-.06.6.87.62,1.43,1.64,1.44,2.78Z"/>
        </g>
        <g>
          <path class="cls-45" d="m259.43,49.36c0,.94-.37,1.78-.97,2.4-2.36,2.43-6.48.35-5.87-3.02-.35-.33-.62-.73-.81-1.18-1.05,1.08-2.66,1.37-4.02.69-.12.19-.26.37-.42.53.27,2.05-1.34,3.88-3.42,3.88-3.04,0-4.58-3.66-2.49-5.84-.18-1.37.48-2.66,1.6-3.36,0-2.01,1.61-3.48,3.45-3.48.12,0,.24,0,.35.02.42-1,1.29-1.76,2.36-2.02.26-.07.54-.1.82-.1.38,0,.75.06,1.09.18h0c.98.33,1.76,1.09,2.13,2.05,1.53.21,2.73,1.41,2.95,2.93,1.3.49,2.22,1.75,2.22,3.22,0,.21-.02.42-.06.62.66.63,1.06,1.51,1.06,2.49Z"/>
          <path class="cls-77" d="m254.13,52.27c-1.14-.72-1.81-2.09-1.55-3.54-.35-.33-.62-.73-.81-1.18-1.05,1.08-2.66,1.37-4.02.69-.12.19-.26.37-.42.53.27,2.05-1.34,3.88-3.42,3.88-3.04,0-4.58-3.66-2.49-5.84-.18-1.37.48-2.66,1.6-3.36,0-2.01,1.61-3.48,3.45-3.48.12,0,.24,0,.35.02.42-1,1.29-1.76,2.36-2.02-1.76,1.15-1.94,3.32-.89,3.43-1.67,2.19-1.28,4.47.44,3.94,0,1.32.99,2,2.29.86.41,1.12,2.13,1.47,3.36,1-.98,1.48-.97,3.2-.27,5.08Z"/>
          <path class="cls-76" d="m259.43,49.36c0,.94-.37,1.78-.97,2.4.46-2.16-.76-3.48-2.17-3.69.5-.43.65-1.7-.2-2.55.45-.61-.38-1.46-1.35-1.52,1.07-.82.11-2.63-1.85-3.29-.23-1.26-.86-2.1-1.77-2.66.98.33,1.76,1.08,2.13,2.05,1.53.21,2.73,1.41,2.95,2.93,1.3.49,2.22,1.75,2.22,3.22,0,.21-.02.42-.06.62.66.63,1.06,1.51,1.06,2.49Z"/>
        </g>
        <g>
          <path class="cls-20" d="m250.8,55.05c-.28,2.4-2.9,3.78-5.06,2.63-2.67,1.78-6.13-.74-5.23-3.83-.78-1.43-.46-3.25.83-4.31.58-1.81,2.56-2.86,4.44-2.19.47-.24,1.01-.39,1.58-.39,1.91,0,3.45,1.55,3.45,3.45,0,.79-.27,1.52-.72,2.11.58.74.82,1.66.71,2.53Z"/>
          <path class="cls-53" d="m250.8,55.05c-.28,2.4-2.9,3.78-5.06,2.63-2.67,1.78-6.13-.74-5.23-3.83-.78-1.43-.46-3.25.83-4.31-1.32,2.24-.3,4.37.79,4.04-.36,1.99,1.36,3.7,2.47,2.14.69.95,2.19,1.33,2.89.56.84.79,2.51.49,3.3-1.22Z"/>
        </g>
        <g>
          <path class="cls-37" d="m260.41,53.7c0,1.93-1.57,3.5-3.5,3.5-.05,0-.09,0-.14,0-1.2,2.09-4.09,2.37-5.67.56-2.51-.06-4.14-2.67-3.1-4.95-1.06-2.32.63-4.91,3.12-4.95.64-.84,1.64-1.38,2.78-1.38.99,0,1.87.41,2.51,1.06,1.86.08,3.34,1.61,3.34,3.49,0,.2-.02.4-.05.59.43.58.7,1.3.7,2.09Z"/>
          <path class="cls-33" d="m260.41,53.7c0,1.93-1.57,3.5-3.5,3.5-.05,0-.09,0-.14,0-1.2,2.09-4.09,2.37-5.67.56-2.51-.06-4.14-2.67-3.1-4.95-.72-1.57-.19-3.39,1.2-4.34-1.52,1.42-.7,5.14,1.09,4.74-.46,2.04,1.31,3.1,2.42,2.02,1.09,1.26,2.93,1.17,3.79-.62.87,1.4,2.44.6,2.16-1.9.57,1.24,1.26.41,1.04-1.1.43.58.7,1.3.7,2.09Z"/>
        </g>
      </g>
      <g>
        <g>
          <path class="cls-31" d="m273.55,70.07c-.45-.13-.81-.11-1.23.02-.07.02-.16.03-.24.03-.13,0-.27-.04-.37-.09-.35-.2-.57-.18-.94.02-.18.1-.4.12-.6.06-.07-.02-.15-.04-.22-.06-.31-.06-.61-.06-.94.01-.11.02-.19-.12-.11-.2.89-.86,1.27-2.31,1.31-7.43.13,0,.28.01.45.02.31.01.67.02,1.05.02.19,0,.38,0,.58,0,.03,5.03.55,6.57,1.37,7.4.08.09,0,.23-.12.19Z"/>
          <path class="cls-23" d="m269.95,70.04c-.31-.06-.61-.06-.94.01-.11.02-.19-.12-.11-.2.89-.86,1.27-2.31,1.31-7.43.13,0,.28.01.45.02.02,2.99,0,6.15-.71,7.6Z"/>
          <path class="cls-74" d="m273.55,70.07c-.45-.13-.81-.11-1.23.02-.07.02-.16.03-.24.03-.46-2.6-.6-5.15-.37-7.65.19,0,.38,0,.58,0,.03,5.03.55,6.57,1.37,7.4.08.09,0,.23-.12.19Z"/>
        </g>
        <g>
          <path class="cls-22" d="m275.14,41.37c0,.28-.06.54-.17.78-.29.61-.92,1.04-1.64,1.04-.89,0-1.63-.64-1.78-1.49h-.4c-.04.97-.84,1.74-1.81,1.74s-1.82-.81-1.82-1.82c0-.67.36-1.25.89-1.56-.17-.27-.27-.6-.27-.94,0-.75.46-1.4,1.11-1.67-.07-.14-.1-.3-.1-.47,0-.58.44-1.06,1.01-1.12.04-.58.52-1.04,1.12-1.04.16,0,.31.03.45.1.37.16.64.53.67.96.53.09.94.55.94,1.11,0,.11-.02.21-.05.31.64.28,1.08.92,1.08,1.66,0,.3-.07.57-.2.82.58.3.98.91.98,1.61Z"/>
          <path class="cls-48" d="m274.97,42.15c-.29.61-.92,1.04-1.64,1.04-.89,0-1.63-.64-1.78-1.49h-.4c-.04.97-.84,1.74-1.81,1.74s-1.82-.81-1.82-1.82c0-.67.36-1.25.89-1.56-.17-.27-.27-.6-.27-.94,0-.75.46-1.4,1.11-1.67-.07-.14-.1-.3-.1-.47,0-.58.44-1.06,1.01-1.12.04-.58.52-1.04,1.12-1.04-.97.35-1.01,2.75-.19,2.89-.69.84-.46,2.07.37,1.91-.12,1.17.88,1.82,1.85,1.22,0,.92.72,1.47,1.67,1.32Z"/>
          <path class="cls-19" d="m274.36,38.94c0,.3-.07.57-.2.82,0-1.13-.34-1.82-1.04-2.02.02-.83-.37-1.39-.95-1.3.06-.6.01-1.16-.45-1.54.37.16.64.53.67.96.53.09.94.55.94,1.11,0,.11-.02.21-.05.31.64.28,1.08.92,1.08,1.66Z"/>
        </g>
        <g>
          <path class="cls-34" d="m276.65,50.65c0,1-.82,1.81-1.82,1.81-.69,0-1.29-.39-1.59-.96-.9-.06-1.69-.54-2.18-1.23h-1.79c-.03.97-.83,1.76-1.82,1.75-1,0-1.81-.82-1.81-1.82,0-.5.21-.96.54-1.29,0-.03,0-.06,0-.09,0-.4.13-.76.35-1.06-.13-.25-.2-.54-.2-.84,0-.58.28-1.1.71-1.43-.09-.22-.15-.47-.15-.72,0-.88.63-1.6,1.45-1.77.25-.7.93-1.2,1.71-1.2.1,0,.2.01.3.03.16-.19.35-.36.57-.47.25-.14.55-.21.86-.21.78,0,1.43.49,1.69,1.18,1.31.3,2.29,1.47,2.29,2.88,0,.44-.1.86-.28,1.24.57.54.92,1.3.92,2.14,0,.31-.05.62-.15.9.19.23.32.51.38.81.02.11.03.23.03.35Z"/>
          <path class="cls-55" d="m276.65,50.65c0,1-.82,1.81-1.82,1.81-.69,0-1.29-.39-1.59-.96-.9-.06-1.69-.54-2.18-1.23h-1.79c-.03.97-.83,1.76-1.82,1.75-1,0-1.81-.82-1.81-1.82,0-.5.21-.96.54-1.29,0-.03,0-.06,0-.09,0-.4.13-.76.35-1.06-.13-.25-.2-.54-.2-.84,0-.58.28-1.1.71-1.43-.09-.22-.15-.47-.15-.72,0-.88.63-1.6,1.45-1.77.25-.7.93-1.2,1.71-1.2.1,0,.2.01.3.03-1.96.49-1.7,3.56-.53,3.48-.63.55-.64,1.45,0,1.29-.22,1.23.66,1.81,1.39,1.01.27.89.85,1.3,1.46.98.39.65.93.85,1.29.46.57.88,1.68,1.24,2.66,1.25.02.11.03.23.03.35Z"/>
          <path class="cls-27" d="m276.39,48.58c0,.31-.05.62-.15.9.12-1.31-.45-2.71-1.68-2.96.41-1.73.02-2.78-.87-2.41.05-.92-.35-1.42-1.15-1.38.02-.94-.75-1.52-1.63-1.39.25-.14.55-.21.86-.21.78,0,1.43.49,1.69,1.18,1.31.3,2.29,1.47,2.29,2.88,0,.44-.1.86-.28,1.24.57.54.92,1.3.92,2.14Z"/>
        </g>
        <g>
          <path class="cls-51" d="m277.11,56.95c.14.34.22.71.22,1.11,0,.04,0,.07,0,.11-.05,1.27-.89,2.32-2.05,2.69,0,.03,0,.06,0,.09,0,1-.81,1.82-1.82,1.82-.2,0-.39-.03-.56-.09-.33.41-.84.67-1.41.67-.47,0-.89-.18-1.21-.47-.2.08-.42.12-.64.12-.94,0-1.71-.71-1.81-1.63-.05,0-.11,0-.16,0-1,0-1.82-.81-1.82-1.82,0-.18.03-.35.07-.51-.66-.54-1.08-1.36-1.08-2.27,0-.54.15-1.05.41-1.49-.18-.38-.29-.81-.29-1.27,0-1.31.86-2.42,2.05-2.8.04-.93.77-1.68,1.7-1.74.04,0,.08,0,.11,0,.32,0,.61.08.87.22.12-.23.29-.43.49-.58.31-.24.7-.39,1.12-.39.77,0,1.42.47,1.69,1.14.25-.07.52-.11.79-.11,1.62,0,2.94,1.32,2.94,2.94,0,.2-.02.39-.06.57.56.53.9,1.28.9,2.11,0,.57-.17,1.1-.45,1.56Z"/>
          <path class="cls-52" d="m275.28,60.86s0,.06,0,.09c0,1-.81,1.82-1.82,1.82-.2,0-.39-.03-.56-.09-.33.41-.84.67-1.41.67-.47,0-.89-.18-1.21-.47-.2.08-.42.12-.64.12-.94,0-1.71-.71-1.81-1.63-.05,0-.11,0-.16,0-1,0-1.82-.81-1.82-1.82,0-.18.03-.35.07-.51-.66-.54-1.08-1.36-1.08-2.27,0-.54.15-1.05.41-1.49-.18-.38-.29-.81-.29-1.27,0-1.31.86-2.42,2.05-2.8.04-.93.77-1.68,1.7-1.74-1.85.58-1.36,3.47-.22,3.35-1.27,1.57-.69,4.11.22,3.56-.49,2.3,1.47,3.34,2.09,2.32.52,1.37,2.85,1.82,2.9.17,1.06,1.4,3.05.77,3.63-.73-.05,1.27-.89,2.32-2.05,2.69Z"/>
          <path class="cls-54" d="m277.56,55.4c0,.57-.17,1.1-.45,1.56.07-.91-.47-1.65-1.76-1.55.93-.44.41-1.17-.96-1.27,1.39-.12,1.04-.95.14-.93.59-1.57-.44-2.6-1.97-2.49-.07-1.08-.86-1.86-2.39-1.57.31-.24.7-.39,1.12-.39.77,0,1.42.47,1.69,1.14.25-.07.52-.11.79-.11,1.62,0,2.94,1.32,2.94,2.94,0,.2-.02.39-.06.57.56.53.9,1.28.9,2.11Z"/>
        </g>
      </g>
      <g>
        <g>
          <path class="cls-31" d="m263.31,68.27c-.32-.09-.57-.07-.86.03-.11.04-.24.03-.34-.03-.02-.01-.04-.03-.07-.04-.27-.13-.6-.11-.87.05,0,0,0,0,0,0-.1.06-.22.06-.33.02-.27-.09-.52-.1-.81-.04-.08.02-.13-.08-.07-.14.6-.58,1.07-1.57,1.09-5.04,0-.73-.02-1.56-.09-2.56l.55.02.45.02h.36c-.04.92-.07,1.76-.07,2.55.02,3.42.58,4.46,1.14,5.02.06.06,0,.15-.08.13Z"/>
          <path class="cls-23" d="m261.5,60.55c0,2.69-.09,5.28-.34,7.73-.1.06-.22.06-.33.02-.27-.09-.52-.1-.81-.04-.08.02-.13-.08-.07-.14.6-.58,1.07-1.57,1.09-5.04,0-.73-.02-1.56-.09-2.56l.55.02Z"/>
          <path class="cls-74" d="m263.31,68.27c-.32-.09-.57-.07-.86.03-.11.04-.24.03-.34-.03-.02-.01-.04-.03-.07-.04-.18-2.5-.2-5.06-.08-7.66h.36c-.04.92-.07,1.76-.07,2.55.02,3.42.58,4.46,1.14,5.02.06.06,0,.15-.08.13Z"/>
        </g>
        <g>
          <path class="cls-75" d="m267.39,51.55c.15.6.24,1.26.24,1.94,0,1.61-.47,3.04-1.19,3.96-.05,1.64-.89,2.95-1.92,2.95-.04,0-.09,0-.13-.01-.57,1.03-1.4,1.69-2.32,1.69-.83,0-1.58-.53-2.14-1.39-.21.13-.44.2-.68.2-1.06,0-1.92-1.39-1.92-3.11,0-.14,0-.28.02-.42-1.85-1.53-2.27-5.5-.84-7.94-.25-.35-.4-.87-.4-1.44,0-.98.45-1.78,1.03-1.9-.11-.39-.17-.83-.17-1.28,0-.32.03-.64.09-.93.19-.98.67-1.75,1.28-2.05-.09-.37-.15-.77-.15-1.19,0-1.52.67-2.78,1.56-3.05-.06-.23-.09-.48-.09-.75,0-1.06.53-1.92,1.19-1.92.03,0,.06,0,.09,0-.03-.17-.05-.35-.05-.54,0-.83.32-1.53.78-1.8h0c.13-.08.26-.12.41-.12.65,0,1.19.86,1.19,1.92,0,.05,0,.11,0,.17.84.33,1.47,1.55,1.47,3.02,0,.24-.02.47-.05.69.81.37,1.4,1.56,1.4,2.99,0,.33-.03.64-.09.94-.05.24-.11.47-.19.68.74.43,1.26,1.57,1.26,2.92,0,.57-.1,1.1-.26,1.56.53.55.88,1.51.88,2.6,0,.59-.1,1.14-.28,1.61Z"/>
          <path class="cls-21" d="m267.39,51.55c.15.6.24,1.26.24,1.94,0,1.61-.47,3.04-1.19,3.96-.05,1.64-.89,2.95-1.92,2.95-.04,0-.09,0-.13-.01-.57,1.03-1.4,1.69-2.32,1.69-.83,0-1.58-.53-2.14-1.39-.21.13-.44.2-.68.2-1.06,0-1.92-1.39-1.92-3.11,0-.14,0-.28.02-.42-1.85-1.53-2.27-5.5-.84-7.94-.62,2.81.45,4.54,1.34,3.82-.06,1.98,1.04,3.34,2.07,2.66.48,1.24,1.84,1.71,2.87.23,1.03,1.34,2.33.16,2.51-2.47.53,1.2,1.71,0,1.03-2.39.67-.24,1.21-2.45-.19-4,.73-.94.8-3.22-.34-4.41.74.43,1.26,1.57,1.26,2.92,0,.57-.1,1.1-.26,1.56.53.55.88,1.51.88,2.6,0,.59-.1,1.14-.28,1.61Z"/>
          <path class="cls-21" d="m262.44,48.17c-.49-.14-1.09,1.09-1.09,2.69-.06-1.37-.3-2.42-1.44-1.87.64-1.92.46-3.25-.63-2.66.34-1.77.02-2.79-.91-2.33-.18-1.28-.73-1.41-1.3-.12.19-.98.67-1.75,1.28-2.05-.09-.37-.15-.77-.15-1.19,0-1.52.67-2.78,1.56-3.05-.06-.23-.09-.48-.09-.75,0-1.06.53-1.92,1.19-1.92.03,0,.06,0,.09,0-.03-.17-.05-.35-.05-.54,0-.83.32-1.53.78-1.8h0c-.66,1.12-.52,3.2.42,3.78-1.16.48-.91,2.88.13,4.03-.61-.27-1.01.72-.28,1.98-.64.61-.37,1.64.18,2.55-.51,1.12-.36,2.18.33,3.24Z"/>
          <path class="cls-72" d="m266.08,41.25c0,.33-.03.64-.09.94,0-1.13-.5-1.88-.95-.81.18-1.74-.9-1.88-1.36-1.12.47-1.31.39-2.36-.13-2.36.31-1.2.18-2.6-.81-2.37.27-1.22.14-2.68-.66-3.06.65,0,1.19.86,1.19,1.92,0,.05,0,.11,0,.17.84.33,1.47,1.55,1.47,3.02,0,.24-.02.47-.05.69.81.37,1.4,1.56,1.4,2.99Z"/>
          <path class="cls-21" d="m263.4,43.96c.4.42.41,1.12.09,2.05.72-.38.74.61.36,2.39.4-.2.56.36.22,2.45.31.05.57.8.42,2.03.16-1.11.09-2.26.37-2.07-.13-1.14-.08-1.86.25-1.92-.59,0-.64-.67-.09-2.09-.59-.02-.66-.82-.11-2.51-.47.2-.97.09-1.5-.34Z"/>
        </g>
      </g>
      <g>
        <path class="cls-3" d="m394.81,117.93v58.7H1.36v-58.7c47.22-26.04,81.48-35.93,84.27-37.04,36.53-11.97,73.37-17.78,100.75-18.73h0c.71-.03,5.02-.19,5.78-.2,9-.26,17.41-.12,26.12.29.58.02,1.42.07,2.02.11.6.03,1.21.07,1.82.11.05,0,.1,0,.15,0,.14,0,.28,0,.43.03.67.03,1.34.08,2.01.13.8.05,1.61.11,2.4.17.17,0,.34.02.51.04.43.03.85.06,1.28.1.03,0,.06,0,.09,0,.56.04,1.11.09,1.67.14.37.03.73.07,1.09.1.56.05,1.11.1,1.67.15.41.03.81.07,1.22.12,1.17.11,2.34.23,3.51.36,1.02.11,2.03.22,3.05.34.83.1,1.67.19,2.5.3.03,0,3.95.5,3.97.52.32.04.06,0,.91.12.59.09,1.17.16,1.76.25.27.04.54.08.81.12.34.05.69.11,1.03.15h.02c2.42.37,4.84.75,7.26,1.17.39.06.78.13,1.17.19.21.04.43.08.64.12.23.04.46.08.7.13.17.03.36.06.54.1.12.02.23.04.35.06.9.16,1.79.33,2.69.5.13.02.25.05.38.07,1.24.23,2.48.47,3.71.73.23.05.46.1.7.15.53.11,1.05.21,1.59.33.46.1.92.19,1.38.29.46.1.92.19,1.38.3.85.17,1.69.37,2.54.55,41.77,9.45,80.18,25.63,117.58,47.66Z"/>
        <path class="cls-9" d="m394.81,129.16c-26.48,1.06-48.65,11.4-67.55,24.64,11.49-5.03,29.14-9.18,41.5-11.12-28.2,9.07-45.76,21.3-59.12,33.96H1.36v-58.7c47.22-26.04,81.48-35.93,84.27-37.04,36.53-11.97,73.37-17.78,100.75-18.73h0c.71-.03,5.02-.19,5.78-.2,9-.26,17.41-.12,26.12.29.58.02,1.42.07,2.02.11.6.03,1.21.07,1.82.11.05,0,.1,0,.15,0,.14,0,.28,0,.43.03.67.03,1.34.08,2.01.13.8.05,1.61.11,2.4.17.17,0,.34.02.51.04.43.03.85.06,1.28.1.03,0,.06,0,.09,0,.56.04,1.11.09,1.67.14.37.03.73.07,1.09.1.56.05,1.11.1,1.67.15.41.03.81.07,1.22.12,1.17.11,2.34.23,3.51.36,1.02.11,2.03.22,3.05.34.83.1,1.67.19,2.5.3.03,0,3.95.5,3.97.52.32.04.06,0,.91.12.59.09,1.17.16,1.76.25.27.04.54.08.81.12.34.05.69.11,1.03.15h.02c2.42.37,4.84.75,7.26,1.17.39.06.78.13,1.17.19.21.04.43.08.64.12.23.04.46.08.7.13.17.03.36.06.54.1.12.02.23.04.35.06.9.16,1.79.33,2.69.5.13.02.25.05.38.07,1.24.23,2.48.47,3.71.73.23.05.46.1.7.15.53.11,1.05.21,1.59.33.46.1.92.19,1.38.29.46.1.92.19,1.38.3.85.17,1.69.37,2.54.55,41.43,9.38,79.88,25.45,117.58,47.66v11.23Z"/>
        <path class="cls-3" d="m394.81,117.93c-71.72-8-95.01,34.01-139.63,46.19,19.2-.93,33.02-11.87,55.01-14.21-13.46,3.05-26.58,15.74-39.09,26.73H1.36v-58.7c47.22-26.04,81.48-35.93,84.27-37.04,36.53-11.97,73.37-17.78,100.75-18.73h0c.71-.03,5.02-.19,5.78-.2,9-.26,17.41-.12,26.12.29.58.02,1.42.07,2.02.11.6.03,1.21.07,1.82.11.05,0,.1,0,.15,0,.14,0,.28,0,.43.03.67.03,1.34.08,2.01.13.8.05,1.61.11,2.4.17.17,0,.34.02.51.04.43.03.85.06,1.28.1.03,0,.06,0,.09,0,.56.04,1.11.09,1.67.14.37.03.73.07,1.09.1.56.05,1.11.1,1.67.15.41.03.81.07,1.22.12,1.17.11,2.34.23,3.51.36,1.02.11,2.03.22,3.05.34.83.1,1.67.19,2.5.3.03,0,3.95.5,3.97.52.32.04.06,0,.91.12.59.09,1.17.16,1.76.25.27.04.54.08.81.12.34.05.69.11,1.03.15h.02c2.42.37,4.84.75,7.26,1.17.39.06.78.13,1.17.19.21.04.43.08.64.12.23.04.46.08.7.13.17.03.36.06.54.1.12.02.23.04.35.06.9.16,1.79.33,2.69.5.13.02.25.05.38.07,1.24.23,2.48.47,3.71.73.23.05.46.1.7.15.53.11,1.05.21,1.59.33.46.1.92.19,1.38.29.46.1.92.19,1.38.3.85.17,1.69.37,2.54.55,41.43,9.38,79.88,25.45,117.58,47.66Z"/>
        <path class="cls-4" d="m385.48,112.57l-36.89-7.96-.66-.14s-8.01-1.73-20.95-2.71c-9.4-.71-21.4-1.02-34.84,0-31.01,2.36-69.66,11.87-101.5,40.2,19.07-8.67,43.58-13.95,59.47-12.79-25.3,6.58-48.54,20.67-66.82,34.58,12.13-6.68,21.6-8.36,33.94-9.86-16.81,5.18-24.71,14.26-34.25,22.75H1.36v-58.7c47.22-26.04,81.48-35.93,84.27-37.04,36.53-11.97,73.37-17.78,100.75-18.73h0c.71-.03,5.02-.19,5.78-.2,9-.26,17.41-.12,26.12.29.58.02,1.42.07,2.02.11.6.03,1.21.07,1.82.11.05,0,.1,0,.15,0,.14,0,.28,0,.43.03.67.03,1.34.08,2.01.13.8.05,1.61.11,2.4.17.17,0,.34.02.51.04.43.03.85.06,1.28.1.03,0,.06,0,.09,0,.56.04,1.11.09,1.67.14.37.03.73.07,1.09.1.56.05,1.11.1,1.67.15.41.03.81.07,1.22.12,1.17.11,2.34.23,3.51.36,1.02.11,2.03.22,3.05.34.83.1,1.67.19,2.5.3.03,0,3.95.5,3.97.52.32.04.06,0,.91.12.59.09,1.17.16,1.76.25.27.04.54.08.81.12.34.05.69.11,1.03.15h.02c2.42.37,4.84.75,7.26,1.17.39.06.78.13,1.17.19.21.04.43.08.64.12.23.04.46.08.7.13.17.03.36.06.54.1.12.02.23.04.35.06.9.16,1.79.33,2.69.5.13.02.25.05.38.07,1.24.23,2.48.47,3.71.73.23.05.46.1.7.15.53.11,1.05.21,1.59.33.46.1.92.19,1.38.29.46.1.92.19,1.38.3.85.17,1.69.37,2.54.55,37.92,8.58,74.07,23.04,108.25,42.3Z"/>
        <path class="cls-3" d="m214.21,105.32c-53.23,7.95-91.45,49.19-114.12,71.31h-36.51l95.12-62.57,33.11-7.02,22.4-1.72Z"/>
        <path class="cls-9" d="m365.22,101.87c-18.51-5.59-36.41-9.6-54.05-12.29-62.41-9.52-116.85-1.63-159.36,12.18-31.4,10.21-56.28,23.65-73.04,35.7,49.09-24.03,93.94-32.67,135.45-32.14-74.55,8.18-104.23,48.45-133.08,71.31H1.36v-58.7c47.22-26.04,81.48-35.93,84.27-37.04,36.53-11.97,73.37-17.78,100.75-18.73h0c.71-.03,5.02-.19,5.78-.2,9-.26,17.41-.12,26.12.29.58.02,1.42.07,2.02.11.6.03,1.21.07,1.82.11.05,0,.1,0,.15,0,.14,0,.28,0,.43.03.67.03,1.34.08,2.01.13.8.05,1.61.11,2.4.17.17,0,.34.02.51.04.43.03.85.06,1.28.1.03,0,.06,0,.09,0,.56.04,1.11.09,1.67.14.37.03.73.07,1.09.1.56.05,1.11.1,1.67.15.41.03.81.07,1.22.12,1.17.11,2.34.23,3.51.36,1.02.11,2.03.22,3.05.34.83.1,1.67.19,2.5.3.03,0,3.95.5,3.97.52.32.04.06,0,.91.12.59.09,1.17.16,1.76.25.27.04.54.08.81.12.34.05.69.11,1.03.15h.02c2.42.37,4.84.75,7.26,1.17.39.06.78.13,1.17.19.21.04.43.08.64.12.23.04.46.08.7.13.17.03.36.06.54.1.12.02.23.04.35.06.9.16,1.79.33,2.69.5.13.02.25.05.38.07,1.24.23,2.48.47,3.71.73.23.05.46.1.7.15.53.11,1.05.21,1.59.33.46.1.92.19,1.38.29.46.1.92.19,1.38.3.85.17,1.69.37,2.54.55,31.14,7.05,60.95,18.08,87.99,31.6Z"/>
        <path class="cls-6" d="m39.66,98.74c123.69-50.99,246.37-35.45,355.15,30.41v-11.22C279.8,50.05,161.42,43.91,39.66,98.74Z"/>
        <path class="cls-6" d="m57.43,109.91c21.96-11.33,66.75-25.02,102.61-26.96-35.25,4.71-79.11,17.05-102.61,26.96Z"/>
        <path class="cls-6" d="m27.69,115.54c32.15-19.33,99.6-39.77,154.59-40.62-54.21,4.87-120.23,24-154.59,40.62Z"/>
        <path class="cls-9" d="m394.81,139.48v5.95c-18.6,3.2-35.73,10.35-53.15,19.57,14.83-11.3,32.7-19.71,53.15-25.52Z"/>
        <path class="cls-9" d="m394.81,148.22v3.12c-15.23,1.7-31.12,6.73-44.76,12.69,12.27-7.68,28.92-13.02,44.76-15.81Z"/>
      </g>
    </g>
    <line class="cls-68" y1="98.8" x2="3.03" y2="123.27"/>
  </g>
</svg>