<?xml version="1.0" encoding="UTF-8"?>
<svg id="Layer_2" data-name="Layer 2" xmlns="http://www.w3.org/2000/svg" viewBox="0 0 481.71 163.52">
  <defs>
    <style>
      .cls-1 {
        fill: #004a0c;
        opacity: .8;
      }

      .cls-1, .cls-2, .cls-3, .cls-4 {
        fill-rule: evenodd;
      }

      .cls-1, .cls-2, .cls-3, .cls-4, .cls-5, .cls-6, .cls-7, .cls-8, .cls-9, .cls-10, .cls-11, .cls-12, .cls-13, .cls-14, .cls-15, .cls-16, .cls-17, .cls-18, .cls-19, .cls-20, .cls-21, .cls-22, .cls-23, .cls-24, .cls-25, .cls-26, .cls-27, .cls-28, .cls-29, .cls-30, .cls-31, .cls-32, .cls-33, .cls-34, .cls-35, .cls-36, .cls-37, .cls-38, .cls-39, .cls-40, .cls-41, .cls-42, .cls-43, .cls-44, .cls-45, .cls-46, .cls-47, .cls-48, .cls-49, .cls-50 {
        stroke-width: 0px;
      }

      .cls-2 {
        fill: #1b6e1b;
      }

      .cls-3 {
        fill: #1f7d1f;
      }

      .cls-4, .cls-43 {
        fill: #208020;
      }

      .cls-5 {
        fill: #4b7317;
      }

      .cls-6 {
        fill: #497016;
      }

      .cls-7 {
        fill: #488000;
      }

      .cls-8 {
        fill: #76b11e;
      }

      .cls-9 {
        fill: #608f20;
      }

      .cls-10 {
        fill: #5d8e15;
      }

      .cls-11 {
        fill: #5e2b00;
      }

      .cls-12 {
        fill: #784818;
      }

      .cls-13 {
        fill: #733400;
      }

      .cls-14 {
        fill: #4f8900;
      }

      .cls-15 {
        fill: #517a1c;
      }

      .cls-16 {
        fill: #4e7818;
      }

      .cls-17 {
        fill: #4e751b;
      }

      .cls-18 {
        fill: #5b8c1b;
      }

      .cls-19 {
        fill: #344f0d;
      }

      .cls-20 {
        fill: #486e16;
      }

      .cls-21 {
        fill: #4a730d;
      }

      .cls-22 {
        fill: #568214;
      }

      .cls-23 {
        fill: #56821d;
      }

      .cls-24 {
        fill: #58851e;
      }

      .cls-25 {
        fill: #5a9f00;
      }

      .cls-26 {
        fill: #639421;
      }

      .cls-27 {
        fill: #87c32c;
      }

      .cls-28 {
        fill: #538010;
      }

      .cls-29 {
        fill: #466b15;
      }

      .cls-30 {
        fill: #539300;
      }

      .cls-31 {
        fill: #70a629;
      }

      .cls-32 {
        fill: #6da31c;
      }

      .cls-33 {
        fill: #3a590f;
      }

      .cls-34 {
        fill: #572b00;
      }

      .cls-35 {
        fill: #3b6700;
      }

      .cls-36 {
        fill: #56851a;
      }

      .cls-37 {
        fill: #5b8e11;
      }

      .cls-38 {
        fill: #3e5f09;
      }

      .cls-39 {
        fill: #446614;
      }

      .cls-40 {
        fill: #436614;
      }

      .cls-41 {
        fill: #427500;
      }

      .cls-42 {
        fill: #417300;
      }

      .cls-44 {
        fill: #325500;
      }

      .cls-45 {
        fill: #994a37;
      }

      .cls-46 {
        fill: #874c1b;
      }

      .cls-47 {
        fill: #64b100;
      }

      .cls-48 {
        fill: #80b837;
      }

      .cls-49 {
        fill: #679926;
      }

      .cls-50 {
        fill: #669916;
      }
    </style>
  </defs>
  <g id="Layer_1-2" data-name="Layer 1">
    <g>
      <g>
        <g>
          <path class="cls-2" d="m115.24,82.77c-1.23-.85-2.21-2.67-3.29-3.58-1.29-1.1-3.26-1.31-4.4-1.5-1.2-.21-1.61-3.34-5.96-3.1-2.08.11-1.58-4.81-10.05-3.02-1.85.4-4.57-5.23-13.12-3.42-2.99.64-3.28-3.18-10.63-1.95-4.68.78-1.81-2.25-9.88-.78-4.27.78-5.72-3.04-11.16-.42-3.84,1.84-7.96-.21-11.61.88-3.6,1.07-1.39-2.14-9.7.32-2.43.74-3.55-2.03-7.93.7-.78.5-1.73.5-2.77.38v37.42l106.33-17.86c-.74-1.57-3.4-2.4-5.83-4.08Z"/>
          <path class="cls-43" d="m112.7,81.3c-7.96-4.01-21.56-5.99-19.77-.45-7.18-4.64-14.66-4.38-13.16-.29-9.08-4.76-18.99-6.59-16.07-.32-8.02-4.94-16.51-4.91-14.56-.3-9.13-5.48-16.93-4.19-14.18.7-9.48-5.69-18.02-4.03-15.79.58-1.45-.78-2.96-1.33-4.43-1.66v-11.45c3.63.32,3.07-1.12,5.71-1.55,1.84-.3,2.89.86,4.76.54,1.29-.21,4.72-1.71,7-.61,2.49,1.23,1.97-.46,7.93.02,6.75.53,6.27-1.04,9.24-1.53,3.18-.53,4.84,1.9,8.57,1.28,8.04-1.41,4.83,1.63,9.97.77,4.12-.7,5.82.29,7.18,1.1,4.54,2.67,6.39-2.14,13.76,3.1,1.04.75,1.85,1.33,2.78,1.18,3.44-.59,5.56-.9,7.72,1.68,2.48,2.93,3.52-.34,6.46,3.23,2.24,2.7,3.68-.11,6.87,3.98Z"/>
        </g>
        <g>
          <path class="cls-2" d="m439.94,115.11v-28.73c-3.46-4.06-3.97,1.32-6.59-.69-2.63-2.01-3.58-.13-4.54-.24-.32-.04-.73-.18-1.33-.77-1.14-1.14-2.1.93-3.91.05-2.15-1.04-2.85,1.39-5.13,1.25-.65-.04-1.36-.13-2.12-.9-.71-.71-1.87-1.4-3.38.22-1.3,1.4-1.12-2.26-4.68-.04-.64.4-.96-.39-1.99-.52-.44-.06-1.12.25-1.81.41-2.72.65-2.15-1.73-4.15-.35-1.24.85-.76.55-2.26.25-.69-.14-1.52-.15-2.39.51-1.95,1.5-2.69-2.54-5.19-.45-1.71,1.43-3.25-1.47-4.66.45-.5.68-2.03-1.22-4.25.8-.69.63-1.81-.5-3.27-.51-.56,0-1.2.38-1.85.77-.79.47-1.51-.7-3.48-.51-.65.06-1.49.16-2.42.75-2.22,1.39-3.14-3.12-7.19-.34-2.28,1.56-2.7-1.44-5.61.72-2.31,1.72-4.44-2.08-6.33-.5-1.01.84-3.44,1.89-4.8.82-2.57-2.02-4.55,2.42-7.21.6-2.54-1.74-1.89,1.9-5.12.46-1.41-.63-1.35,1.27-3.52.44-1.23-.47-1.36,1.4-4.41.22-1.41-.54-1.67,3.03-5.61.55-1.38-.87-2.24,3.08-5.04.75-.6-.5-2.41,1.18-4.16.38-1.82-.83-1.6,1.92-4.96.75-2.54-.88-3.29,2.34-6.73,1.84-1.52-.22-3.03,1.16-3.75.89-.7-.26-2.74-.4-3.24.29-1.64,2.26-3.53.54-4.34,1.72-1.35,1.97-2.83.64-4.31,2.47-1.33,1.64-5.88-.8-6.87,1.99-.43,1.22-2.32-.25-3.06,1.26-.82,1.68-3.51-.25-4.29,2.03-.44,1.28-1.21.51-2.22.89-.33.12-.72,1.22-1.09,1.71-.41.53-2.2-.43-2.86,1.46-.1.28,0,.64-.37,1.17-.73,1.04-1.32.84-2.2,1.51-1.35,1.03-.66,2.46-2.49,4.17h181.17Z"/>
          <path class="cls-4" d="m439.23,97.56v-10.91c-.67-.74-1.23-1.12-1.68-1.12-.37,0-.73.26-1.15.55-.52.37-1.11.79-1.89.79-.54,0-1.06-.2-1.6-.61-.69-.53-1.28-.79-1.8-.79-.41,0-.75.17-1.1.34-.35.17-.7.35-1.13.35-.05,0-.11,0-.16,0-.61-.07-1.14-.37-1.75-.97-.14-.14-.22-.14-.26-.14-.15,0-.39.11-.65.22-.42.18-.94.41-1.58.41-.41,0-.83-.1-1.23-.29-.26-.13-.5-.19-.71-.19-.44,0-.83.26-1.33.58-.65.42-1.45.94-2.59.94-.07,0-.15,0-.23,0-.77-.05-1.66-.17-2.58-1.1-.38-.38-.72-.56-1.05-.56-.39,0-.83.26-1.31.77-.35.37-.7.55-1.08.55-.51,0-.85-.33-1.13-.59-.34-.32-.56-.51-.97-.51-.42,0-.97.21-1.64.63-.23.15-.48.22-.73.22-.39,0-.7-.18-.97-.33-.23-.14-.46-.27-.76-.31h0c-.2,0-.52.1-.83.2-.23.07-.47.14-.72.2-.38.09-.72.13-1.04.13-.97,0-1.52-.42-1.88-.69-.17-.13-.28-.21-.35-.21-.05,0-.23.02-.65.31l-.07.05c-.63.44-.92.63-1.35.63-.22,0-.4-.06-.61-.12-.18-.06-.41-.13-.77-.2-.21-.04-.39-.06-.57-.06-.45,0-.85.14-1.25.45-.42.32-.86.49-1.3.49-.73,0-1.29-.43-1.79-.81-.4-.3-.77-.59-1.13-.59-.27,0-.58.15-.93.45-.46.38-.97.58-1.52.58s-1.09-.2-1.54-.39c-.34-.13-.65-.26-.89-.26-.1,0-.3,0-.58.39-.21.29-.53.45-.91.45-.26,0-.51-.07-.77-.14-.3-.08-.61-.17-.96-.17-.57,0-1.13.25-1.7.78-.27.25-.61.38-.99.38-.43,0-.85-.16-1.3-.33-.47-.18-.95-.37-1.46-.37-.36,0-.94.34-1.44.65-.28.16-.53.24-.81.24-.38,0-.72-.13-1.07-.28-.42-.17-.9-.36-1.57-.36-.12,0-.24,0-.36.02-.68.07-1.35.16-2.11.64-.4.25-.82.38-1.24.38-.75,0-1.37-.4-1.96-.78-.6-.39-1.17-.76-1.89-.76-.61,0-1.29.26-2.07.8-.59.4-1.14.6-1.71.6-.53,0-.97-.17-1.35-.32-.34-.13-.63-.25-.96-.25-.44,0-.96.22-1.57.68-.53.4-1.12.6-1.74.6-.9,0-1.72-.42-2.44-.79-.57-.29-1.11-.57-1.54-.57-.21,0-.39.07-.58.23-.83.69-2.37,1.44-3.79,1.44-.75,0-1.39-.2-1.9-.6-.34-.26-.65-.39-.99-.39-.57,0-1.18.34-1.84.7-.76.42-1.62.89-2.58.89-.61,0-1.21-.19-1.76-.58-.46-.31-.7-.36-.8-.36-.15,0-.29.11-.59.38-.42.38-.99.91-1.97.91-.49,0-1.03-.13-1.65-.41-.1-.05-.19-.07-.25-.07-.09,0-.2.07-.42.22-.34.24-.82.57-1.57.57-.38,0-.79-.08-1.25-.26-.05-.02-.1-.03-.14-.03-.1,0-.25.08-.44.19-.39.21-.93.51-1.79.51-.6,0-1.27-.15-2.04-.44,0,0,0,0,0,0-.12,0-.39.25-.54.38-.51.46-1.21,1.1-2.37,1.1-.83,0-1.75-.33-2.81-1,0,0,0,0,0,0-.16,0-.5.3-.7.48-.53.48-1.26,1.13-2.28,1.13-.67,0-1.33-.27-2.03-.83-.15.03-.44.13-.67.21-.58.21-1.29.47-2.09.47-.47,0-.92-.1-1.33-.28-.14-.06-.25-.09-.34-.09-.16,0-.32.12-.61.34-.47.36-1.11.86-2.22.86-.52,0-1.09-.11-1.73-.33-.22-.08-.43-.11-.62-.11-.58,0-1.08.34-1.72.77-.84.57-1.89,1.28-3.45,1.28-.26,0-.53-.02-.81-.06-.08-.01-.16-.02-.24-.02-.57,0-1.2.27-1.75.51-.53.23-1,.43-1.45.43-.16,0-.31-.03-.45-.08-.23-.08-.74-.17-1.29-.17-.71,0-1.07.15-1.14.22-1,1.37-2.15,1.55-3.05,1.55-.13,0-.26,0-.38,0-.1,0-.21,0-.31,0-.47,0-.53.08-.59.16-.86,1.25-1.83,1.44-2.61,1.6-.66.13-1.17.23-1.73.92-.11.14-.26.24-.39.34,10.58-3.51,19.54-4.05,19.03-1.11,6.09-4.08,17.28-5.27,15.48-.18,7.03-4.07,18.5-4.93,16.24-.24,6.87-3.69,18.19-4.24,16.31.22,7.6-4.15,17.38-4.77,15.31-.44,8.17-4.35,19.89-6,18.05-.77,8.23-4.67,20.74-5,18.57.01,10.32-4.98,20.05-4.84,17.97.6,9.37-5.44,17.92-5.44,17.92-.25Z"/>
        </g>
        <g>
          <path class="cls-44" d="m390.41,81.86c-1.64,0-3.12.7-4.15,1.82-.48-.13-.98-.21-1.5-.21-.61,0-1.2.1-1.75.28-1.03-1.32-2.64-2.16-4.44-2.16-3.12,0-5.65,2.53-5.65,5.65s2.53,5.65,5.65,5.65c.61,0,1.2-.1,1.75-.28,1.03,1.32,2.64,2.16,4.44,2.16,1.64,0,3.12-.7,4.15-1.82.48.13.98.21,1.5.21,3.12,0,5.65-2.53,5.65-5.65s-2.53-5.65-5.65-5.65Z"/>
          <g>
            <path class="cls-25" d="m409.87,56.71c0,.48-.03.95-.1,1.4-.16,1.09-.5,2.12-.99,3.06-1.61,3.05-4.81,5.14-8.5,5.14-1.69,0-3.27-.44-4.65-1.2-1.76,2.11-4.41,3.45-7.37,3.45-1.19,0-2.34-.22-3.39-.62-1.58,1.14-3.51,1.82-5.61,1.82-2.85,0-5.42-1.25-7.18-3.23-1.06.41-2.21.63-3.41.63-5.3,0-9.6-4.3-9.6-9.59,0-3.59,1.97-6.71,4.88-8.36-.05-.41-.08-.82-.08-1.24,0-5.3,4.29-9.59,9.59-9.59.49,0,.97.04,1.44.11,1.34-3.67,4.87-6.29,9.01-6.29.19,0,.38,0,.56.02,1.22.07,2.38.37,3.43.85h0c2.05.94,3.71,2.59,4.68,4.63.92-.29,1.89-.45,2.91-.45,5.3,0,9.6,4.29,9.6,9.59,0,.52-.04,1.03-.12,1.52,2.93,1.64,4.91,4.78,4.91,8.37Z"/>
            <path class="cls-30" d="m408.78,61.16h0c-1.61,3.06-4.81,5.15-8.5,5.15-1.69,0-3.27-.44-4.65-1.2-1.76,2.11-4.41,3.45-7.37,3.45-1.19,0-2.34-.22-3.39-.62-1.58,1.14-3.51,1.82-5.61,1.82-2.85,0-5.42-1.25-7.18-3.23-1.06.41-2.21.63-3.41.63-5.3,0-9.6-4.3-9.6-9.59,0-3.59,1.97-6.71,4.88-8.36-.05-.41-.08-.82-.08-1.24,0-5.3,4.29-9.59,9.59-9.59.49,0,.97.04,1.44.11,1.34-3.67,4.87-6.29,9.01-6.29.19,0,.38,0,.56.02-5.33,1.01-7.45,5.9-4.75,6.37-4.27,3.37-4.46,7.61-1.41,7.13-2.54,3.33-2.04,8.5.86,6.66.59,4.74,4.97,7.83,6.42,4.7,1.56,3.37,6.12,3.79,8.22,1.06.74,2.18,3.45,3.01,6.26,1.83.82,2.47,5.36,3.21,8.69,1.22Z"/>
            <path class="cls-47" d="m409.87,56.71c0,.48-.03.95-.1,1.4-.52-4.09-2.69-6.57-4.09-5.18.35-2.96-.74-4.08-1.95-3.17.24-3.08-.62-3.78-2.08-3.05.94-3.99-.73-6.37-2.66-5.05-1.57-2.93-4.57-3.25-6.97-1.64-.31-2.92-1.87-5.14-4.11-6.97,2.05.94,3.71,2.58,4.68,4.62.92-.29,1.89-.45,2.91-.45,5.3,0,9.6,4.29,9.6,9.59,0,.52-.04,1.03-.12,1.52,2.93,1.64,4.91,4.78,4.91,8.37Z"/>
          </g>
          <g>
            <path class="cls-13" d="m402.77,82.57c-.42.19-.74.27-1,.24-.19-.02-.34-.1-.46-.24-4.99,3.73-10.34,5.16-14.68,10.97h0c-.12-7.43.23-14.07.68-23.22h-4.23s-2.07,0-2.07,0c.51,8.94.92,15.56.78,22.94-2.91-4.93-6.87-6.83-11.86-7.33-.09.16-.25.32-.48.47-.26.18-.61.35-1.03.52,2.21.03,4.28.51,4.48.65,5.06,1.5,7.68,5.86,8.69,10.98-.59,11.59-1.39,14.97-3.41,18.59-.12.21.07.45.3.4.83-.18,1.58-.54,2.25-.54.05,0,.09,0,.14,0,.05,0,.09,0,.14.02.09.02.18.04.27.08h0c.05.02.1.04.15.07.04.02.08.05.13.08.26.18.59.16.85-.01.89-.61,2.15-.53,3.24.13.23.14.52.15.75.02.05-.03.1-.05.15-.07.89-.4,1.89.16,3.01.3.21.03.37-.19.28-.39-1.43-3.15-2.16-5.84-2.54-10.41-.23-2.82-.4-5.4-.51-7.83h0c2.16-9.84,11.5-12.4,15.97-16.4Z"/>
            <path class="cls-11" d="m381.29,117.09c-.8-.32-1.73.2-2.8.44-.23.05-.42-.19-.3-.4,1.57-2.81,2.32-5.38,2.82-10.71.27-2.83.46-5.43.59-7.88-1.1-5.25-3.55-9.46-8.69-10.98-.2-.13-2.27-.62-4.48-.65.42-.17.77-.34,1.03-.52,6.49.95,11.03,4.11,12.58,10.35.07.26.28,1.42.34,1.69.36,5.41-.42,13.33-1.07,18.65Z"/>
            <path class="cls-11" d="m381.78,93.25c.14-7.38-.27-14-.78-22.94h2.07c.12,9.6-.62,21.01-1.29,22.94Z"/>
            <path class="cls-11" d="m401.77,82.81c-5.32,3.71-10.74,6.3-15.15,10.73,4.34-5.82,9.7-7.24,14.68-10.97.12.14.27.22.46.24Z"/>
            <path class="cls-46" d="m389.57,117.59c-1.12-.14-2.12-.7-3.01-.3-.62-7.14-.69-14.24.24-18.32.11,2.43.28,5.01.51,7.83.37,4.57,1.11,7.25,2.54,10.41.09.19-.07.42-.28.39Z"/>
          </g>
          <g>
            <path class="cls-42" d="m416.35,75.12c0,.28-.01.57-.04.85-.18,2.04-1,3.89-2.25,5.36-.4,4.93-4.52,8.81-9.56,8.81-.72,0-1.41-.08-2.09-.23-1.51,1-3.32,1.58-5.27,1.58-3.09,0-5.82-1.46-7.57-3.72-3.65-1.36-6.26-4.86-6.26-8.99,0-1.78.49-3.44,1.34-4.87-.3-.94-.47-1.93-.47-2.97,0-.33.02-.65.05-.97.48-4.84,4.57-8.63,9.54-8.63.92,0,1.8.14,2.64.38,1.75-1.84,4.21-2.99,6.94-2.99,5.12,0,9.28,4,9.57,9.05,1.63,1.38,2.79,3.28,3.23,5.45.12.61.18,1.23.18,1.88Z"/>
            <path class="cls-35" d="m416.31,75.97c-.18,2.04-1,3.89-2.25,5.36-.4,4.93-4.52,8.81-9.56,8.81-.72,0-1.41-.08-2.09-.23-1.51,1-3.32,1.58-5.27,1.58-3.09,0-5.82-1.46-7.57-3.72-3.65-1.36-6.26-4.86-6.26-8.99,0-1.78.49-3.44,1.34-4.87-1.34,4.87,1.07,7.94,4.03,6.71.61,3.55,4.4,5.4,8.26,2.57,1.75,2.49,5.12,2.52,6.89-.73,1.15,3.2,5.85,1.73,6.03-1.65,2.27,1.4,5.56-1.62,6.44-4.85Z"/>
            <path class="cls-7" d="m416.16,73.24h0c-1.2-2.86-2.94-4.82-4.23-4.73-.34-3.1-2.28-4.74-3.13-2.51-1-3.41-4.23-4.86-5.01-2.19-1.63-2.45-5.13-1.71-6.78,1.57-1.42-2.14-5.06-2.32-6.68.58-1.73-1.87-4.65-.14-6.09,4.02.48-4.84,4.57-8.63,9.54-8.63.92,0,1.8.14,2.64.38,1.75-1.84,4.21-2.99,6.94-2.99,5.12,0,9.28,4,9.57,9.05,1.63,1.38,2.79,3.28,3.23,5.45Z"/>
          </g>
          <g>
            <path class="cls-7" d="m385.65,76.19c.28.89.42,1.84.42,2.82,0,5.2-4.14,9.43-9.31,9.58-1.71,1.58-3.99,2.55-6.5,2.55-2.82,0-5.34-1.22-7.09-3.15-5.01-.32-8.98-4.47-8.98-9.57,0-1.66.42-3.22,1.16-4.58-.38-1.03-.6-2.15-.6-3.32,0-2.62,1.05-5,2.76-6.73,1.74-1.77,4.16-2.86,6.83-2.86.01,0,.03,0,.03,0,1.76-2.07,4.38-3.39,7.31-3.39,4.53,0,8.31,3.14,9.32,7.35,2.44,1.31,4.25,3.64,4.86,6.43.14.65.22,1.33.22,2.03,0,.99-.15,1.94-.43,2.83Z"/>
            <path class="cls-41" d="m386.07,79.01c0,5.2-4.14,9.43-9.31,9.58-1.71,1.58-3.99,2.55-6.5,2.55-2.82,0-5.34-1.22-7.09-3.15-5.01-.32-8.98-4.47-8.98-9.57,0-1.66.42-3.22,1.16-4.58.24,1.84,2.12,3.46,3.89,2.65-.65,3.92,2.85,6.29,4.91,3.66.21,2.17,2.3,3.32,4.19,2.42,1.47.82,3.4.43,4.21-1.79,1.15,2.74,4.18,2.79,5.52,0,2.86,2.19,7.04-.65,7.58-4.59.28.89.42,1.84.42,2.82Z"/>
            <path class="cls-14" d="m385.93,71.33c-1.51-3.14-3.98-5.43-4.64-3.66-.53-3.23-2.33-4.48-3.15-3.03-1.47-4.05-5.01-4.97-6.51-2.04-1.78-2.64-5.2-1.62-7.15,1.67-.89-1.94-3.59-2.43-6.9-.48,1.74-1.77,4.16-2.86,6.83-2.86.01,0,.03,0,.03,0,1.76-2.07,4.38-3.39,7.31-3.39,4.53,0,8.31,3.14,9.32,7.35,2.44,1.31,4.25,3.64,4.86,6.43Z"/>
          </g>
        </g>
        <g>
          <path class="cls-33" d="m45.15,64.09c-1.04,0-2,.31-2.81.85-.78-1.81-2.58-3.08-4.68-3.08-1.54,0-2.92.69-3.85,1.77-.93-1.08-2.31-1.77-3.85-1.77-1.62,0-3.06.76-3.99,1.94-.41-.19-.86-.3-1.33-.3-1.01,0-1.9.48-2.48,1.21-.07,0-.13-.01-.2-.01-2.81,0-5.1,2.28-5.1,5.1s2.28,5.1,5.1,5.1c.68,0,1.32-.14,1.92-.38.78,1.83,2.58,3.11,4.69,3.11.95,0,1.84-.26,2.6-.72.91.83,2.11,1.34,3.44,1.34,1.72,0,3.24-.85,4.16-2.16.56.51,1.3.82,2.12.82,1.61,0,2.93-1.21,3.12-2.77.37.09.76.14,1.16.14,2.81,0,5.1-2.28,5.1-5.1s-2.28-5.1-5.1-5.1Z"/>
          <g>
            <path class="cls-13" d="m46.2,65.55c-3.12.72-5.61,2-8.1,4.85-1.77,3.32-2.29,9.04-3.05,14.18.01.25.02.51.03.76.28,6.48.91,9.66,2.45,11.83.13.17-.02.4-.23.38-.79-.1-1.54-.37-2.08-.2-.31.09-.64.11-.94,0-.73-.27-1.51-.3-2.26-.07-.19.06-.38.08-.57.07-.14,0-.29-.03-.43-.08-.7-.24-1.47.08-2.48.25-.21.04-.35-.2-.24-.37,1.8-2.7,2.17-6.16,2.44-11.81.01-.28.03-.55.04-.83h0c-.47-5.13-1.43-12.32-5.29-15.56h0c-2.37-1.97-5.5-2.57-8.53-2.94.35-.4.24-.58-.09-1.05,2.3.18,6.35,1.05,8.83,2.63-1.27-2.21-4.59-4.99-7.15-6.91,1.15.42,2,.48,2.38,0,2.13,1.88,5.02,4.31,6.82,6.69,1.26,1.62,2.33,3.47,3.19,5.7-.23-8.62-1.76-14.65-4.66-21.33.61,0,1.11-.29,1.53-.76,2.32,5.14,3.52,8.91,5.01,14.85.6-5.94,1.41-9.53,2.9-14.85.68.32,1.19.43,2.17,0-2.51,6.95-3.1,14.15-3.1,21.68,1.61-5.78,4.35-10.54,7.27-14.4.5.22,1.07.17,2.16-.38-2.19,2.9-4.74,6.62-5.61,10.32,1.64-1.52,4.59-2.92,6.33-3.29.14.33.6.53,1.25.65Z"/>
            <path class="cls-11" d="m31.46,97.34h0c-.14,0-.29-.03-.43-.08-.7-.24-1.47.08-2.48.25-.21.04-.35-.2-.24-.37,2.11-3.18,2.22-7.64,2.48-12.64h0c-.61-6.68-1.79-12.62-5.29-15.56,7.11,3.58,6.71,20.43,5.96,28.39Z"/>
            <path class="cls-11" d="m30.93,72.39c-.22-7.87-1.68-13.86-4.63-20.66.37,0,.7-.11.99-.29,3.07,8.51,4.24,15.45,3.64,20.95Z"/>
            <path class="cls-11" d="m42.77,58.37c-3.08,3.96-5.76,8.67-7.96,14.28,1.37-4.89,3.66-9.62,7.27-14.39.21.09.43.14.7.11Z"/>
            <path class="cls-46" d="m37.54,97.17c.13.17-.02.4-.23.38-.79-.1-1.54-.37-2.08-.2-.31.09-.64.11-.94,0-.5-8.47-.77-16.22,3.82-26.94-1.48,3.46-2.29,9.04-3.05,14.18.01.25.02.51.03.76.28,6.48.91,9.66,2.45,11.83Z"/>
          </g>
          <g>
            <path class="cls-33" d="m61.57,45.43c.25.61.4,1.28.4,1.98,0,2.81-2.28,5.1-5.1,5.1s-5.1-2.28-5.1-5.1c0-.62.11-1.22.32-1.77-.18.02-.35.03-.53.03-1.66,0-3.14-.8-4.07-2.02-.65-.85-1.03-1.92-1.03-3.07,0-1.61.75-3.04,1.9-3.97-1.03-.93-1.68-2.28-1.68-3.78,0-2.66,2.03-4.83,4.63-5.07-.08-.28-.13-.57-.13-.88,0-1.74,1.41-3.15,3.15-3.15s3.15,1.41,3.15,3.15c0,.54-.14,1.06-.38,1.5,2.61.23,4.65,2.41,4.65,5.07,0,1.19-.41,2.28-1.09,3.15,1.8.78,3.06,2.58,3.06,4.67,0,1.72-.85,3.23-2.15,4.16Z"/>
            <path class="cls-19" d="m61.57,45.43c.25.61.4,1.28.4,1.98,0,2.81-2.28,5.1-5.1,5.1s-5.1-2.28-5.1-5.1c0-.62.11-1.22.32-1.77-.18.02-.35.03-.53.03-1.66,0-3.14-.8-4.07-2.02,4.79.37,7.82-1.38,6.32-2.95,4.15-1.28,5.04-4.32,2.66-4.75,3.32-3.2,2.73-6.65.63-7.57,2.61.23,4.65,2.41,4.65,5.07,0,1.19-.41,2.28-1.09,3.15,1.8.78,3.06,2.58,3.06,4.67,0,1.72-.85,3.23-2.15,4.16Z"/>
          </g>
          <g>
            <path class="cls-33" d="m15.64,32.02c.01.15.02.3.02.45,0,.42-.06.82-.15,1.21,1.56.87,2.61,2.53,2.61,4.45,0,2.25-1.46,4.16-3.49,4.83-.3.1-.61.17-.94.22,0,.01,0,.03,0,.05,0,2.82-2.28,5.1-5.1,5.1s-5.1-2.28-5.1-5.1c0-1.29.48-2.46,1.27-3.36-.62-.57-1-1.39-1-2.3,0-1.39.9-2.57,2.15-2.99-.29-.65-.46-1.36-.46-2.11,0-2.48,1.77-4.55,4.12-5-.01-.15-.02-.3-.02-.45,0-2.81,2.28-5.1,5.1-5.1s5.1,2.28,5.1,5.1c0,2.48-1.77,4.55-4.12,5Z"/>
            <path class="cls-19" d="m13.69,43.17s0,.03,0,.05c0,2.82-2.28,5.1-5.1,5.1s-5.1-2.28-5.1-5.1c0-1.29.48-2.46,1.27-3.36-.62-.57-1-1.39-1-2.3,0-1.39.9-2.57,2.15-2.99-.29-.65-.46-1.36-.46-2.11,0-2.48,1.77-4.55,4.12-5-2.35,1.82-2.86,5.67-.92,7.37-.78,3.21,1.22,6.12,3.67,4.58-.32,2.29.8,3.1,2.28,3.54-.3.1-.61.17-.94.22Z"/>
          </g>
          <g>
            <path class="cls-24" d="m51.95,27.19c.37.71.58,1.51.58,2.35,0,1.15-.38,2.21-1.03,3.07h0c-.93,1.23-2.41,2.03-4.07,2.03-.65,0-1.27-.13-1.85-.35-.78,1.82-2.58,3.1-4.69,3.1-1.2,0-2.3-.42-3.17-1.11-.87.69-1.97,1.11-3.16,1.11-1.06,0-2.05-.33-2.86-.88-.93.95-2.21,1.53-3.64,1.53-.37,0-.72-.04-1.06-.11-1.37-.29-2.54-1.14-3.26-2.29-.72-.08-1.4-.31-2-.66-.75.43-1.62.69-2.55.69-2.82,0-5.1-2.28-5.1-5.1,0-.67.14-1.31.37-1.9-1.04-.93-1.7-2.28-1.7-3.79,0-1.9,1.05-3.56,2.59-4.43,0-.03,0-.05,0-.08,0-1.66.8-3.14,2.04-4.06-.04-.25-.06-.51-.06-.77,0-2.23,1.43-4.12,3.43-4.81,0-.1-.01-.19-.01-.29,0-2.81,2.28-5.1,5.1-5.1.18,0,.37.01.54.03.43-.38.92-.68,1.45-.9.19-1.62,1.14-3,2.48-3.79.76-.45,1.64-.7,2.58-.7.35,0,.7.04,1.03.1h0c1.79.37,3.23,1.68,3.8,3.39,1.5.16,2.68,1.37,2.8,2.87.49-.15,1.01-.24,1.54-.24,2.82,0,5.1,2.28,5.1,5.1,0,.54-.09,1.05-.24,1.54.07,0,.14-.01.2-.01,2.81,0,5.1,2.28,5.1,5.1,0,.53-.08,1.04-.23,1.51,1.11.94,1.81,2.33,1.81,3.89s-.72,3-1.86,3.94Z"/>
            <path class="cls-17" d="m33.92.11c-2.09.27-3.2,1.57-2.75,4.5-1.44-1.02-2.55.89-2.28,3.76-2.15-1.43-3.35,2.36-1.89,7.35-1.93-2.42-3.48-.54-2.59,2.33-2.54-1.4-2.78,2.36-.42,6.51-1.99-.18-2,3.17.42,5.91-2.57.09-.69,4.96,2.59,7.46-1.37-.29-2.54-1.14-3.26-2.29-.72-.08-1.4-.31-2-.66-.75.43-1.62.69-2.55.69-2.82,0-5.1-2.28-5.1-5.1,0-.67.14-1.31.37-1.9-1.04-.93-1.7-2.28-1.7-3.79,0-1.9,1.05-3.56,2.59-4.43,0-.03,0-.05,0-.08,0-1.66.8-3.14,2.04-4.06-.04-.25-.06-.51-.06-.77,0-2.23,1.43-4.12,3.43-4.81,0-.1-.01-.19-.01-.29,0-2.81,2.28-5.1,5.1-5.1.18,0,.37.01.54.03.43-.38.92-.68,1.45-.9.3-2.53,2.45-4.49,5.06-4.49.35,0,.7.04,1.03.1h0Z"/>
            <path class="cls-17" d="m37.43,10.78c.67-.41,1.04-1.39,1.16-2.82.08,2.4.57,4.03,1.57,4.7-.43.95-.19,1.71.54,2.33-.88.26-.93,1.18-.36,2.6-.66.36-1.07,1.37-1.28,2.91-.06-2.3-.18-4.03-1.28-4.17.56-1.37.36-2.09-.36-2.37,1.14-1.25.77-2.86,0-3.18Z"/>
            <path class="cls-26" d="m51.95,27.19c.37.71.58,1.51.58,2.35,0,1.15-.38,2.21-1.03,3.07.66-1.95.68-4.25-.49-3.29.52-1.51.07-2.69-.6-1.66,1.87-5.03,1.37-6.76.1-6.54-.02-5.64-2.37-6.32-3.85-4.3.02-3.14-1.34-4.01-2.38-2.6.54-6.03-3.09-6.9-3.81-5.11-.45-3.45-3.05-4.77-4.21-2.67.29-4.52-3.45-5.67-5.04-4.28.35-1.26,1.31-1.89,2.69-2.07,1.79.37,3.23,1.67,3.8,3.38,1.5.16,2.68,1.37,2.8,2.87.49-.15,1.01-.24,1.54-.24,2.82,0,5.1,2.28,5.1,5.1,0,.54-.09,1.05-.24,1.54.07,0,.14-.01.2-.01,2.81,0,5.1,2.28,5.1,5.1,0,.53-.08,1.04-.23,1.51,1.11.94,1.81,2.33,1.81,3.89s-.72,3-1.86,3.94Z"/>
          </g>
          <g>
            <path class="cls-31" d="m51.42,35.44c.15-.5.24-1.03.24-1.58,0-2.72-2-4.96-4.61-5.34.03-.24.06-.49.06-.74,0-.41-.05-.81-.14-1.2-.54-2.41-2.7-4.21-5.27-4.21-.73,0-1.43.15-2.07.41-.05-1.8-1.52-3.25-3.34-3.25-1.01,0-1.91.45-2.53,1.16-.58-.99-1.65-1.66-2.89-1.66-1.52,0-2.8,1.01-3.21,2.4-.6-.23-1.24-.36-1.92-.36-2.52,0-4.64,1.72-5.24,4.05-.11.43-.17.89-.17,1.35,0,.28.03.56.07.83-2.59.4-4.58,2.64-4.58,5.34,0,.37.04.73.11,1.07-2.78.22-4.97,2.55-4.97,5.39,0,2.99,2.42,5.41,5.41,5.41,1.1,0,2.12-.33,2.97-.89.7.52,1.53.87,2.44,1,.06,2.94,2.45,5.3,5.4,5.3.97,0,1.89-.26,2.67-.71.98,1,2.35,1.63,3.86,1.63,2.29,0,4.25-1.43,5.04-3.44,2.06-.05,3.83-1.24,4.7-2.97.31.06.63.09.96.09,2.03,0,3.8-1.13,4.73-2.79.4.17.84.27,1.3.27,1.85,0,3.34-1.49,3.34-3.34,0-1.51-1.01-2.79-2.39-3.2Z"/>
            <path class="cls-49" d="m53.81,38.65c0,1.85-1.49,3.34-3.34,3.34-.46,0-.91-.1-1.3-.27-.92,1.66-2.69,2.79-4.73,2.79-.33,0-.65-.03-.96-.09-.87,1.73-2.64,2.92-4.7,2.97-.79,2.01-2.74,3.44-5.04,3.44-1.51,0-2.88-.62-3.86-1.63-.79.45-1.7.71-2.67.71-2.95,0-5.34-2.37-5.4-5.3-.91-.13-1.73-.48-2.44-1-.85.56-1.88.89-2.97.89-2.99,0-5.41-2.42-5.41-5.41s2.19-5.16,4.97-5.39c-.07-.35-.11-.7-.11-1.07,0-2.7,1.99-4.94,4.58-5.34-3.25,3.14-1.85,8.47,1.41,7.63-.13,3.46,2.9,5.61,7.17,4.63,1.25,2.19,5.76,2.19,7.42-1.02,2.91,1.06,5.99.86,7.61-2.19,2.44.93,5.98-3.37,3.04-7.84,2.61.39,4.61,2.63,4.61,5.34,0,.55-.08,1.08-.24,1.58,1.38.41,2.39,1.69,2.39,3.2Z"/>
            <path class="cls-48" d="m46.97,26.58c-1.97-2.55-5.05-2.9-5.84-1.15-1.81-2.06-4.31-2.62-5.48-.66-1.91-2.41-5.01-2.51-6.66-.35-2.41-2.28-5.8-2.22-8.48.71.6-2.33,2.72-4.05,5.24-4.05.68,0,1.32.13,1.92.36.41-1.39,1.69-2.4,3.21-2.4,1.23,0,2.31.67,2.89,1.66.61-.71,1.51-1.16,2.53-1.16,1.81,0,3.29,1.45,3.34,3.25.64-.27,1.34-.41,2.07-.41,2.57,0,4.73,1.8,5.27,4.21Z"/>
          </g>
          <g>
            <path class="cls-24" d="m33.34,63.92c0,1.52-1.09,2.8-2.53,3.09-.5,2.29-2.54,4.01-4.98,4.01-.99,0-1.91-.29-2.69-.77-.57.59-1.37.96-2.26.96-1.15,0-2.15-.62-2.7-1.54-.75.43-1.61.67-2.53.67-1.7,0-3.19-.83-4.12-2.1-.61.26-1.27.4-1.97.4-2.67,0-4.86-2.06-5.07-4.68-1.92-.73-3.29-2.58-3.29-4.76,0-.45.06-.89.17-1.3-.83-.57-1.38-1.52-1.38-2.6,0-1.35.85-2.49,2.04-2.95-.14-.46-.21-.94-.21-1.44,0-1.22.43-2.34,1.15-3.21.82-1.02,2.04-1.71,3.42-1.85.45-2.35,2.52-4.13,5-4.13.66,0,1.29.13,1.87.36.86-1.58,2.54-2.65,4.47-2.65,1.51,0,2.87.66,3.8,1.71.59-.24,1.24-.38,1.92-.38,2.52,0,4.6,1.83,5.02,4.23,2.11.62,3.66,2.57,3.66,4.89,0,.25-.02.5-.05.74-.04.25-.1.5-.17.74.44.54.71,1.24.71,2,0,.65-.2,1.25-.53,1.75.61.7,1.04,1.57,1.19,2.53.05.27.07.54.07.82,0,1.18-.4,2.26-1.08,3.12.65.58,1.06,1.42,1.06,2.35Z"/>
            <path class="cls-15" d="m33.34,63.92c0,1.52-1.09,2.8-2.53,3.09-.5,2.29-2.54,4.01-4.98,4.01-.99,0-1.91-.29-2.69-.77-.57.59-1.37.96-2.26.96-1.15,0-2.15-.62-2.7-1.54-.75.43-1.61.67-2.53.67-1.7,0-3.19-.83-4.12-2.1-.61.26-1.27.4-1.97.4-2.67,0-4.86-2.06-5.07-4.68-1.92-.73-3.29-2.58-3.29-4.76,0-.45.06-.89.17-1.3-.83-.57-1.38-1.52-1.38-2.6,0-1.35.85-2.49,2.04-2.95-.89,3.75,2,6.26,5.83,5.13-.87,3.94,3.64,5.91,6.45,3.16,1.4,3.49,6.12,4.18,9.74.66,2.99,2.39,7.64.75,9.24-3.67.05.27.07.54.07.82,0,1.18-.4,2.26-1.08,3.12.65.58,1.06,1.42,1.06,2.35Z"/>
            <path class="cls-9" d="m32.14,49.86c0,.25-.02.5-.05.74-1.31-4.04-4.6-5.11-6.21-3.68-.43-2.06-2.49-3.43-3.67-1.7-.43-2.26-2.37-2.51-3-1.57-2.08-1.29-3.96-.74-5.28,1.08-2.44-1.06-5.17.28-6.81,3.18-.9-1.15-2.56-1.15-4.13-.23.82-1.02,2.04-1.71,3.42-1.85.45-2.35,2.52-4.13,5-4.13.66,0,1.29.13,1.87.36.86-1.58,2.54-2.65,4.47-2.65,1.51,0,2.87.66,3.8,1.71.59-.24,1.24-.38,1.92-.38,2.52,0,4.6,1.83,5.02,4.23,2.11.62,3.66,2.57,3.66,4.89Z"/>
          </g>
          <g>
            <path class="cls-16" d="m64,60.29c0,2.36-1.61,4.34-3.78,4.92-.61,2.05-2.48,3.56-4.71,3.63-.38,1.31-1.59,2.26-3.02,2.26-.4,0-.8-.08-1.15-.22-.94,1.14-2.35,1.87-3.94,1.87s-2.95-.7-3.89-1.81c-.42.2-.89.32-1.39.32-1.24,0-2.3-.72-2.82-1.76-.45.13-.93.21-1.43.21-2.78,0-5.03-2.22-5.09-4.98-1.65-.84-2.79-2.56-2.79-4.54,0-.87.22-1.7.61-2.42-1.04-.93-1.7-2.28-1.7-3.79,0-1.72.85-3.23,2.15-4.16-.11-.42-.17-.85-.17-1.3,0-2.82,2.28-5.1,5.1-5.1.15,0,.29,0,.44.02.05-1.7,1.44-3.06,3.14-3.06.74,0,1.42.26,1.96.68.93-1.03,2.27-1.67,3.77-1.67,1.8,0,3.39.94,4.29,2.36.89-.75,2.03-1.21,3.29-1.21,2.81,0,5.1,2.28,5.1,5.1,0,.73-.16,1.43-.44,2.06.15-.01.29-.02.44-.02,2.81,0,5.1,2.28,5.1,5.1,0,1.27-.47,2.43-1.23,3.32,1.32.92,2.18,2.45,2.18,4.18Z"/>
            <path class="cls-36" d="m57.95,45.66c0,.73-.16,1.43-.44,2.06-.64-3.78-2.81-3.72-3.55-2.01-.52-2.62-3.12-2.89-3.72-1.53-2.45-2.01-5.11-1.51-5.69.58-2.62-2.3-5.72-1.34-6.27,1.25-2.35-1.88-5.76-1.24-7.41,2.52,0-2.82,2.28-5.1,5.1-5.1.15,0,.29,0,.44.02.05-1.7,1.44-3.06,3.14-3.06.74,0,1.42.26,1.96.68.93-1.03,2.27-1.67,3.77-1.67,1.8,0,3.39.94,4.29,2.36.89-.75,2.03-1.21,3.29-1.21,2.81,0,5.1,2.28,5.1,5.1Z"/>
            <path class="cls-29" d="m64,60.29c0,2.36-1.61,4.34-3.78,4.92-.61,2.05-2.48,3.56-4.71,3.63-.38,1.31-1.59,2.26-3.02,2.26-.4,0-.8-.08-1.15-.22-.94,1.14-2.35,1.87-3.94,1.87s-2.95-.7-3.89-1.81c-.42.2-.89.32-1.39.32-1.24,0-2.3-.72-2.82-1.76-.45.13-.93.21-1.43.21-2.78,0-5.03-2.22-5.09-4.98-1.65-.84-2.79-2.56-2.79-4.54,0-.87.22-1.7.61-2.42.28,4.69,4.51,6.65,8.27,3.62,1.66,3.03,6,3.57,9.14,0,1.66,3.03,7.12,1.55,6.93-2.33,2.21,2.54,6.78,1.19,6.88-2.96,1.32.92,2.18,2.45,2.18,4.18Z"/>
          </g>
        </g>
        <g>
          <g>
            <path class="cls-31" d="m477.14,54.08c.16.54.26,1.12.26,1.72,0,3.28-2.66,5.93-5.94,5.93s-5.94-2.66-5.94-5.93c0-.87.19-1.69.53-2.43-1.03-.84-1.88-1.89-2.49-3.08-.67-1.31-1.05-2.8-1.05-4.37,0-.22.02-.44.03-.66-2.78-.49-4.89-2.92-4.89-5.84,0-3.28,2.66-5.94,5.93-5.94,1.22,0,2.34.37,3.29.99,1.09-1.33,2.74-2.18,4.6-2.18,3.16,0,5.75,2.48,5.92,5.6,2.61,1.72,4.33,4.67,4.33,8.03s-1.83,6.47-4.57,8.17Z"/>
            <path class="cls-49" d="m477.14,54.08c.16.54.26,1.12.26,1.72,0,3.28-2.66,5.93-5.94,5.93s-5.94-2.66-5.94-5.93c0-.87.19-1.69.53-2.43-1.03-.84-1.88-1.89-2.49-3.08,3.48,1.25,6.62,1.08,8.57-3.73,1.16,2.21,3.43,1.19,2.51-3.39,2.36,1.41,4.58-.73,2.75-5.28,2.61,1.72,4.33,4.67,4.33,8.03s-1.83,6.47-4.57,8.17Z"/>
          </g>
          <g>
            <path class="cls-5" d="m472.26,69.9c.1.57.17,1.16.17,1.75,0,5.31-4.3,9.6-9.61,9.6-.77,0-1.52-.1-2.23-.27-1.76,2.03-4.36,3.32-7.26,3.32-2.24,0-4.3-.77-5.94-2.06-1.73,1.7-4.1,2.75-6.72,2.75-4.48,0-8.23-3.06-9.3-7.2-.18-.71-.28-1.45-.3-2.21-2.68-1.7-4.46-4.69-4.46-8.1,0-5.3,4.3-9.6,9.6-9.6s9.5,4.2,9.6,9.42c.27.17.54.36.79.56,1.73-1.7,4.11-2.75,6.73-2.75.77,0,1.52.1,2.24.27.24-.28.5-.54.77-.79-.1-.56-.17-1.15-.17-1.75,0-5.31,4.3-9.61,9.6-9.61s9.61,4.3,9.61,9.61c0,2.8-1.21,5.32-3.12,7.07Z"/>
            <path class="cls-29" d="m472.43,71.66c0,5.31-4.3,9.6-9.61,9.6-.77,0-1.52-.1-2.23-.27-1.76,2.03-4.36,3.32-7.26,3.32-2.24,0-4.3-.77-5.94-2.06-1.73,1.7-4.1,2.75-6.72,2.75-4.48,0-8.23-3.06-9.3-7.2,4.47,3.79,10.95,4.24,16.82,0,1.92,3.28,6.59,3.1,9.84-.63,1.6,2.72,6.66,1.57,8.53-2.3,1.41,2.58,4.9-.24,5.71-4.96.1.57.17,1.16.17,1.75Z"/>
          </g>
          <g>
            <path class="cls-33" d="m435.63,72.44c0,.85-.11,1.68-.32,2.47-1.09,4.11-4.83,7.14-9.28,7.14-1.67,0-3.23-.42-4.59-1.16-1.75,1.79-4.18,2.9-6.88,2.9-3.11,0-5.87-1.49-7.63-3.78-1.4.8-3.02,1.26-4.75,1.26-5.31,0-9.61-4.3-9.61-9.6,0-.16,0-.32.01-.48.25-5.08,4.45-9.13,9.6-9.13,3.11,0,5.87,1.49,7.63,3.78,1.4-.8,3.02-1.26,4.75-1.26s3.23.42,4.59,1.16c1.75-1.79,4.18-2.9,6.88-2.9,5.3,0,9.6,4.3,9.6,9.61Z"/>
            <path class="cls-19" d="m435.31,74.9c-1.09,4.11-4.83,7.14-9.28,7.14-1.67,0-3.23-.42-4.59-1.16-1.75,1.79-4.18,2.9-6.88,2.9-3.11,0-5.87-1.49-7.63-3.78-1.4.8-3.02,1.26-4.75,1.26-5.31,0-9.61-4.3-9.61-9.6,0-.16,0-.32.01-.48,3.05,5.23,8.85,7.02,15.29,3.87,1.92,3.59,6.23,4.36,10.53,1.6,1.26,2.41,5.93,2.13,8.02-.56,2.3,2.44,6.07,1.95,8.88-1.18Z"/>
          </g>
          <g>
            <path class="cls-47" d="m442.02,91.33c-.18,3.61.19,6.79.85,11.05.84,5.5,3.26,10.45,6.42,13.5.43.41.07,1.13-.52,1.02-2.98-.53-6.23-1.38-8.03-.69-.71.27-1.48.29-2.19.03-.8-.29-1.56-.44-2.29-.44-.76,0-1.48.15-2.17.45-.69.3-1.47.29-2.18.04-2.18-.76-4.15-.67-6.67.07-.52.15-1.07.18-1.59.04-.11-.03-.23-.06-.35-.08-1.14-.23-2.52-.19-3.72.11-.62.15-1.27.15-1.86-.08-1.59-.63-4.47-.06-7.18.19-.52.05-.76-.64-.32-.92,3.7-2.38,6.1-4.73,6.79-9.87.47-3.5.82-9.76.67-15.05-.26-8.83-1.41-17.01-12.41-22.42,1.28.1,2.11.05,2.76-.24.32-.14.59-.34.84-.61,4.13,2.02,6.72,5.47,9.47,9,1.2,1.54,2.11,2.11,2.82,1.85.73-.25,1.25-1.36,1.67-3.12.77-3.26-.37-6.72-1.08-9.6.68.3,1.21.46,1.72.45.45,0,.89-.15,1.41-.45,0,0,.36,7.58,1.46,10.36.57,1.45,1.28,2.13,2.04,2.04h0c.7-.09,1.44-.83,2.16-2.23,1.56-3.06,1.82-6.47,1.61-9.76.56.4.99.54,1.44.49.37-.04.76-.22,1.21-.49.12,3-.8,7.11-.98,9.87-.1,1.48.52,2.19,1.49,2.16.97-.03,2.29-.8,3.57-2.31,2.37-2.78,4.44-7.36,5.61-10.91.33.34.67.54,1.1.63.43.09.95.06,1.64-.06-1.63,3.49-4.46,8.24-6.58,11.25-1.58,2.24-.64,2.75,1.99.85,3.36-2.41,7.09-7.39,10.18-10.87.26.23.81.43,1.5.56.73.14,1.63.21,2.55.18-10.18,7.06-14.35,14.15-14.84,24.02Z"/>
            <path class="cls-34" d="m421.16,78.28c.73-.25,1.25-1.36,1.67-3.12.77-3.26-.37-6.72-1.08-9.6.68.3,1.21.46,1.72.45,1.12,8.03.51,12.45-2.3,12.27Z"/>
            <path class="cls-34" d="m433.57,66.46c-.85,8.07-2.53,12.17-5.2,11.5.7-.09,1.44-.83,2.16-2.23,1.56-3.06,1.82-6.47,1.61-9.76.56.4.99.54,1.44.49Z"/>
            <path class="cls-34" d="m445.59,65.41c-3.34,7.56-6.74,12.79-10.3,12.63,0,0,0,0,0-.03.97-.03,2.29-.8,3.57-2.31,2.37-2.78,4.44-7.36,5.61-10.91.33.34.67.54,1.1.63Z"/>
            <path class="cls-34" d="m423.31,116.32c-1.14-.23-2.52-.19-3.72.11-.62.15-1.27.15-1.86-.08-1.59-.63-4.47-.06-7.18.19-.52.05-.76-.64-.32-.92,3.7-2.38,6.1-4.73,6.79-9.87.47-3.5.82-9.76.67-15.05-.26-8.83-1.41-17.01-12.41-22.42,1.28.1,2.11.05,2.76-.24,8.2,4.74,13.12,13.3,12.4,30.15-.21,4.83.62,3.51,1.36,2-.67,6.49-.92,11.68,1.15,9.5-.13,2.56,0,4.76.36,6.63Z"/>
            <path class="cls-12" d="m442.02,91.33c-.18,3.61.19,6.79.85,11.05.84,5.5,3.26,10.45,6.42,13.5.43.41.07,1.13-.52,1.02-2.98-.53-6.23-1.38-8.03-.69-.71.27-1.48.29-2.19.03-.8-.29-1.56-.44-2.29-.44.18-2.1.13-4.89-.21-8.49.87,3.32,3.35,6.65,1.54-8.57,1.22,4.71,2.06,3.47,2-1.31-.15-11.66,4.46-21.97,14.73-30.3.73.14,1.63.21,2.55.18-10.18,7.06-14.35,14.15-14.84,24.02Z"/>
          </g>
          <g>
            <path class="cls-23" d="m443.98,16.39c0,5.31-4.3,9.6-9.61,9.6-3.11,0-5.87-1.48-7.62-3.77-1.33.69-2.83,1.08-4.42,1.08-.44,0-.87-.04-1.29-.1-.28,5.06-4.45,9.07-9.58,9.07s-9.6-4.3-9.6-9.61,4.3-9.6,9.6-9.6c.44,0,.87.04,1.29.1.25-4.62,3.75-8.37,8.26-8.98.43-.06.87-.09,1.32-.09.78,0,1.54.1,2.27.27,2.16.53,4.04,1.79,5.35,3.5,1.32-.69,2.82-1.08,4.42-1.08,4.72,0,8.64,3.4,9.45,7.88h0c.1.56.15,1.13.15,1.72Z"/>
            <path class="cls-15" d="m421.03,23.21c-.28,5.06-4.45,9.07-9.58,9.07s-9.6-4.3-9.6-9.61,4.3-9.6,9.6-9.6c.44,0,.87.04,1.29.1.25-4.62,3.75-8.37,8.26-8.98-5.19,2.45-6.47,9.16-2.84,10-3.91,1.75-3.21,5.83-.42,5.37-1.26,3.87.69,6.03,3.29,3.65Z"/>
            <path class="cls-9" d="m443.82,14.67c-1.12-3.06-3.84-5.29-5.14-3.76-.86-1.96-4.02-2.54-6.11-.49.15-1.84-2.36-1.79-4.88.49.58-2.45-.3-4.66-3.09-6.54,2.16.53,4.04,1.79,5.35,3.5,1.32-.69,2.82-1.08,4.42-1.08,4.72,0,8.64,3.4,9.45,7.88Z"/>
          </g>
          <g>
            <path class="cls-16" d="m470.16,31.88c0,2.48-1.51,4.6-3.67,5.49h0c0,5.32-4.3,9.61-9.6,9.61-.23,0-.44-.02-.67-.03-1.64,1.3-3.7,2.07-5.95,2.07-2.97,0-5.62-1.35-7.38-3.46-1.46.9-3.18,1.42-5.02,1.42-5.3,0-9.6-4.3-9.6-9.6,0-.42.04-.84.09-1.24-4.67-.65-8.27-4.65-8.27-9.5,0-5.3,4.3-9.6,9.6-9.6.78,0,1.53.1,2.26.28,0-.09-.01-.18-.01-.28,0-3.28,2.66-5.94,5.93-5.94,1.69,0,3.21.71,4.29,1.84,1.75-1.83,4.21-2.97,6.93-2.97,3.72,0,6.93,2.11,8.53,5.2,5.14.19,9.25,4.4,9.25,9.59,0,.6-.06,1.18-.17,1.75,2.03.95,3.45,3,3.45,5.39Z"/>
            <path class="cls-20" d="m470.16,31.88c0,2.48-1.51,4.6-3.67,5.49h0c0,5.32-4.3,9.61-9.6,9.61-.23,0-.44-.02-.67-.03-1.64,1.3-3.7,2.07-5.95,2.07-2.97,0-5.62-1.35-7.38-3.46-1.46.9-3.18,1.42-5.02,1.42-5.3,0-9.6-4.3-9.6-9.6,0-.42.04-.84.09-1.24-4.67-.65-8.27-4.65-8.27-9.5,0-5.3,4.3-9.6,9.6-9.6.78,0,1.53.1,2.26.28-7.17,1.99-6.2,10.59-2.07,8.29-.39,4.39,3.3,7.56,5.96,4.5,2.14,6.17,8.19,6.88,10.88,2.72,1.75,2.93,6.43,3.43,9.21-.73.89,3.29,4.73,2.88,5.75-.44,1.31,2.9,4.26,1.96,2.41-3.32,2.43,1.99,3.71.44,2.62-1.82,2.03.95,3.45,3,3.45,5.39Z"/>
            <path class="cls-18" d="m466.88,24.74c-1-3.52-3.65-5.52-5.03-3.23-.99-2.15-2.97-2.99-6.33-1.99.39-2.98-1.94-4.24-5.28-3.09,1.12-4.16-3.64-5.67-8.07-3.51,1.75-1.83,4.21-2.97,6.93-2.97,3.72,0,6.93,2.11,8.53,5.2,5.14.19,9.25,4.4,9.25,9.59Z"/>
          </g>
          <g>
            <path class="cls-33" d="m472.4,60.74c.16.55.24,1.12.24,1.72,0,3.5-2.84,6.34-6.34,6.34-.57,0-1.13-.08-1.66-.23-.64,2.83-3.16,4.94-6.18,4.94-1.73,0-3.3-.69-4.44-1.81-1.66,1.14-3.66,1.81-5.82,1.81-3.51,0-6.61-1.77-8.45-4.45-5.01-.54-8.94-4.68-9.14-9.78h0c0-.13,0-.27,0-.41,0-2.29.76-4.4,2.03-6.11-.34-.6-.58-1.26-.71-1.95-.07-.38-.11-.76-.11-1.15,0-3.5,2.84-6.34,6.34-6.34.72,0,1.39.12,2.03.34,1.07-1.98,3.17-3.34,5.59-3.34,1.59,0,3.04.59,4.16,1.56,1.57-.98,3.42-1.56,5.42-1.56,2.53,0,4.85.93,6.63,2.44.13,0,.26-.02.39-.02,5.67,0,10.26,4.59,10.26,10.26,0,1.97-.56,3.79-1.52,5.35.59.69,1.03,1.5,1.28,2.4Z"/>
            <path class="cls-39" d="m472.63,52.99c-.78-3.01-2.72-5.08-3.58-3.62-1.75-3.91-6.82-6.11-9.09-3.35-2.61-3.17-6.86-2.76-8.36,0-4.72-3.06-9.22-1.49-11.61,2.38-2.94-2.2-6.07-1.23-8.09,2.4-.07-.38-.11-.76-.11-1.15,0-3.5,2.84-6.34,6.34-6.34.72,0,1.39.12,2.03.34,1.07-1.98,3.17-3.34,5.59-3.34,1.59,0,3.04.59,4.16,1.56,1.57-.98,3.42-1.56,5.42-1.56,2.53,0,4.85.93,6.63,2.44.13,0,.26-.02.39-.02,5.67,0,10.26,4.59,10.26,10.26Z"/>
            <path class="cls-19" d="m472.63,62.45c0,3.5-2.84,6.34-6.34,6.34-.57,0-1.13-.08-1.66-.23-.64,2.83-3.16,4.94-6.18,4.94-1.73,0-3.3-.69-4.44-1.81-1.66,1.14-3.66,1.81-5.82,1.81-3.51,0-6.61-1.77-8.45-4.45-5.01-.54-8.94-4.68-9.14-9.78,1.91,3.9,6.77,6.75,10.22,3.72.69,2.69,4.15,3.56,7.53,2.01,1.43,3.05,5.4,3.08,7.52-.38.75,2.87,3.97,2.53,6.11-.45,2.21,2.03,5.79.97,7.15-2.68.57,2.56,2.94,1.72,3.26-.76.16.55.24,1.12.24,1.72Z"/>
          </g>
          <g>
            <path class="cls-31" d="m431.96,37.96c0,.09,0,.18,0,.27-.14,3.15-2.74,5.67-5.93,5.67-.36,0-.7-.04-1.04-.1-.88,4.4-4.76,7.71-9.42,7.71-.18,0-.35-.02-.53-.03-1.68,2.8-4.73,4.67-8.23,4.67-2.03,0-3.91-.64-5.46-1.71-1.73,2.52-4.63,4.17-7.92,4.17-5.31,0-9.6-4.3-9.6-9.61,0-2.2.75-4.23,2-5.85-.84-1.03-1.34-2.33-1.34-3.76,0-2.68,1.77-4.94,4.21-5.68.24-3.69,2.54-6.81,5.77-8.2,1.17-.51,2.45-.79,3.81-.79.14,0,.27.02.4.02.85-2.23,3.01-3.81,5.54-3.81,1.36,0,2.61.46,3.61,1.23.97-.33,2-.51,3.08-.51,3.26,0,6.12,1.62,7.86,4.09.55-.17,1.14-.26,1.75-.26,3.28,0,5.94,2.66,5.94,5.94,0,.21-.01.41-.03.61,3.1.2,5.55,2.77,5.55,5.92Z"/>
            <path class="cls-49" d="m431.96,38.23c-.14,3.15-2.74,5.67-5.93,5.67-.36,0-.7-.04-1.04-.1-.88,4.4-4.76,7.71-9.42,7.71-.18,0-.35-.02-.53-.03-1.68,2.8-4.73,4.67-8.23,4.67-2.03,0-3.91-.64-5.46-1.71-1.73,2.52-4.63,4.17-7.92,4.17-5.31,0-9.6-4.3-9.6-9.61,0-2.2.75-4.23,2-5.85-.84-1.03-1.34-2.33-1.34-3.76,0-2.68,1.77-4.94,4.21-5.68.24-3.69,2.54-6.81,5.77-8.2-4.02,4.53-3.42,10.36,0,9.06-2.13,5.91.8,8.74,3.38,5.2.92,4.53,5.79,6.08,7.25,1.5,2.04,4.92,8.68,4.92,11.44,1.05,2.74,1.88,8.18.73,8.86-2.54,2.08,1.9,4.85,1.04,6.57-1.56Z"/>
            <path class="cls-48" d="m426.44,31.43c0,.21-.01.41-.03.61-.89-2.34-2.98-4.57-5.05-3.89-1.03-1.34-2.57-2-4.08-1.41-2.01-3.03-5.57-4.21-8.05-2.57-1.19-1.48-3.73-1.32-5.29,0-.92-1.65-3.31-1.1-5.27.59.85-2.23,3.01-3.81,5.54-3.81,1.36,0,2.61.46,3.61,1.23.97-.33,2-.51,3.08-.51,3.26,0,6.12,1.62,7.86,4.09.55-.17,1.14-.26,1.75-.26,3.28,0,5.94,2.66,5.94,5.94Z"/>
          </g>
          <g>
            <path class="cls-5" d="m412.31,64.08c0,.57-.05,1.13-.15,1.67-.79,4.51-4.72,7.93-9.46,7.93-1.9,0-3.67-.56-5.17-1.52-1.09,1.23-2.67,2-4.44,2-1.95,0-3.67-.94-4.75-2.39-.39.08-.78.12-1.19.12-3.28,0-5.93-2.66-5.93-5.93,0-1.4.49-2.69,1.31-3.7.54-.68,1.22-1.23,2-1.62-.03-.24-.05-.49-.05-.75,0-1.07.28-2.08.78-2.94,1.02-1.79,2.95-2.99,5.15-2.99.15,0,.31,0,.46.02,1.44-3.49,4.87-5.96,8.89-5.96,3.39,0,6.35,1.75,8.06,4.4.89,1.38,1.43,2.99,1.52,4.73,1.82,1.75,2.96,4.2,2.96,6.93Z"/>
            <path class="cls-18" d="m407.83,52.43c-3.63-2.85-8.23-3.22-9.44.8-1.84-2.03-4.94-.73-6.98,2.5-1.55-1.05-4.01-.63-6.15,1.24,1.02-1.79,2.95-2.99,5.15-2.99.15,0,.31,0,.46.02,1.44-3.49,4.87-5.96,8.89-5.96,3.39,0,6.35,1.75,8.06,4.4Z"/>
            <path class="cls-29" d="m412.16,65.76c-.79,4.51-4.72,7.93-9.46,7.93-1.9,0-3.67-.56-5.17-1.52-1.09,1.23-2.67,2-4.44,2-1.95,0-3.67-.94-4.75-2.39-.39.08-.78.12-1.19.12-3.28,0-5.93-2.66-5.93-5.93,0-1.4.49-2.69,1.31-3.7.09,3.99,3.65,6.06,7.56,4.33,1.39,2.8,5.37,3.16,7.85,0,1.89,2.22,5.29,2.56,7.57,0,1.91,1.83,4.89,1.41,6.66-.85Z"/>
          </g>
          <g>
            <path class="cls-24" d="m441.23,57.34c.41.83.64,1.76.64,2.75,0,3.48-2.82,6.3-6.3,6.3-.26,0-.52-.03-.78-.05-1.53,3.68-5.17,6.28-9.41,6.28-2.8,0-5.34-1.13-7.18-2.96-.63.12-1.28.19-1.94.19-5.32,0-9.68-4.08-10.14-9.28-2.88-.58-5.04-3.13-5.04-6.17,0-1.88.82-3.57,2.13-4.72.8-.71,1.78-1.21,2.87-1.44,0-.05,0-.09,0-.14,0-.49.03-.97.1-1.44.69-4.94,4.95-8.75,10.09-8.75.51,0,1,.05,1.49.12,1.83-1.74,4.29-2.82,7.01-2.82,3.8,0,7.11,2.08,8.86,5.17,2.67.37,4.81,2.41,5.31,5.05,3.24.26,5.8,2.96,5.8,6.27,0,2.47-1.43,4.6-3.5,5.64Z"/>
            <path class="cls-9" d="m438.94,45.42c-1.06-2.01-2.69-2.99-3.42-1.6-1.01-2.26-3.73-3.21-4.93-1.18-1.23-2.88-5.55-3.56-7.68,0-2.13-2.46-6.32-2.3-8.3,0-2.67-2.03-6.38-.18-8.42,4.01.69-4.94,4.95-8.75,10.09-8.75.51,0,1,.05,1.49.12,1.83-1.74,4.29-2.82,7.01-2.82,3.8,0,7.11,2.08,8.86,5.17,2.67.37,4.81,2.41,5.31,5.05Z"/>
            <path class="cls-15" d="m441.87,60.09c0,3.48-2.82,6.3-6.3,6.3-.26,0-.52-.03-.78-.05-1.53,3.68-5.17,6.28-9.41,6.28-2.8,0-5.34-1.13-7.18-2.96-.63.12-1.28.19-1.94.19-5.32,0-9.68-4.08-10.14-9.28-2.88-.58-5.04-3.13-5.04-6.17,0-1.88.82-3.57,2.13-4.72-1.35,6.11,2.36,9.54,5.35,6.49,1.81,5.94,5.91,7.47,8.58,4.79,2.48,3.73,6.91,4.19,10.81.78,2.22,2.12,4.75,2.5,7.81,0,2.55,1.14,4.81-.59,5.46-4.39.41.83.64,1.76.64,2.75Z"/>
          </g>
        </g>
        <g>
          <path class="cls-33" d="m93.64,68.24c0-4.38-3.55-7.92-7.92-7.92-2.78,0-5.23,1.44-6.64,3.61-1.42.35-2.69,1.07-3.69,2.06-.32-.04-.65-.07-.99-.07-.55,0-1.09.06-1.61.16-.77-.41-1.62-.68-2.51-.82-1.37-2.35-3.92-3.94-6.84-3.94-4.38,0-7.92,3.55-7.92,7.92,0,3.97,2.93,7.25,6.74,7.83,1.37,2.35,3.92,3.94,6.84,3.94.55,0,1.09-.06,1.61-.16,1.1.58,2.36.92,3.7.92,2.17,0,4.14-.88,5.57-2.29.32.04.65.07.99.07,2.78,0,5.23-1.44,6.64-3.61,3.47-.85,6.04-3.96,6.04-7.69Z"/>
          <g>
            <path class="cls-13" d="m83.71,72.34c-1.06,1.99-2.52,3.84-4.4,5.55h0c-3.65,3.34-3.57,2.65-3.7,6.55.64,3.43,1.56,6.41,2.83,9.44.09.22-.1.45-.33.4-.82-.18-1.64-.48-2.2-.22-.02,0-.03.02-.05.03-.2.11-.44.13-.64.03-.54-.27-1.4-.3-1.93-.02-.22.12-.48.12-.71.01-.7-.35-1.49-.34-2.16,0-.23.12-.5.13-.73,0-.1-.06-.19-.1-.28-.14-.74-.29-1.41.05-2.3.21-.22.04-.4-.19-.32-.39,1.15-3.01,1.97-6.39,2.52-10.84.19-1.56-.71-2.69-1.26-3.07-2.61-1.82-4.5-3.89-5.72-6.18l.73.22.9.27c1.09,1.6,2.3,2.76,4.04,3.91-.89-1.95-2.02-3.58-3.75-5.31l.72-.39.83-.45c1.54,1.63,2.87,3.38,3.99,5.67.23-3.53.34-7.63.36-12.51h4.22c-.02,4.51.07,8.31.3,11.63,0,0,0,0,0-.01,1.04-2.69,2.25-5.14,3.68-7.3h1.98c-1.68,2.37-2.98,5.3-3.79,8.47,2.23-1.45,3.77-2.92,5.15-4.94l.83-.25,1.2-.36Z"/>
            <path class="cls-11" d="m69.4,93.98c-.74-.29-1.41.05-2.3.21-.22.04-.38-.18-.32-.39,5.32-17.24.21-11.32-4.46-20.1l.73.22c4.45,8.71,8.98.84,6.34,20.07Z"/>
            <path class="cls-11" d="m71.42,65.1c-.17,4.68-.73,8.83-1.64,12.51.23-3.53.34-7.63.36-12.51h1.28Z"/>
            <path class="cls-11" d="m68,78.09c-.89-1.95-2.02-3.58-3.75-5.31l.72-.39c1.37,1.8,2.41,3.69,3.03,5.7Z"/>
            <path class="cls-11" d="m79.19,69.42c-1.52,2-3.02,4.52-4.52,7.3,1.04-2.69,2.25-5.14,3.68-7.3h.84Z"/>
            <path class="cls-11" d="m82.52,72.7c-1.8,2.49-3.69,4.61-5.98,5.19,2.23-1.45,3.77-2.92,5.15-4.94l.83-.25Z"/>
            <path class="cls-46" d="m78.43,93.88c.08.22-.1.45-.33.4-.82-.18-1.64-.48-2.2-.22-2.14-12.62-.78-13.16,3.4-16.17-2.58,2.36-5.36,3.86-.87,15.99Z"/>
          </g>
          <g>
            <path class="cls-24" d="m89.33,39.23c0,4.38-3.55,7.92-7.92,7.92-2.67,0-5.03-1.32-6.46-3.34-.91-1.29-1.46-2.85-1.46-4.54-.36-.33-.69-.68-.99-1.07-.98,3.27-4,5.65-7.59,5.65-4.38,0-7.93-3.55-7.93-7.92,0-3.16,1.86-5.88,4.53-7.15-.23-.74-.36-1.53-.36-2.35,0-2.73,1.39-5.14,3.5-6.57-.05-.36-.09-.73-.09-1.1,0-3.49,2.26-6.46,5.4-7.51h0c.79-.27,1.64-.41,2.52-.41.42,0,.84.03,1.24.1,3.79.59,6.68,3.87,6.68,7.82,0,.17-.02.34-.03.52,1.9,1.45,3.13,3.72,3.13,6.3,0,.47-.05.93-.13,1.38,1.99,1.43,3.29,3.76,3.3,6.39,0,0,0,0,.02.02,1.6,1.45,2.62,3.54,2.62,5.88Z"/>
            <path class="cls-15" d="m77.42,41.63l-2.47,2.18c-.91-1.29-1.46-2.85-1.46-4.54-.36-.33-.69-.68-.99-1.07-.98,3.27-4,5.65-7.59,5.65-4.38,0-7.93-3.55-7.93-7.92,0-3.16,1.86-5.88,4.53-7.15-.23-.74-.36-1.53-.36-2.35,0-2.73,1.39-5.14,3.5-6.57-.05-.36-.09-.73-.09-1.1,0-3.49,2.26-6.46,5.4-7.51-3.78,3.78-3.52,8.07-1.14,9.04-2.87,2.97-2.42,6.87.57,6.19-1.92,6.13.46,10.58,4.21,8.84.04,3.25,1.18,5.48,3.8,6.32Z"/>
            <path class="cls-26" d="m86.7,33.34c-.49-1.19-1.56-2.17-3.02-1.71.64-1.45.06-3.17-1.35-3.55,0-1.93-.91-3.27-3.1-3.29,1.46-1.85.66-3.73-1.35-4.06,1.29-3.6-.08-6.87-4.13-9.8,3.79.59,6.68,3.87,6.68,7.82,0,.17-.02.34-.03.52,1.9,1.45,3.13,3.72,3.13,6.3,0,.47-.05.93-.13,1.38,1.99,1.43,3.29,3.76,3.3,6.39Z"/>
          </g>
          <g>
            <path class="cls-31" d="m94.63,55.43c0,2.15-.85,4.09-2.24,5.52-1.44,1.49-3.46,2.41-5.69,2.41-1.56,0-3.01-.45-4.24-1.23-2.22-1.41-3.69-3.88-3.69-6.7,0-.49.05-.97.14-1.43-.8-.76-1.43-1.69-1.86-2.72-1.44,1.49-3.46,2.42-5.7,2.42-1.27,0-2.46-.3-3.53-.83-.28.44-.6.85-.96,1.22.04.33.07.65.07.99,0,4.38-3.55,7.93-7.92,7.93s-7.93-3.55-7.93-7.93c0-2.13.85-4.06,2.22-5.48-.04-.33-.07-.65-.07-.99,0-2.84,1.5-5.33,3.75-6.73,0-.02,0-.05,0-.07,0-4.37,3.55-7.92,7.93-7.92.27,0,.54.02.81.04.96-2.3,2.97-4.04,5.42-4.65.61-.15,1.24-.23,1.89-.23.88,0,1.72.14,2.51.41h0c2.26.75,4.05,2.49,4.89,4.7,3.51.47,6.28,3.23,6.78,6.73,2.98,1.13,5.11,4.01,5.11,7.4,0,.49-.05.97-.14,1.43,1.51,1.44,2.45,3.47,2.45,5.72Z"/>
            <path class="cls-49" d="m82.46,62.13c-2.22-1.41-3.69-3.88-3.69-6.7,0-.49.05-.97.14-1.43-.8-.76-1.43-1.69-1.86-2.72-1.44,1.49-3.46,2.42-5.7,2.42-1.27,0-2.46-.3-3.53-.83-.28.44-.6.85-.96,1.22.04.33.07.65.07.99,0,4.38-3.55,7.93-7.92,7.93s-7.93-3.55-7.93-7.93c0-2.13.85-4.06,2.22-5.48-.04-.33-.07-.65-.07-.99,0-2.84,1.5-5.33,3.75-6.73,0-.02,0-.05,0-.07,0-4.37,3.55-7.92,7.93-7.92.27,0,.54.02.81.04.96-2.3,2.97-4.04,5.42-4.65-4.05,2.65-4.46,7.62-2.04,7.87-3.84,5.03-2.94,10.26,1.02,9.05-.02,3.04,2.27,4.59,5.27,1.98.94,2.58,4.9,3.39,7.71,2.29-2.26,3.4-2.23,7.35-.63,11.66Z"/>
            <path class="cls-48" d="m94.63,55.43c0,2.15-.85,4.09-2.24,5.52,1.07-4.95-1.74-8-4.97-8.48,1.15-1,1.49-3.9-.45-5.87,1.02-1.4-.86-3.36-3.1-3.48,2.45-1.87.26-6.03-4.26-7.55-.52-2.89-1.97-4.83-4.07-6.11,2.26.75,4.05,2.49,4.89,4.7,3.51.47,6.28,3.23,6.78,6.73,2.98,1.13,5.11,4.01,5.11,7.4,0,.49-.05.97-.14,1.43,1.51,1.44,2.45,3.47,2.45,5.72Z"/>
          </g>
          <g>
            <path class="cls-6" d="m74.86,67.56c0,.32-.02.63-.06.93-.46,3.94-3.8,6.99-7.87,6.99-1.35,0-2.63-.34-3.75-.94-1.26.84-2.78,1.34-4.41,1.34-4.38,0-7.92-3.55-7.92-7.92,0-.77.12-1.52.32-2.22-.62-1.13-.97-2.43-.97-3.8,0-2.45,1.12-4.65,2.88-6.1,1.03-3.19,4.01-5.49,7.54-5.49.94,0,1.83.17,2.67.47,1.09-.56,2.32-.89,3.63-.89,4.38,0,7.92,3.55,7.92,7.93,0,1.82-.62,3.5-1.66,4.84,1.05,1.34,1.68,3.03,1.68,4.87Z"/>
            <path class="cls-40" d="m74.8,68.49c-.46,3.94-3.8,6.99-7.87,6.99-1.35,0-2.63-.34-3.75-.94-1.26.84-2.78,1.34-4.41,1.34-4.38,0-7.92-3.55-7.92-7.92,0-.77.12-1.52.32-2.22-.62-1.13-.97-2.43-.97-3.8,0-2.45,1.12-4.65,2.88-6.1-3.03,5.15-.7,10.03,1.82,9.27-.84,4.56,3.13,8.5,5.68,4.92,1.58,2.19,5.03,3.06,6.65,1.29,1.93,1.81,5.77,1.13,7.58-2.81Z"/>
          </g>
          <g>
            <path class="cls-24" d="m96.89,65.4c0,4.44-3.6,8.04-8.04,8.04-.11,0-.21-.01-.32-.02-1.39,2.42-3.98,4.04-6.97,4.04-2.42,0-4.58-1.07-6.05-2.76-4.35-.1-7.85-3.65-7.85-8.02,0-1.2.27-2.33.74-3.34-.47-1.02-.74-2.15-.74-3.34,0-2.75,1.38-5.18,3.49-6.62,1.26-.87,2.78-1.38,4.42-1.41,1.47-1.92,3.78-3.17,6.38-3.17,2.26,0,4.3.94,5.77,2.45,4.27.19,7.67,3.7,7.67,8.02,0,.46-.05.91-.12,1.35,1,1.34,1.6,3,1.6,4.8Z"/>
            <path class="cls-15" d="m96.89,65.4c0,4.44-3.6,8.04-8.04,8.04-.11,0-.21-.01-.32-.02-1.39,2.42-3.98,4.04-6.97,4.04-2.42,0-4.58-1.07-6.05-2.76-4.35-.1-7.85-3.65-7.85-8.02,0-1.2.27-2.33.74-3.34-.47-1.02-.74-2.15-.74-3.34,0-2.75,1.38-5.18,3.49-6.62-3.49,3.27-1.62,11.8,2.51,10.89-1.06,4.68,3,7.13,5.55,4.64,2.51,2.9,6.74,2.68,8.71-1.42,2,3.22,5.61,1.39,4.97-4.36,1.31,2.85,2.9.93,2.39-2.53,1,1.34,1.6,3,1.6,4.8Z"/>
          </g>
        </g>
        <g>
          <path class="cls-38" d="m362.46,85.7c0-2.19-1.77-3.96-3.96-3.96-.73,0-1.42.2-2.01.55-.85-2.55-3.24-4.39-6.08-4.39s-5.37,1.94-6.15,4.6c-.06,0-.11,0-.17,0-2.19,0-3.96,1.77-3.96,3.96s1.77,3.96,3.96,3.96c.25,0,.49-.03.73-.07,1.1,1.95,3.19,3.28,5.59,3.28,1.81,0,3.43-.75,4.6-1.95.07,0,.13.01.2.01,1.49,0,2.78-.82,3.46-2.03,2.11-.09,3.79-1.82,3.79-3.95Z"/>
          <g>
            <path class="cls-13" d="m361.7,83.4c-1.38.9-3.13,2.76-4.47,4.58-.59.79-1.09,1.58-1.45,2.27-4.27,8.2-3.49,21.09,1.23,26.76.31.38,0,.93-.48.85-1.3-.24-2.16-.42-3.1-.04-.17.07-.33.15-.51.25-.25.15-.58.17-.83.02-1-.58-2.45-.61-3.31-.04-.31.2-.71.21-1-.03-1.32-1.08-2.45-.55-4.17-.34-.29.03-.46-.31-.25-.51,4.2-4.06,6.13-18.54,1.4-27.47-1.06-2-4.26-5.62-6.04-6.89.95.19,1.73-.05,2.21-.44,1.32,2.15,4.37,5.36,5.39,5.93.26.14.5.19.75.16,1.82-.22,3.02-5.09,1.82-9.04.38.21.81.3,1.27.29.43,0,.89-.11,1.38-.29-.58,3.79-.15,8.78,1.75,9.01.28.03.59-.03.93-.22,1.18-.64,3.81-3.38,5.51-5.69.09.2.31.41.6.57.39.21.89.35,1.37.31Z"/>
            <path class="cls-11" d="m346.22,117.38c-.77-.06-1.59.18-2.63.3-.29.03-.46-.31-.25-.51,4.2-4.06,6.13-18.54,1.4-27.47-1.06-2-4.26-5.62-6.04-6.89.4.08.77.08,1.1.03,1.87,1.48,4.91,4.98,5.98,6.96,4.68,8.64,3.81,22.26.43,27.58Z"/>
            <path class="cls-11" d="m350.15,79.71c.1,5.8-.91,8.77-3.09,8.74,1.82-.22,3.02-5.09,1.82-9.04.38.21.81.3,1.27.29Z"/>
            <path class="cls-11" d="m360.33,83.09c-3.03,3.53-5.59,5.86-7.05,5.36,0,0,0,0,0-.03.28.03.59-.03.93-.22,1.18-.64,3.81-3.38,5.51-5.69.09.2.31.41.6.57Z"/>
            <path class="cls-46" d="m357,117.01c.31.38,0,.93-.48.85-1.3-.24-2.16-.42-3.1-.04-2.19-13.69-1.73-24.96,3.81-29.84-.59.79-1.09,1.58-1.45,2.27-4.27,8.2-3.49,21.09,1.23,26.76Z"/>
          </g>
          <g>
            <path class="cls-8" d="m373.33,69.5c0,3.4-2.75,6.15-6.15,6.15-1.23,0-2.37-.36-3.33-.98-.83.41-1.76.65-2.75.65-.65,0-1.27-.1-1.86-.29-1.01.72-2.24,1.15-3.57,1.15-2.1,0-3.96-1.05-5.07-2.66-1.01.73-2.25,1.16-3.6,1.16-1.73,0-3.3-.72-4.42-1.87-.87.47-1.87.74-2.93.74-2.3,0-4.3-1.26-5.36-3.12-.5.24-1.07.39-1.67.39-2.1,0-3.8-1.7-3.8-3.8,0-1.19.54-2.24,1.39-2.94-.1-.44-.15-.88-.15-1.35,0-2.67,1.7-4.93,4.08-5.78-.21-.62-.33-1.28-.33-1.98,0-2.99,2.14-5.48,4.96-6.03.5-1.52,1.93-2.62,3.61-2.62.4,0,.77.06,1.13.17.94-2.19,3.12-3.73,5.66-3.73.48,0,.94.06,1.39.16h0c1.15.26,2.17.85,2.98,1.66.62-.43,1.37-.69,2.18-.69,1.66,0,3.07,1.07,3.59,2.56.25-.03.51-.05.78-.05,3.18,0,5.8,2.42,6.12,5.52,2.29.9,3.91,3.12,3.91,5.73,0,.25-.02.5-.05.74.73.57,1.32,1.29,1.73,2.13.4.82.63,1.74.63,2.72,0,.85-.18,1.66-.49,2.4.86,1.06,1.38,2.41,1.38,3.88Z"/>
            <path class="cls-32" d="m373.33,69.5c0,3.4-2.75,6.15-6.15,6.15-1.23,0-2.37-.36-3.33-.98-.83.41-1.76.65-2.75.65-.65,0-1.27-.1-1.86-.29-1.01.72-2.24,1.15-3.57,1.15-2.1,0-3.96-1.05-5.07-2.66-1.01.73-2.25,1.16-3.6,1.16-1.73,0-3.3-.72-4.42-1.87-.87.47-1.87.74-2.93.74-2.3,0-4.3-1.26-5.36-3.12-.5.24-1.07.39-1.67.39-2.1,0-3.8-1.7-3.8-3.8,0-1.19.54-2.24,1.39-2.94-.1-.44-.15-.88-.15-1.35,0-2.67,1.7-4.93,4.08-5.78-.21-.62-.33-1.28-.33-1.98,0-2.99,2.14-5.48,4.96-6.03.5-1.52,1.93-2.62,3.61-2.62.4,0,.77.06,1.13.17-1.28,3.01.29,5.73,1.65,4.32-1.33,5.09.6,8.66,2.12,6.58-.07,2.52,1.91,4.44,2.59,3.37.7,2.13,3.17,2.76,4.66,1.07,2.16,2.12,5.51,2.14,8.14.5,2.09,2.43,7.11,2,9.13-1.83.4.82.63,1.74.63,2.72,0,.85-.18,1.66-.49,2.4.86,1.06,1.38,2.41,1.38,3.88Z"/>
            <path class="cls-27" d="m370.12,57.64c0,.25-.02.5-.05.74-.87-3.08-3.17-4.47-4.28-2.78-.08-2.43-1.43-3.02-2.59-2.27-.63-4.47-3.08-5.35-4.31-3.68-1.45-3.31-3.7-4.19-4.94-1.8-.35-2.61-1.67-4-3.38-4.91,1.15.26,2.17.85,2.98,1.66.62-.43,1.37-.69,2.18-.69,1.66,0,3.07,1.07,3.59,2.56.25-.03.51-.05.78-.05,3.18,0,5.8,2.42,6.12,5.52,2.29.9,3.91,3.12,3.91,5.73Z"/>
          </g>
          <g>
            <path class="cls-28" d="m375.15,78.94c0,2.63-1.54,4.9-3.77,5.96-.54,1.63-2.07,2.81-3.88,2.81-.56,0-1.09-.11-1.58-.32-1.09.8-2.44,1.28-3.89,1.28-2.49,0-4.66-1.38-5.79-3.42-3.38-.29-6.04-3.13-6.04-6.58,0-1.09.27-2.13.74-3.03.19-.38.43-.73.69-1.06-.24-.46-.4-.98-.45-1.53-.01-.12-.02-.24-.02-.37,0-2.25,1.83-4.09,4.09-4.09.14,0,.28,0,.42.02,1.17-1.84,3.23-3.07,5.57-3.07,1.6,0,3.07.57,4.21,1.51.6-.35,1.3-.56,2.05-.56,2.05,0,3.75,1.52,4.04,3.5,1.41.64,2.39,2.06,2.39,3.72,0,.4-.06.8-.17,1.17.58.75,1.01,1.62,1.22,2.57.11.47.17.97.17,1.48Z"/>
            <path class="cls-37" d="m373.93,73.72c0,.4-.06.8-.17,1.17-.31-2.43-2.78-3.56-2.84-1.78-1.71-4.2-5.19-5.08-6.43-2.55-2.02-2.77-5.89-2.45-7.41.71-2.19-1.55-4.49-.39-5.9,1.78-.01-.12-.02-.24-.02-.37,0-2.25,1.83-4.09,4.09-4.09.14,0,.28,0,.42.02,1.17-1.84,3.23-3.07,5.57-3.07,1.6,0,3.07.57,4.21,1.51.6-.35,1.3-.56,2.05-.56,2.05,0,3.75,1.52,4.04,3.5,1.41.64,2.39,2.06,2.39,3.72Z"/>
            <path class="cls-21" d="m375.15,78.94c0,2.63-1.54,4.9-3.77,5.96-.54,1.63-2.07,2.81-3.88,2.81-.56,0-1.09-.11-1.58-.32-1.09.8-2.44,1.28-3.89,1.28-2.49,0-4.66-1.38-5.79-3.42-3.38-.29-6.04-3.13-6.04-6.58,0-1.09.27-2.13.74-3.03.48,4.46,3.91,6.83,5.63,4.75,1,3.23,3.9,4.51,6.1,2.31,1.8,2.08,5.34,1.84,6.87-1.37.65,1.88,3.04,1,3.76-1.92.58.96,1.54.07,1.67-1.95.11.47.17.97.17,1.48Z"/>
          </g>
          <g>
            <path class="cls-10" d="m353.25,74.05c0,.72-.12,1.41-.34,2.06-.41,1.22-1.19,2.27-2.19,3.03-.02,3.47-2.8,6.28-6.26,6.36-.72.97-1.87,1.6-3.18,1.6-.66,0-1.28-.16-1.83-.45-.95.56-2.05.88-3.22.88-3.07,0-5.63-2.16-6.25-5.04-.18.04-.37.07-.57.07-1.35,0-2.45-1.09-2.45-2.45,0-.25.04-.5.11-.73-.95-.34-1.63-1.24-1.63-2.3,0-.79.38-1.5.97-1.94-.29-.55-.46-1.18-.46-1.85s.18-1.33.48-1.88c.15-.28.34-.55.56-.78-.02-.12-.03-.24-.03-.37,0-1.3,1.01-2.35,2.28-2.44.03-.45.18-.87.43-1.22.44-.64,1.17-1.06,2.01-1.06.33,0,.64.07.93.18.98-2.29,3.25-3.89,5.89-3.89,1.85,0,3.51.79,4.68,2.04.5-.23,1.05-.35,1.63-.35,2.19,0,3.96,1.77,3.96,3.96,0,.15,0,.3-.03.45,2.61.81,4.5,3.25,4.5,6.12Z"/>
            <path class="cls-50" d="m353.25,74.05c-.62-2.64-2.06-4.11-3.05-3.67-.46-1.45-2.01-1.79-3.51-1.1-.26-2.88-2.77-4.23-5.17-2.68-1.75-3.6-5.94-3.07-8.18,0-1.23-.83-2.62-.86-3.66,0,.44-.64,1.17-1.06,2.01-1.06.33,0,.64.07.93.18.98-2.29,3.25-3.89,5.89-3.89,1.85,0,3.51.79,4.68,2.04.5-.23,1.05-.35,1.63-.35,2.19,0,3.96,1.77,3.96,3.96,0,.15,0,.3-.03.45,2.61.81,4.5,3.25,4.5,6.12Z"/>
            <path class="cls-22" d="m352.91,76.11c-.41,1.22-1.19,2.27-2.19,3.03-.02,3.47-2.8,6.28-6.26,6.36-.72.97-1.87,1.6-3.18,1.6-.66,0-1.28-.16-1.83-.45-.95.56-2.05.88-3.22.88-3.07,0-5.63-2.16-6.25-5.04-.18.04-.37.07-.57.07-1.35,0-2.45-1.09-2.45-2.45,0-.25.04-.5.11-.73-.95-.34-1.63-1.24-1.63-2.3,0-.79.38-1.5.97-1.94-.29-.55-.46-1.18-.46-1.85s.18-1.33.48-1.88h0c-.34,1.73.38,3.27,1.23,2.99-.24,2.6,1.66,4.18,2.61,2.71,1.06,3.3,4.04,4.4,5.43,2.3,1.33,2.35,5.21,2.73,7.26,0,1.71,2.5,4.17,1.45,6.01-2.3,0,2.08,2.43,1.23,3.92-1Z"/>
          </g>
        </g>
        <g>
          <path class="cls-3" d="m439.94,112.32v51.2H14.74v-64.98c5.03-1.42,10.05-2.71,15.1-3.86,12.99-2.95,26.07-5.02,39.24-6.38h.05c9.24-.94,18.52-1.52,27.84-1.79h.05c53.53-1.59,108.06,6.89,162.61,14.93,60.54,8.92,121.1,17.32,180.31,10.88Z"/>
          <path class="cls-2" d="m212.13,98.62c-15.14-1.7-28.63-4.54-25.34-7.25,18.57,2.16,37.21,4.83,55.86,7.58v.03c1.86,2.29-17.12,1.15-30.52-.35Z"/>
        </g>
      </g>
      <g>
        <path class="cls-1" d="m86.74,95.69c-35.97,1.59-74.5,6-67.14-2.25,19.2-3.49,59.57-9.33,135.06-6.01,1.22,5.89-32.2,6.69-67.92,8.26Z"/>
        <path class="cls-1" d="m373.18,121.54c-33.32,0-70.64-6.26-61.56-11.44,37.76,3.3,80.9,5.41,123.11,2.81,9.39,7.21-28.02,8.62-61.55,8.62Z"/>
      </g>
    </g>
    <line class="cls-45" x1="29.25" y1="85.68" x2="32.28" y2="110.15"/>
  </g>
</svg>