<svg xmlns="http://www.w3.org/2000/svg" xmlns:xlink="http://www.w3.org/1999/xlink" viewBox="0 0 589.84 206.22"><defs><style>.cls-1{isolation:isolate;}.cls-10,.cls-11,.cls-12,.cls-13,.cls-14,.cls-15,.cls-16,.cls-17,.cls-18,.cls-19,.cls-2,.cls-20,.cls-21,.cls-22,.cls-23,.cls-4,.cls-5,.cls-6,.cls-7,.cls-8,.cls-9{fill-rule:evenodd;}.cls-2{fill:url(#Áåçûìÿííûé_ãðàäèåíò_169);}.cls-21,.cls-22,.cls-23,.cls-3{opacity:0.2;}.cls-19,.cls-20,.cls-3{mix-blend-mode:screen;}.cls-4{fill:url(#Áåçûìÿííûé_ãðàäèåíò_267);}.cls-5{fill:url(#Áåçûìÿííûé_ãðàäèåíò_267-2);}.cls-6{fill:url(#Áåçûìÿííûé_ãðàäèåíò_267-3);}.cls-7{fill:url(#Áåçûìÿííûé_ãðàäèåíò_267-4);}.cls-8{fill:url(#Áåçûìÿííûé_ãðàäèåíò_267-5);}.cls-9{fill:url(#Áåçûìÿííûé_ãðàäèåíò_267-6);}.cls-10{fill:url(#Áåçûìÿííûé_ãðàäèåíò_267-7);}.cls-11{fill:url(#Áåçûìÿííûé_ãðàäèåíò_267-8);}.cls-12{fill:url(#Áåçûìÿííûé_ãðàäèåíò_267-9);}.cls-13{fill:url(#Áåçûìÿííûé_ãðàäèåíò_267-10);}.cls-14{fill:url(#Áåçûìÿííûé_ãðàäèåíò_267-11);}.cls-15{fill:url(#Áåçûìÿííûé_ãðàäèåíò_267-12);}.cls-16{fill:url(#Áåçûìÿííûé_ãðàäèåíò_267-13);}.cls-17{fill:url(#Áåçûìÿííûé_ãðàäèåíò_267-14);}.cls-18{fill:#a8b4ec;}.cls-19{fill:url(#Áåçûìÿííûé_ãðàäèåíò_123);}.cls-20{fill:url(#Áåçûìÿííûé_ãðàäèåíò_123-2);}.cls-21,.cls-22,.cls-23{mix-blend-mode:multiply;}.cls-21{fill:url(#linear-gradient);}.cls-22{fill:url(#linear-gradient-2);}.cls-23{fill:url(#linear-gradient-3);}</style><linearGradient id="Áåçûìÿííûé_ãðàäèåíò_169" x1="294.92" y1="206.22" x2="294.92" gradientUnits="userSpaceOnUse"><stop offset="0" stop-color="#c6ccf3"/><stop offset="0.26" stop-color="#cfd4f5"/><stop offset="0.67" stop-color="#e7eafa"/><stop offset="1" stop-color="#fff"/></linearGradient><linearGradient id="Áåçûìÿííûé_ãðàäèåíò_267" x1="422.67" y1="194.26" x2="438.21" y2="173.41" gradientUnits="userSpaceOnUse"><stop offset="0" stop-color="#3e0227"/><stop offset="0.14" stop-color="#420327"/><stop offset="0.29" stop-color="#4e0727"/><stop offset="0.43" stop-color="#620d28"/><stop offset="0.58" stop-color="#7e1628"/><stop offset="0.72" stop-color="#a22129"/><stop offset="0.86" stop-color="#ce2e29"/><stop offset="1" stop-color="#ff3d2a"/></linearGradient><linearGradient id="Áåçûìÿííûé_ãðàäèåíò_267-2" x1="408.59" y1="12.04" x2="390.4" y2="213.64" xlink:href="#Áåçûìÿííûé_ãðàäèåíò_267"/><linearGradient id="Áåçûìÿííûé_ãðàäèåíò_267-3" x1="406.86" y1="176.38" x2="424.04" y2="100.59" xlink:href="#Áåçûìÿííûé_ãðàäèåíò_267"/><linearGradient id="Áåçûìÿííûé_ãðàäèåíò_267-4" x1="390.33" y1="12.19" x2="372.14" y2="213.8" xlink:href="#Áåçûìÿííûé_ãðàäèåíò_267"/><linearGradient id="Áåçûìÿííûé_ãðàäèåíò_267-5" x1="414.67" y1="66.9" x2="402.58" y2="200.84" xlink:href="#Áåçûìÿííûé_ãðàäèåíò_267"/><linearGradient id="Áåçûìÿííûé_ãðàäèåíò_267-6" x1="240.88" y1="118.77" x2="229.42" y2="245.83" gradientTransform="translate(-52.6 34.96) rotate(-17.79)" xlink:href="#Áåçûìÿííûé_ãðàäèåíò_267"/><linearGradient id="Áåçûìÿííûé_ãðàäèåíò_267-7" x1="383.13" y1="151.4" x2="369.55" y2="301.95" gradientTransform="matrix(0.62, -0.49, 0.62, 0.78, -41.59, 108.87)" xlink:href="#Áåçûìÿííûé_ãðàäèåíò_267"/><linearGradient id="Áåçûìÿííûé_ãðàäèåíò_267-8" x1="318.3" y1="159.78" x2="349.12" y2="55.7" xlink:href="#Áåçûìÿííûé_ãðàäèåíò_267"/><linearGradient id="Áåçûìÿííûé_ãðàäèåíò_267-9" x1="257.14" y1="-1.62" x2="238.95" y2="199.98" xlink:href="#Áåçûìÿííûé_ãðàäèåíò_267"/><linearGradient id="Áåçûìÿííûé_ãðàäèåíò_267-10" x1="267.52" y1="7.91" x2="250.45" y2="197.08" xlink:href="#Áåçûìÿííûé_ãðàäèåíò_267"/><linearGradient id="Áåçûìÿííûé_ãðàäèåíò_267-11" x1="211.3" y1="202.29" x2="204.73" y2="133.57" xlink:href="#Áåçûìÿííûé_ãðàäèåíò_267"/><linearGradient id="Áåçûìÿííûé_ãðàäèåíò_267-12" x1="241.25" y1="-41.17" x2="219.25" y2="202.66" xlink:href="#Áåçûìÿííûé_ãðàäèåíò_267"/><linearGradient id="Áåçûìÿííûé_ãðàäèåíò_267-13" x1="299" y1="199.26" x2="308.09" y2="160.61" xlink:href="#Áåçûìÿííûé_ãðàäèåíò_267"/><linearGradient id="Áåçûìÿííûé_ãðàäèåíò_267-14" x1="349.8" y1="172.34" x2="355.11" y2="146.57" xlink:href="#Áåçûìÿííûé_ãðàäèåíò_267"/><radialGradient id="Áåçûìÿííûé_ãðàäèåíò_123" cx="295.46" cy="101.24" r="136.43" gradientUnits="userSpaceOnUse"><stop offset="0" stop-color="#ffab00"/><stop offset="0.33" stop-color="#ce7200"/><stop offset="1" stop-color="#6d0000"/></radialGradient><radialGradient id="Áåçûìÿííûé_ãðàäèåíò_123-2" cx="519.38" cy="189.25" r="50.33" xlink:href="#Áåçûìÿííûé_ãðàäèåíò_123"/><linearGradient id="linear-gradient" x1="262.93" y1="132.63" x2="396.07" y2="132.63" gradientUnits="userSpaceOnUse"><stop offset="0" stop-color="#b3d9ff"/><stop offset="1" stop-color="#b3daff"/></linearGradient><linearGradient id="linear-gradient-2" x1="376.32" y1="174.98" x2="454.72" y2="174.98" xlink:href="#linear-gradient"/><linearGradient id="linear-gradient-3" x1="172.11" y1="178.16" x2="308.23" y2="178.16" xlink:href="#linear-gradient"/></defs><g class="cls-1"><g id="Layer_2" data-name="Layer 2"><g id="layer1"><path class="cls-2" d="M0,206.22l131.42-3.73c-2.57-24.33,20.23-7.78,20.23-7.78,5.26-88.79,73.83-63,73.83-63,10.46-63.51,36.87-25.91,36.87-25.91s40-121,96.94-104.22,36.78,120,36.78,120,32-25.25,54.1-12.6c21.52,12.3,0,66.42-1.18,69.42a1.11,1.11,0,0,1-.05.13l.67,0c15.53-.64,1.18,20.18,1.18,20.18,63.78-12.31,135.91.33,139,.87l.1,0Z"/><g class="cls-3"><path class="cls-4" d="M391.87,193.42s47.06-17.3,60.06-14.84-1.14,20.08-1.14,20.08A241.22,241.22,0,0,0,391.87,193.42Z"/><path class="cls-5" d="M438.62,198.66s-52.08-9.6-93.88,1.58Z"/><path class="cls-6" d="M451.37,171.57s24.07-64.62-13.52-65.41-69,41.77-69,41.77S380,173.84,451.37,171.57Z"/><path class="cls-7" d="M356,181.32s18.84-7.33,38.15,1C394.1,182.33,385.91,200,356,181.32Z"/><path class="cls-8" d="M394.38,178.86s10-3.91,20.32.53C414.7,179.39,400.93,191.35,394.38,178.86Z"/><path class="cls-9" d="M227.21,180.31s9.6-7.28,19.2.35C246.41,180.66,235.25,188.22,227.21,180.31Z"/><path class="cls-10" d="M354.05,146.33s5.39-10.36,17.93-4.9C372,141.43,365.27,152.51,354.05,146.33Z"/><path class="cls-11" d="M397.23,113.88S411.71-2.65,346.24.21s-82.65,136.18-82.65,136.18,19.22,15.17,64.93,10.1S397.23,113.88,397.23,113.88Z"/><path class="cls-12" d="M263.59,112.67s-7.83-17.57-20-14.13-15.54,36.13-15.54,36.13S256.88,140.09,263.59,112.67Z"/><path class="cls-13" d="M242.62,140s7.58-3,14.27-2.26,11,9.79,11,9.79S252.69,150.82,242.62,140Z"/><path class="cls-14" d="M264.91,156.28s-28.89-20.36-66.14-26S152.4,181.59,152.41,193C152.41,193,240.46,182.17,264.91,156.28Z"/><path class="cls-15" d="M157.86,202.52s31-14.4,64.94-16.68S281,199.11,281,199.11,201.69,203.94,157.86,202.52Z"/><path class="cls-16" d="M243.61,176S261,159,286.82,154.69,362,190.21,362,190.21s-42.64,4.38-65.79,4.62S243.61,176,243.61,176Z"/><path class="cls-17" d="M319.16,155.48s17.75-9.56,31.83-7.28c16.11,2.62,32.19,27.72,32.19,27.72S338.27,182.18,319.16,155.48Z"/></g><path class="cls-18" d="M589.84,199.56s-191.22-.79-286.24.47S0,206.21,0,206.21Z"/><path class="cls-19" d="M449,178.41a11.31,11.31,0,0,0-2.46,0s27-61.18-1.38-68.86-53.41,16.69-53.41,16.69S416.48,9.94,356.4,7.28c-58.93-2.61-92,102.14-92,102.14s-8.3-14.14-20.83-10.88-15.54,36.13-15.54,36.13-31.74-10.19-52.84,9.68-21.35,53.48-21.35,53.48-9.85-9.33-16.35-7.31-6.11,12-6.11,12c-2.57-24.33,20.23-7.78,20.23-7.78,5.26-88.79,73.83-63,73.83-63,10.46-63.51,36.87-25.91,36.87-25.91s40-121,96.94-104.22,36.78,120,36.78,120,32-25.25,54.1-12.6C471.69,121.29,450.21,175.41,449,178.41Z"/><path class="cls-20" d="M589.74,199.54c-1.62-.21-25.21-3.72-67.87-5.36C477.47,192.48,449,200,449,200s7.5-11.22,6.06-16.94c-.79-3.18-3.36-4.27-5.47-4.61,15.53-.64,1.18,20.18,1.18,20.18C514.57,186.36,586.7,199,589.74,199.54Z"/><path class="cls-21" d="M264.44,109.42s10.76,19.44,47.7,22.48,83.93-10.31,83.93-10.31l-21.33,18.25s-9.94-6.76-26.09,7.68a62.78,62.78,0,0,0-29.49,8s-25.11,3.09-44.84-9C257.23,136,264.44,109.42,264.44,109.42Z"/><path class="cls-22" d="M454.72,161.45s-17.12,10.74-39,12.39a82.81,82.81,0,0,1-39.39-7.13l9.29,8.9s18.14-1.15,29.09,3.78l-8.55,9.11s31.34-11,42.84-10.09C449,178.41,452.84,168.6,454.72,161.45Z"/><path class="cls-23" d="M243.61,176s26.4,15.27,64.62,24l-25,.05s-8.81-7.24-36.85-19.37c0,0-7.58-7.66-19.2-.35l4.11,2.72-6.26,2.59s-29.47.85-52.95,11.27l9.72-8.71s64.18-10.56,83.08-31.9l11.59.9S251.93,167.1,243.61,176Z"/></g></g></g></svg>