<svg xmlns="http://www.w3.org/2000/svg" xmlns:xlink="http://www.w3.org/1999/xlink" viewBox="0 0 200.78 46.55"><defs><style>.cls-1,.cls-2,.cls-3,.cls-4,.cls-5{fill-rule:evenodd;}.cls-1{fill:url(#Áåçûìÿííûé_ãðàäèåíò_169);}.cls-2{fill:#8596e4;}.cls-3{fill:url(#Áåçûìÿííûé_ãðàäèåíò_170);}.cls-4{fill:url(#Áåçûìÿííûé_ãðàäèåíò_170-2);}.cls-5{fill:url(#Áåçûìÿííûé_ãðàäèåíò_170-3);}</style><linearGradient id="Áåçûìÿííûé_ãðàäèåíò_169" x1="100.39" y1="46.55" x2="100.39" y2="0.1" gradientUnits="userSpaceOnUse"><stop offset="0" stop-color="#c6ccf3"/><stop offset="0.26" stop-color="#cfd4f5"/><stop offset="0.67" stop-color="#e7eafa"/><stop offset="1" stop-color="#fff"/></linearGradient><linearGradient id="Áåçûìÿííûé_ãðàäèåíò_170" x1="82.82" y1="42.53" x2="82.31" y2="5.9" gradientUnits="userSpaceOnUse"><stop offset="0" stop-color="#dbe1ff"/><stop offset="0.36" stop-color="#e4e8ff"/><stop offset="0.94" stop-color="#fcfcff"/><stop offset="1" stop-color="#fff"/></linearGradient><linearGradient id="Áåçûìÿííûé_ãðàäèåíò_170-2" x1="146.04" y1="42.5" x2="145.51" y2="4.19" xlink:href="#Áåçûìÿííûé_ãðàäèåíò_170"/><linearGradient id="Áåçûìÿííûé_ãðàäèåíò_170-3" x1="7.59" y1="43.57" x2="7.08" y2="6.94" xlink:href="#Áåçûìÿííûé_ãðàäèåíò_170"/></defs><g id="Layer_2" data-name="Layer 2"><g id="layer1"><path class="cls-1" d="M0,46.55,200.78,40l-43.2-3.2S157.14-2.77,103.3.26,14,42.49,14,42.49,11.81,34.31,0,46.55Z"/><path class="cls-2" d="M0,46.55,200.78,40S118.24,33.83,0,46.55Z"/><path class="cls-3" d="M151.34,18.42s-19.49,7.39-68.13,16.12-69.25,8-69.25,8S31.39,16.5,78.9,4.2,147,9.66,151.34,18.42Z"/><path class="cls-4" d="M149.78,23.32a172.55,172.55,0,0,0-34.46,12.35s33.83,2.84,61.28,2.55C176.6,38.22,158,26.39,149.78,23.32Z"/><path class="cls-5" d="M1.22,45.32a35.74,35.74,0,0,0,7.85-.74A17.55,17.55,0,0,0,14,42.49S11.19,34.76,1.22,45.32Z"/></g></g></svg>