<svg xmlns="http://www.w3.org/2000/svg" xmlns:xlink="http://www.w3.org/1999/xlink" viewBox="0 0 376.2 95.79"><defs><style>.cls-1{isolation:isolate;}.cls-10,.cls-2,.cls-3,.cls-4,.cls-5,.cls-6,.cls-7,.cls-8,.cls-9{fill-rule:evenodd;}.cls-2{fill:url(#Áåçûìÿííûé_ãðàäèåíò_169);}.cls-3{fill:#a8b4ec;}.cls-10,.cls-4,.cls-5,.cls-6,.cls-7,.cls-9{opacity:0.2;}.cls-10,.cls-4,.cls-5,.cls-6,.cls-9{mix-blend-mode:screen;}.cls-4{fill:url(#Áåçûìÿííûé_ãðàäèåíò_267);}.cls-5{fill:url(#Áåçûìÿííûé_ãðàäèåíò_267-2);}.cls-6{fill:url(#Áåçûìÿííûé_ãðàäèåíò_267-3);}.cls-7{mix-blend-mode:multiply;fill:url(#linear-gradient);}.cls-8{fill:url(#Áåçûìÿííûé_ãðàäèåíò_169-2);}.cls-9{fill:url(#Áåçûìÿííûé_ãðàäèåíò_267-4);}.cls-10{fill:url(#Áåçûìÿííûé_ãðàäèåíò_267-5);}</style><linearGradient id="Áåçûìÿííûé_ãðàäèåíò_169" y1="7350.39" x2="349.26" y2="7350.39" gradientTransform="translate(0 -3820.44) scale(1 0.53)" gradientUnits="userSpaceOnUse"><stop offset="0" stop-color="#c6ccf3"/><stop offset="0.26" stop-color="#cfd4f5"/><stop offset="0.67" stop-color="#e7eafa"/><stop offset="1" stop-color="#fff"/></linearGradient><linearGradient id="Áåçûìÿííûé_ãðàäèåíò_267" x1="221.92" y1="94.73" x2="238.21" y2="39.73" gradientUnits="userSpaceOnUse"><stop offset="0" stop-color="#3e0227"/><stop offset="0.14" stop-color="#420327"/><stop offset="0.29" stop-color="#4e0727"/><stop offset="0.43" stop-color="#620d28"/><stop offset="0.58" stop-color="#7e1628"/><stop offset="0.72" stop-color="#a22129"/><stop offset="0.86" stop-color="#ce2e29"/><stop offset="1" stop-color="#ff3d2a"/></linearGradient><linearGradient id="Áåçûìÿííûé_ãðàäèåíò_267-2" x1="141.08" y1="84.41" x2="148.81" y2="58.3" xlink:href="#Áåçûìÿííûé_ãðàäèåíò_267"/><linearGradient id="Áåçûìÿííûé_ãðàäèåíò_267-3" x1="110.29" y1="87.13" x2="114.34" y2="73.46" xlink:href="#Áåçûìÿííûé_ãðàäèåíò_267"/><linearGradient id="linear-gradient" x1="96.28" y1="65.59" x2="299.54" y2="65.59" gradientUnits="userSpaceOnUse"><stop offset="0" stop-color="#b3d9ff"/><stop offset="1" stop-color="#b3daff"/></linearGradient><linearGradient id="Áåçûìÿííûé_ãðàäèåíò_169-2" x1="222.89" y1="7297.48" x2="376.2" y2="7297.48" xlink:href="#Áåçûìÿííûé_ãðàäèåíò_169"/><linearGradient id="Áåçûìÿííûé_ãðàäèåíò_267-4" x1="315.21" y1="44.84" x2="320.02" y2="28.62" xlink:href="#Áåçûìÿííûé_ãðàäèåíò_267"/><linearGradient id="Áåçûìÿííûé_ãðàäèåíò_267-5" x1="275.82" y1="48.6" x2="284.97" y2="17.71" xlink:href="#Áåçûìÿííûé_ãðàäèåíò_267"/></defs><g class="cls-1"><g id="Layer_2" data-name="Layer 2"><g id="layer1"><path class="cls-2" d="M0,95.79s263.39-12,349.26-23.1L299.54,71.6S272,6.23,228.54,7.73,168.3,48.19,168.3,48.19s-28.74-9.26-38.06,24.65c0,0-19.06-20.2-34,10.3Z"/><path class="cls-3" d="M349.26,72.69S267,71.2,189.06,76.28,0,95.79,0,95.79,251.74,85.49,349.26,72.69Z"/><path class="cls-4" d="M157.59,73.16s14.53-60.95,65.77-64.48S299.54,71.6,299.54,71.6,194.37,79.28,157.59,73.16Z"/><path class="cls-5" d="M165.47,48.84s-29.59-8.75-36.33,30.84c0,0,13.77-1.21,18.16-3.74S165.47,48.84,165.47,48.84Z"/><path class="cls-6" d="M129.24,71.89s-9.38-7.39-18.75-3.47S97.2,82.62,97.2,82.62a163.46,163.46,0,0,0,16.92-1.32C122.14,80.17,129.24,71.89,129.24,71.89Z"/><path class="cls-7" d="M292.66,57.62S274,64.32,219.36,71.2,160,65.43,160,65.43l8.31-17.24-1.08-.14s-12.45,21.83-21.34,25.74-49.6,9.35-49.6,9.35L121,82S238,71.47,299.54,71.6Z"/><path class="cls-8" d="M222.89,47.75,376.2,42.29l-30.34-3.42S324.62,9.13,306.54,21.41c0,0-3.65-19.76-23.56-21.37s-26.57,43.87-26.57,43.87-2.18-5.49-8.84-.19Z"/><path class="cls-3" d="M222.89,47.75S308,34.42,375.43,42.32Z"/><path class="cls-9" d="M288.86,36.29S300.19,18,317.44,19.49s28.42,19.38,28.42,19.38S305,35.87,288.86,36.29Z"/><path class="cls-10" d="M305.53,19.41S297.08-1.49,280.7,1.27,258.53,36,258.05,41.92c0,0,17.53-1.42,22.46-4.07S297.86,21.24,305.53,19.41Z"/></g></g></g></svg>